SplineFontDB: 3.0
FontName: Jost-MediumItalic
FullName: Jost* 500 Medium Italic
FamilyName: Jost* Medium
Weight: Medium
Copyright: This typeface is licensed under the SIL open font license.
UComments: "2018-6-8: Created with FontForge (http://fontforge.org)"
Version: 003.400
ItalicAngle: -10
UnderlinePosition: -100
UnderlineWidth: 50
Ascent: 800
Descent: 200
InvalidEm: 0
LayerCount: 2
Layer: 0 0 "Back" 1
Layer: 1 0 "Fore" 0
XUID: [1021 69 1495626776 760146]
FSType: 0
OS2Version: 0
OS2_WeightWidthSlopeOnly: 0
OS2_UseTypoMetrics: 0
CreationTime: 1528480336
ModificationTime: 1563287909
PfmFamily: 17
TTFWeight: 500
TTFWidth: 5
LineGap: 100
VLineGap: 0
OS2TypoAscent: 825
OS2TypoAOffset: 0
OS2TypoDescent: -225
OS2TypoDOffset: 0
OS2TypoLinegap: 100
OS2WinAscent: 900
OS2WinAOffset: 0
OS2WinDescent: 300
OS2WinDOffset: 0
HheadAscent: 1030
HheadAOffset: 0
HheadDescent: -350
HheadDOffset: 0
OS2CapHeight: 700
OS2XHeight: 460
OS2Vendor: 'PfEd'
Lookup: 1 0 0 "alt a" { "alt a"  } ['ss01' ('DFLT' <'dflt' > 'latn' <'dflt' > ) ]
Lookup: 1 0 0 "Tabular Numbers lookup" { "Tabular Numbers lookup"  } ['tnum' ('DFLT' <'dflt' > 'grek' <'dflt' > 'latn' <'dflt' > ) ]
Lookup: 258 0 0 "Lets get our kern on" { "kernin like nobodys business" [150,0,4] } ['kern' ('DFLT' <'dflt' > 'latn' <'dflt' > ) ]
MarkAttachClasses: 1
DEI: 91125
KernClass2: 16 14 "kernin like nobodys business"
 43 slash seven V W Wcircumflex uni040E uni0423
 175 quotedbl quotesingle asterisk grave dieresis ordfeminine macron degree acute ordmasculine circumflex breve dotaccent ring tilde quoteleft quoteright quotedblleft quotedblright
 25 nine question F P uni0420
 131 A L backslash Agrave Aacute Acircumflex Atilde Adieresis Aring Amacron Abreve Aogonek Lacute uni013B Lslash uni0410 uni0414 uni041C
 58 three eight B C germandbls uni0411 uni0412 uni0417 uni0421
 29 K X Z uni0416 uni041A uni0425

StartChar: H
Encoding: 72 72 0
Width: 720
VWidth: 0
Flags: HMW
LayerCount: 2
Fore
SplineSet
148 321 m 1
 167 430 l 1
 654 430 l 1
 635 321 l 1
 148 321 l 1
622 700 m 1
 742 700 l 1
 620 0 l 1
 504 0 l 1
 622 700 l 1
166 700 m 1
 285 700 l 1
 164 0 l 1
 48 0 l 1
 166 700 l 1
EndSplineSet
EndChar

StartChar: O
Encoding: 79 79 1
Width: 777
VWidth: 0
Flags: HMW
LayerCount: 2
Fore
SplineSet
192 350 m 0
 172 223 237 102 376 101 c 0
 517 100 629 215 652 350 c 0
 672 478 608 598 468 599 c 0
 327 600 215 485 192 350 c 0
68 350 m 0
 99 551 272 712 480 712 c 0
 685 712 805 543 777 350 c 0
 746 149 573 -15 363 -15 c 0
 157 -15 40 157 68 350 c 0
EndSplineSet
EndChar

StartChar: I
Encoding: 73 73 2
Width: 266
VWidth: 0
Flags: HMW
LayerCount: 2
Fore
SplineSet
166 700 m 1
 286 700 l 1
 165 0 l 1
 48 0 l 1
 166 700 l 1
EndSplineSet
EndChar

StartChar: C
Encoding: 67 67 3
Width: 670
VWidth: 0
Flags: HMW
LayerCount: 2
Fore
SplineSet
195 350 m 0
 175 219 248 106 380 104 c 0
 475 103 552 148 612 202 c 1
 591 62 l 1
 527 16 457 -12 364 -12 c 0
 160 -11 40 156 68 350 c 0
 99 553 272 711 480 712 c 0
 568 712 631 687 687 637 c 1
 665 497 l 1
 623 557 559 596 472 596 c 0
 338 596 218 488 195 350 c 0
EndSplineSet
EndChar

StartChar: E
Encoding: 69 69 4
Width: 553
VWidth: 0
Flags: HMW
LayerCount: 2
Fore
SplineSet
119 0 m 1
 137 104 l 1
 482 104 l 1
 464 0 l 1
 119 0 l 1
221 596 m 1
 239 700 l 1
 583 700 l 1
 565 596 l 1
 221 596 l 1
174 324 m 1
 192 426 l 1
 517 426 l 1
 500 324 l 1
 174 324 l 1
166 700 m 1
 282 700 l 1
 162 0 l 1
 48 0 l 1
 166 700 l 1
EndSplineSet
EndChar

StartChar: F
Encoding: 70 70 6
Width: 505
VWidth: 0
Flags: HMW
LayerCount: 2
Fore
SplineSet
220 593 m 1
 239 700 l 1
 544 700 l 1
 526 593 l 1
 220 593 l 1
173 316 m 1
 191 419 l 1
 487 419 l 1
 469 316 l 1
 173 316 l 1
166 700 m 1
 282 700 l 1
 162 0 l 1
 48 0 l 1
 166 700 l 1
EndSplineSet
EndChar

StartChar: G
Encoding: 71 71 7
Width: 767
VWidth: 0
Flags: HMW
LayerCount: 2
Fore
SplineSet
416 266 m 1
 434 366 l 1
 761 366 l 1
 731 167 591 -15 367 -15 c 0
 159 -15 39 154 68 350 c 0
 100 555 274 712 485 712 c 0
 609 712 703 655 756 555 c 1
 652 493 l 1
 621 561 561 601 474 601 c 0
 334 601 216 491 192 350 c 0
 171 216 240 96 380 96 c 0
 501 96 577 173 620 266 c 1
 416 266 l 1
EndSplineSet
EndChar

StartChar: T
Encoding: 84 84 8
Width: 488
VWidth: 0
Flags: HMW
LayerCount: 2
Fore
SplineSet
80 591 m 1
 99 700 l 1
 576 700 l 1
 557 591 l 1
 378 591 l 1
 276 0 l 1
 158 0 l 1
 260 591 l 1
 80 591 l 1
EndSplineSet
EndChar

StartChar: L
Encoding: 76 76 9
Width: 466
VWidth: 0
Flags: HMW
LayerCount: 2
Fore
SplineSet
167 700 m 1
 285 700 l 1
 183 107 l 1
 452 107 l 1
 434 0 l 1
 47 0 l 1
 167 700 l 1
EndSplineSet
EndChar

StartChar: D
Encoding: 68 68 10
Width: 679
VWidth: 0
Flags: HMW
LayerCount: 2
Fore
SplineSet
166 700 m 1
 287 700 l 1
 167 0 l 1
 48 0 l 1
 166 700 l 1
271 0 m 2
 118 0 l 1
 138 112 l 1
 281 112 l 2
 422 112 534 204 558 350 c 0
 580 489 507 588 369 588 c 2
 218 588 l 1
 238 700 l 1
 383 700 l 2
 589 700 707 547 678 350 c 0
 646 146 482 0 271 0 c 2
EndSplineSet
EndChar

StartChar: Q
Encoding: 81 81 11
Width: 795
VWidth: 0
Flags: HMW
LayerCount: 2
Fore
SplineSet
192 350 m 0
 172 219 241 97 381 96 c 0
 522 95 635 208 658 343 c 0
 679 472 613 598 469 599 c 0
 328 600 215 485 192 350 c 0
68 350 m 0
 99 551 274 712 482 712 c 0
 687 712 805 542 777 350 c 0
 746 149 575 -15 365 -15 c 0
 159 -15 40 157 68 350 c 0
385 300 m 1
 514 300 l 1
 767 -5 l 1
 637 -5 l 1
 385 300 l 1
EndSplineSet
EndChar

StartChar: A
Encoding: 65 65 12
Width: 669
VWidth: 0
Flags: HMW
LayerCount: 2
Fore
SplineSet
160 180 m 1
 199 279 l 1
 516 279 l 1
 521 180 l 1
 160 180 l 1
395 502 m 1
 245 245 l 1
 240 219 l 1
 107 0 l 1
 -28 0 l 1
 434 741 l 1
 640 0 l 1
 511 0 l 1
 456 213 l 1
 458 242 l 1
 395 502 l 1
EndSplineSet
EndChar

StartChar: R
Encoding: 82 82 13
Width: 577
VWidth: 0
Flags: HMW
LayerCount: 2
Fore
SplineSet
246 334 m 1
 369 334 l 1
 542 0 l 1
 406 0 l 1
 246 334 l 1
166 700 m 1
 285 700 l 1
 164 0 l 1
 48 0 l 1
 166 700 l 1
218 597 m 1
 236 700 l 1
 374 700 l 2
 513 700 604 612 586 482 c 0
 567 350 451 265 307 265 c 2
 160 265 l 1
 178 362 l 1
 312 362 l 2
 389 362 453 407 466 480 c 0
 478 551 432 597 358 597 c 2
 218 597 l 1
EndSplineSet
EndChar

StartChar: V
Encoding: 86 86 14
Width: 669
VWidth: 0
Flags: HMW
LayerCount: 2
Fore
SplineSet
348 210 m 1
 624 700 l 1
 761 700 l 1
 312 -41 l 1
 94 700 l 1
 225 700 l 1
 348 210 l 1
EndSplineSet
EndChar

StartChar: M
Encoding: 77 77 15
Width: 817
VWidth: 0
Flags: HMW
LayerCount: 2
Fore
SplineSet
250 425 m 1
 130 0 l 1
 7 0 l 1
 228 735 l 1
 424 262 l 1
 789 740 l 1
 755 0 l 1
 634 0 l 1
 660 420 l 1
 394 64 l 1
 250 425 l 1
EndSplineSet
EndChar

StartChar: W
Encoding: 87 87 16
Width: 989
VWidth: 0
Flags: HMW
LayerCount: 2
Fore
SplineSet
706 222 m 1
 938 700 l 1
 1076 700 l 1
 682 -39 l 1
 550 455 l 1
 263 -40 l 1
 98 700 l 1
 232 700 l 1
 315 223 l 1
 591 737 l 1
 706 222 l 1
EndSplineSet
EndChar

StartChar: N
Encoding: 78 78 17
Width: 758
VWidth: 0
Flags: HMW
LayerCount: 2
Fore
SplineSet
663 700 m 1
 778 700 l 1
 652 -34 l 1
 243 470 l 1
 162 0 l 1
 47 0 l 1
 172 734 l 1
 581 230 l 1
 663 700 l 1
EndSplineSet
EndChar

StartChar: a
Encoding: 97 97 18
Width: 571
VWidth: 0
Flags: HMW
LayerCount: 2
Fore
SplineSet
457 460 m 1
 562 460 l 1
 482 0 l 1
 379 0 l 1
 457 460 l 1
44 230 m 0
 63 366 173 471 300 470 c 0
 424 469 469 354 453 230 c 0
 435 99 348 -10 225 -10 c 0
 98 -10 27 99 44 230 c 0
155 230 m 0
 143 152 183 86 260 85 c 0
 331 84 401 149 414 230 c 0
 425 306 385 373 316 375 c 0
 238 377 168 312 155 230 c 0
EndSplineSet
Substitution2: "alt a" a.alt
EndChar

StartChar: X
Encoding: 88 88 19
Width: 589
VWidth: 0
Flags: HMW
LayerCount: 2
Fore
SplineSet
517 700 m 1
 662 700 l 1
 401 361 l 1
 565 0 l 1
 427 0 l 1
 323 267 l 1
 132 0 l 1
 -13 0 l 1
 273 366 l 1
 123 700 l 1
 261 700 l 1
 351 466 l 1
 517 700 l 1
EndSplineSet
EndChar

StartChar: K
Encoding: 75 75 20
Width: 601
VWidth: 0
Flags: HMW
LayerCount: 2
Fore
SplineSet
166 700 m 1
 288 700 l 1
 167 0 l 1
 48 0 l 1
 166 700 l 1
535 700 m 1
 680 700 l 1
 333 369 l 1
 570 0 l 1
 432 0 l 1
 195 372 l 1
 535 700 l 1
EndSplineSet
EndChar

StartChar: Y
Encoding: 89 89 21
Width: 582
VWidth: 0
Flags: HMW
LayerCount: 2
Fore
SplineSet
540 700 m 1
 676 700 l 1
 374 292 l 1
 324 0 l 1
 205 0 l 1
 257 298 l 1
 96 700 l 1
 226 700 l 1
 331 403 l 1
 540 700 l 1
EndSplineSet
EndChar

StartChar: B
Encoding: 66 66 22
Width: 582
VWidth: 0
Flags: HMW
LayerCount: 2
Fore
SplineSet
198 362 m 1
 207 418 l 1
 315 419 l 2
 376 419 430 453 440 511 c 0
 450 567 411 602 352 602 c 2
 268 602 l 1
 181 98 l 1
 271 98 l 2
 348 99 415 139 428 215 c 0
 440 287 390 326 317 327 c 2
 191 327 l 1
 203 392 l 1
 329 392 l 2
 453 391 564 332 545 201 c 0
 525 66 407 0 269 0 c 2
 47 0 l 1
 167 700 l 1
 369 700 l 2
 487 700 580 641 562 523 c 0
 544 416 438 363 318 362 c 2
 198 362 l 1
EndSplineSet
EndChar

StartChar: Z
Encoding: 90 90 23
Width: 557
VWidth: 0
Flags: HMW
LayerCount: 2
Fore
SplineSet
115 591 m 1
 135 700 l 1
 636 700 l 1
 193 107 l 1
 509 107 l 1
 489 0 l 1
 -18 0 l 1
 424 590 l 1
 115 591 l 1
EndSplineSet
EndChar

StartChar: o
Encoding: 111 111 24
Width: 546
VWidth: 0
Flags: HMW
LayerCount: 2
Fore
SplineSet
50 230 m 0
 68 366 185 470 325 470 c 0
 462 470 552 362 534 230 c 0
 516 94 398 -10 258 -10 c 0
 121 -10 32 98 50 230 c 0
160 230 m 0
 149 155 188 87 266 86 c 0
 345 85 412 151 424 230 c 0
 435 305 395 373 317 374 c 0
 238 375 172 309 160 230 c 0
EndSplineSet
EndChar

StartChar: J
Encoding: 74 74 25
Width: 267
VWidth: 0
Flags: HMW
LayerCount: 2
Fore
SplineSet
-112 -88 m 1
 -95 -108 -72 -123 -41 -122 c 0
 -3 -121 33 -88 40 -36 c 2
 167 700 l 1
 287 700 l 1
 159 -58 l 2
 141 -166 59 -228 -48 -227 c 0
 -105 -227 -155 -201 -186 -174 c 1
 -112 -88 l 1
EndSplineSet
EndChar

StartChar: t
Encoding: 116 116 26
Width: 262
VWidth: 0
Flags: HMW
LayerCount: 2
Fore
SplineSet
57 460 m 1
 313 460 l 1
 296 364 l 1
 39 364 l 1
 57 460 l 1
157 620 m 1
 264 620 l 1
 156 0 l 1
 53 0 l 1
 157 620 l 1
EndSplineSet
EndChar

StartChar: d
Encoding: 100 100 27
Width: 571
VWidth: 0
Flags: HMW
LayerCount: 2
Fore
SplineSet
507 780 m 1
 616 780 l 1
 482 0 l 1
 375 0 l 1
 507 780 l 1
44 230 m 0
 63 366 173 471 300 470 c 0
 424 469 469 354 453 230 c 0
 435 99 348 -10 225 -10 c 0
 98 -10 27 99 44 230 c 0
155 230 m 0
 143 152 183 86 260 85 c 0
 331 84 401 149 414 230 c 0
 425 306 385 373 316 375 c 0
 238 377 168 312 155 230 c 0
EndSplineSet
EndChar

StartChar: l
Encoding: 108 108 28
Width: 238
VWidth: 0
Flags: HMW
LayerCount: 2
Fore
SplineSet
172 780 m 1
 280 780 l 1
 146 0 l 1
 39 0 l 1
 172 780 l 1
EndSplineSet
EndChar

StartChar: i
Encoding: 105 105 29
Width: 258
VWidth: 0
Flags: HMW
LayerCount: 2
Fore
SplineSet
144 643 m 0
 144 680 175 708 212 708 c 0
 249 708 280 680 280 643 c 0
 280 606 249 577 212 577 c 0
 175 577 144 606 144 643 c 0
127 460 m 1
 235 460 l 1
 156 0 l 1
 50 0 l 1
 127 460 l 1
EndSplineSet
EndChar

StartChar: r
Encoding: 114 114 30
Width: 359
VWidth: 0
Flags: HMW
LayerCount: 2
Fore
SplineSet
224 460 m 1
 145 0 l 1
 38 0 l 1
 118 460 l 1
 224 460 l 1
339 345 m 1
 322 359 308 368 285 368 c 0
 229 369 199 314 189 259 c 1
 158 281 l 1
 175 374 244 469 324 470 c 0
 357 470 383 458 405 435 c 1
 339 345 l 1
EndSplineSet
EndChar

StartChar: c
Encoding: 99 99 31
Width: 469
VWidth: 0
Flags: HMW
LayerCount: 2
Fore
SplineSet
156 230 m 0
 144 152 189 86 269 84 c 0
 335 83 394 119 429 161 c 1
 413 41 l 1
 373 10 318 -10 256 -10 c 0
 118 -10 28 97 46 230 c 0
 65 366 182 470 323 470 c 0
 382 470 433 451 469 418 c 1
 452 299 l 1
 429 345 380 376 320 376 c 0
 237 376 169 311 156 230 c 0
EndSplineSet
EndChar

StartChar: b
Encoding: 98 98 32
Width: 571
VWidth: 0
Flags: HMW
LayerCount: 2
Fore
SplineSet
276 780 m 1
 142 0 l 1
 35 0 l 1
 168 780 l 1
 276 780 l 1
552 230 m 0
 533 94 423 -11 296 -10 c 0
 172 -9 127 106 143 230 c 0
 161 361 249 470 371 470 c 0
 498 470 569 361 552 230 c 0
441 230 m 0
 453 308 413 374 336 375 c 0
 265 376 195 311 182 230 c 0
 171 154 211 87 280 85 c 0
 358 83 428 148 441 230 c 0
EndSplineSet
EndChar

StartChar: p
Encoding: 112 112 33
Width: 571
VWidth: 0
Flags: HMW
LayerCount: 2
Fore
SplineSet
106 -220 m 1
 -3 -220 l 1
 114 460 l 1
 221 460 l 1
 106 -220 l 1
552 230 m 0
 533 93 424 -13 296 -12 c 0
 171 -11 129 106 145 230 c 0
 163 361 247 472 371 472 c 0
 499 472 569 362 552 230 c 0
441 230 m 0
 453 308 413 372 336 373 c 0
 266 374 195 311 182 230 c 0
 171 153 211 89 280 87 c 0
 358 85 428 149 441 230 c 0
EndSplineSet
EndChar

StartChar: q
Encoding: 113 113 34
Width: 571
VWidth: 0
Flags: HMW
LayerCount: 2
Fore
SplineSet
337 -220 m 1
 453 460 l 1
 561 460 l 1
 444 -220 l 1
 337 -220 l 1
44 230 m 0
 63 367 172 473 300 472 c 0
 425 471 467 354 451 230 c 0
 433 99 349 -12 225 -12 c 0
 97 -12 27 98 44 230 c 0
155 230 m 0
 143 152 183 88 260 87 c 0
 330 86 401 149 414 230 c 0
 425 307 385 371 316 373 c 0
 238 375 168 311 155 230 c 0
EndSplineSet
EndChar

StartChar: h
Encoding: 104 104 35
Width: 526
VWidth: 0
Flags: HMW
LayerCount: 2
Fore
SplineSet
280 780 m 1
 146 0 l 1
 38 0 l 1
 172 780 l 1
 280 780 l 1
375 280 m 2
 382 334 372 380 313 382 c 0
 251 384 208 335 194 281 c 1
 167 281 l 1
 186 381 251 473 357 473 c 0
 462 473 497 395 484 295 c 1
 433 0 l 1
 326 0 l 1
 375 280 l 2
EndSplineSet
EndChar

StartChar: n
Encoding: 110 110 36
Width: 528
VWidth: 0
Flags: HMW
LayerCount: 2
Fore
SplineSet
225 460 m 1
 146 0 l 1
 38 0 l 1
 118 460 l 1
 225 460 l 1
375 280 m 2
 382 334 372 380 313 382 c 0
 251 384 208 335 194 281 c 1
 167 279 l 1
 185 379 250 470 356 470 c 0
 460 470 499 392 486 292 c 1
 436 0 l 1
 326 0 l 1
 375 280 l 2
EndSplineSet
EndChar

StartChar: m
Encoding: 109 109 37
Width: 771
VWidth: 0
Flags: HMW
LayerCount: 2
Fore
SplineSet
353 280 m 2
 359 332 356 379 300 381 c 0
 241 384 204 334 191 281 c 1
 164 279 l 1
 182 378 243 469 346 470 c 0
 448 471 474 393 462 295 c 2
 411 0 l 1
 304 0 l 1
 353 280 l 2
223 460 m 1
 144 0 l 1
 38 0 l 1
 118 460 l 1
 223 460 l 1
730 292 m 2
 680 0 l 1
 572 0 l 1
 622 280 l 2
 628 332 623 379 567 381 c 0
 508 384 472 334 459 281 c 1
 414 279 l 1
 434 379 509 470 614 470 c 0
 717 470 742 390 730 292 c 2
EndSplineSet
EndChar

StartChar: k
Encoding: 107 107 38
Width: 480
VWidth: 0
Flags: HMW
LayerCount: 2
Fore
SplineSet
168 780 m 1
 274 780 l 1
 140 0 l 1
 35 0 l 1
 168 780 l 1
379 460 m 1
 514 460 l 1
 283 265 l 1
 450 0 l 1
 325 0 l 1
 157 273 l 1
 379 460 l 1
EndSplineSet
EndChar

StartChar: u
Encoding: 117 117 39
Width: 528
VWidth: 0
Flags: HMW
LayerCount: 2
Fore
SplineSet
328 0 m 1
 407 460 l 1
 515 460 l 1
 436 0 l 1
 328 0 l 1
179 180 m 1
 173 125 182 80 240 78 c 0
 302 76 345 125 359 179 c 1
 387 181 l 1
 369 81 303 -10 197 -10 c 0
 93 -10 55 67 67 168 c 1
 118 460 l 1
 227 460 l 1
 179 180 l 1
EndSplineSet
EndChar

StartChar: e
Encoding: 101 101 40
Width: 521
VWidth: 0
Flags: HMW
LayerCount: 2
Fore
SplineSet
110 205 m 1
 121 279 l 1
 401 279 l 1
 403 338 377 386 310 387 c 0
 235 388 179 330 165 257 c 1
 158 230 l 1
 147 147 178 80 258 79 c 0
 318 78 363 112 397 153 c 1
 487 113 l 1
 431 41 358 -11 246 -10 c 0
 108 -9 34 101 50 230 c 0
 52 247 56 263 61 279 c 0
 95 389 192 470 318 470 c 0
 458 470 524 367 509 235 c 0
 508 226 507 216 505 205 c 1
 110 205 l 1
EndSplineSet
EndChar

StartChar: g
Encoding: 103 103 41
Width: 568
VWidth: 0
Flags: HMW
LayerCount: 2
Fore
SplineSet
8 -31 m 1
 113 -32 l 1
 111 -94 145 -138 217 -139 c 0
 294 -140 363 -79 376 10 c 2
 453 460 l 1
 559 460 l 1
 482 10 l 2
 459 -138 355 -233 216 -233 c 0
 78 -233 1 -151 8 -31 c 1
44 233 m 0
 63 369 173 471 300 470 c 0
 423 469 470 356 454 232 c 0
 436 101 348 -5 226 -5 c 0
 100 -5 27 102 44 233 c 0
155 232 m 0
 143 154 184 91 261 90 c 0
 331 89 402 152 415 233 c 0
 426 310 385 374 316 375 c 0
 236 376 168 313 155 232 c 0
EndSplineSet
EndChar

StartChar: f
Encoding: 102 102 42
Width: 299
VWidth: 0
Flags: HMW
LayerCount: 2
Fore
SplineSet
81 460 m 1
 339 460 l 1
 323 364 l 1
 63 364 l 1
 81 460 l 1
364 664 m 1
 353 680 340 690 323 690 c 0
 288 690 267 654 261 609 c 2
 156 0 l 1
 50 0 l 1
 157 630 l 2
 172 724 232 793 329 792 c 0
 375 792 405 771 426 747 c 1
 364 664 l 1
EndSplineSet
EndChar

StartChar: s
Encoding: 115 115 43
Width: 411
VWidth: 0
Flags: HMW
LayerCount: 2
Fore
SplineSet
89 167 m 1
 124 117 164 77 209 77 c 0
 242 77 275 94 280 125 c 0
 287 168 238 187 196 205 c 0
 135 231 77 265 87 345 c 0
 98 428 173 470 258 470 c 0
 328 470 385 436 422 388 c 1
 356 325 l 1
 331 356 295 384 257 384 c 0
 225 384 192 372 188 343 c 0
 181 301 245 287 285 270 c 0
 346 243 397 201 389 128 c 0
 378 34 306 -13 210 -13 c 0
 123 -13 60 39 20 105 c 1
 89 167 l 1
EndSplineSet
EndChar

StartChar: y
Encoding: 121 121 44
Width: 457
VWidth: 0
Flags: HMW
LayerCount: 2
Fore
SplineSet
517 460 m 1
 109 -220 l 1
 -8 -220 l 1
 159 57 l 1
 49 460 l 1
 165 460 l 1
 249 96 l 1
 197 100 l 1
 399 460 l 1
 517 460 l 1
EndSplineSet
EndChar

StartChar: w
Encoding: 119 119 45
Width: 690
VWidth: 0
Flags: HMW
LayerCount: 2
Fore
SplineSet
52 460 m 1
 165 460 l 1
 222 190 l 1
 400 497 l 1
 476 188 l 1
 627 460 l 1
 747 460 l 1
 451 -35 l 1
 365 275 l 1
 176 -35 l 1
 52 460 l 1
EndSplineSet
EndChar

StartChar: v
Encoding: 118 118 46
Width: 460
VWidth: 0
Flags: HMW
LayerCount: 2
Fore
SplineSet
53 460 m 1
 168 460 l 1
 239 166 l 1
 399 460 l 1
 519 460 l 1
 208 -44 l 1
 53 460 l 1
EndSplineSet
EndChar

StartChar: x
Encoding: 120 120 47
Width: 450
VWidth: 0
Flags: HMW
LayerCount: 2
Fore
SplineSet
375 460 m 1
 499 460 l 1
 303 233 l 1
 434 0 l 1
 318 0 l 1
 234 159 l 1
 106 0 l 1
 -21 0 l 1
 189 243 l 1
 65 460 l 1
 182 460 l 1
 258 316 l 1
 375 460 l 1
EndSplineSet
EndChar

StartChar: z
Encoding: 122 122 48
Width: 470
VWidth: 0
Flags: HMW
LayerCount: 2
Fore
SplineSet
306 360 m 1
 82 360 l 1
 99 460 l 1
 511 460 l 1
 194 100 l 1
 424 100 l 1
 406 0 l 1
 -16 0 l 1
 306 360 l 1
EndSplineSet
EndChar

StartChar: j
Encoding: 106 106 49
Width: 250
VWidth: 0
Flags: HMW
LayerCount: 2
Fore
SplineSet
137 643 m 0
 137 680 168 708 205 708 c 0
 242 708 272 680 272 643 c 0
 272 606 242 577 205 577 c 0
 168 577 137 606 137 643 c 0
-70 -99 m 1
 -59 -116 -42 -125 -27 -125 c 0
 7 -126 29 -87 34 -44 c 2
 121 460 l 1
 227 460 l 1
 137 -65 l 2
 122 -159 67 -228 -30 -227 c 0
 -76 -227 -109 -206 -131 -182 c 1
 -70 -99 l 1
EndSplineSet
EndChar

StartChar: P
Encoding: 80 80 50
Width: 560
VWidth: 0
Flags: HMW
LayerCount: 2
Fore
SplineSet
166 700 m 1
 285 700 l 1
 164 0 l 1
 48 0 l 1
 166 700 l 1
217 596 m 1
 236 700 l 1
 369 700 l 1
 509 699 600 614 582 482 c 0
 564 348 446 266 302 265 c 1
 160 265 l 1
 179 369 l 1
 313 369 l 1
 390 370 453 410 466 483 c 0
 478 554 432 596 358 596 c 2
 217 596 l 1
EndSplineSet
EndChar

StartChar: U
Encoding: 85 85 51
Width: 636
VWidth: 0
Flags: HMW
LayerCount: 2
Fore
SplineSet
162 700 m 1
 280 700 l 1
 199 235 l 2
 189 159 217 93 304 92 c 0
 399 91 449 155 463 235 c 1
 543 700 l 1
 661 700 l 1
 580 230 l 2
 556 85 454 -17 293 -17 c 0
 146 -17 61 89 82 230 c 1
 162 700 l 1
EndSplineSet
EndChar

StartChar: S
Encoding: 83 83 52
Width: 561
VWidth: 0
Flags: HMW
LayerCount: 2
Fore
SplineSet
136 236 m 1
 164 157 200 93 282 93 c 0
 347 93 394 130 405 188 c 0
 419 263 347 295 280 323 c 0
 204 356 119 410 134 526 c 0
 151 638 255 712 380 712 c 0
 491 712 553 644 582 560 c 1
 484 505 l 1
 462 558 426 605 362 605 c 0
 306 605 264 571 255 522 c 0
 243 458 323 430 388 403 c 0
 472 367 542 302 528 192 c 0
 510 67 400 -15 269 -15 c 0
 151 -15 69 69 39 178 c 1
 136 236 l 1
EndSplineSet
EndChar

StartChar: at
Encoding: 64 64 53
Width: 747
VWidth: 0
Flags: HMW
LayerCount: 2
Fore
SplineSet
305 320 m 0
 299 278 311 242 354 239 c 0
 407 235 467 297 475 368 c 0
 480 411 464 446 423 448 c 0
 368 451 313 383 305 320 c 0
212 316 m 0
 226 433 322 532 419 530 c 0
 501 528 525 442 516 370 c 0
 502 253 422 157 321 158 c 0
 239 159 202 232 212 316 c 0
54 320 m 0
 87 533 268 716 494 715 c 0
 692 714 786 550 760 390 c 0
 743 250 646 144 542 148 c 0
 474 150 453 208 464 268 c 1
 456 280 l 1
 526 520 l 1
 618 520 l 1
 544 296 l 2
 542 288 538 278 537 269 c 0
 535 249 536 229 560 226 c 0
 605 216 667 307 675 390 c 0
 696 513 639 635 488 636 c 0
 306 637 168 491 140 320 c 0
 118 178 184 65 339 63 c 0
 410 62 474 80 538 112 c 1
 563 40 l 1
 496 5 423 -16 328 -16 c 0
 121 -14 26 134 54 320 c 0
EndSplineSet
EndChar

StartChar: period
Encoding: 46 46 54
Width: 299
VWidth: 0
Flags: HMW
LayerCount: 2
Fore
SplineSet
62 51 m 0
 62 90 93 121 133 121 c 0
 173 121 203 90 203 51 c 0
 203 12 173 -18 133 -18 c 0
 93 -18 62 12 62 51 c 0
EndSplineSet
EndChar

StartChar: comma
Encoding: 44 44 55
Width: 304
VWidth: 0
Flags: HMW
LayerCount: 2
Fore
SplineSet
122 109 m 1
 227 77 l 1
 71 -170 l 1
 -7 -148 l 1
 122 109 l 1
EndSplineSet
EndChar

StartChar: colon
Encoding: 58 58 56
Width: 299
VWidth: 0
Flags: HMW
LayerCount: 2
Fore
SplineSet
61 51 m 0
 61 90 91 121 131 121 c 0
 171 121 202 90 202 51 c 0
 202 12 171 -18 131 -18 c 0
 91 -18 61 12 61 51 c 0
126 429 m 0
 126 468 156 499 196 499 c 0
 236 499 266 468 266 429 c 0
 266 390 236 359 196 359 c 0
 156 359 126 390 126 429 c 0
EndSplineSet
EndChar

StartChar: semicolon
Encoding: 59 59 57
Width: 344
VWidth: 0
Flags: HMW
LayerCount: 2
Fore
SplineSet
163 426 m 0
 163 465 193 496 233 496 c 0
 273 496 304 465 304 426 c 0
 304 387 273 356 233 356 c 0
 193 356 163 387 163 426 c 0
131 109 m 1
 235 77 l 1
 80 -170 l 1
 1 -148 l 1
 131 109 l 1
EndSplineSet
EndChar

StartChar: quotedbl
Encoding: 34 34 58
Width: 471
VWidth: 0
Flags: HMW
LayerCount: 2
Fore
SplineSet
206 700 m 1
 328 700 l 1
 186 393 l 1
 112 393 l 1
 206 700 l 1
392 700 m 1
 514 700 l 1
 373 393 l 1
 299 393 l 1
 392 700 l 1
EndSplineSet
EndChar

StartChar: exclam
Encoding: 33 33 59
Width: 308
VWidth: 0
Flags: HMW
LayerCount: 2
Fore
SplineSet
179 700 m 1
 314 700 l 1
 207 213 l 1
 122 213 l 1
 179 700 l 1
65 49 m 0
 65 88 96 117 136 117 c 0
 176 117 207 88 207 49 c 0
 207 10 176 -19 136 -19 c 0
 96 -19 65 10 65 49 c 0
EndSplineSet
EndChar

StartChar: quotesingle
Encoding: 39 39 60
Width: 284
VWidth: 0
Flags: HMW
LayerCount: 2
Fore
SplineSet
206 700 m 1
 328 700 l 1
 186 393 l 1
 112 393 l 1
 206 700 l 1
EndSplineSet
EndChar

StartChar: numbersign
Encoding: 35 35 61
Width: 611
VWidth: 0
Flags: HMW
LayerCount: 2
Fore
SplineSet
119 429 m 1
 133 516 l 1
 640 516 l 1
 625 429 l 1
 486 429 l 1
 467 431 l 1
 275 431 l 1
 256 429 l 1
 119 429 l 1
39 189 m 1
 53 276 l 1
 181 276 l 1
 203 274 l 1
 409 274 l 1
 433 276 l 1
 560 276 l 1
 545 189 l 1
 39 189 l 1
539 700 m 1
 639 700 l 1
 353 0 l 1
 255 0 l 1
 347 226 l 1
 358 247 l 1
 444 460 l 1
 451 481 l 1
 539 700 l 1
323 700 m 1
 423 700 l 1
 334 484 l 1
 323 462 l 1
 235 247 l 1
 230 226 l 1
 137 0 l 1
 40 0 l 1
 323 700 l 1
EndSplineSet
EndChar

StartChar: hyphen
Encoding: 45 45 62
Width: 207
VWidth: 0
Flags: HMW
LayerCount: 2
Fore
SplineSet
10 189 m 1
 26 286 l 1
 228 286 l 1
 211 189 l 1
 10 189 l 1
EndSplineSet
EndChar

StartChar: dollar
Encoding: 36 36 63
Width: 577
VWidth: 0
Flags: HMW
LayerCount: 2
Fore
SplineSet
361 818 m 1
 454 818 l 1
 426 656 l 1
 338 656 l 1
 361 818 l 1
246 53 m 1
 333 53 l 1
 310 -112 l 1
 217 -112 l 1
 246 53 l 1
493 504 m 1
 471 559 442 610 378 611 c 0
 317 612 274 580 265 529 c 0
 253 458 333 431 400 403 c 0
 484 368 556 302 543 192 c 0
 526 69 423 -11 286 -10 c 0
 169 -9 87 73 54 178 c 1
 151 236 l 1
 180 157 218 93 300 93 c 0
 365 93 411 130 420 188 c 0
 432 263 360 295 292 324 c 0
 215 357 131 419 145 533 c 0
 160 636 267 710 384 710 c 0
 496 710 562 641 591 560 c 1
 493 504 l 1
EndSplineSet
EndChar

StartChar: bar
Encoding: 124 124 64
Width: 295
VWidth: 0
Flags: HMW
LayerCount: 2
Fore
SplineSet
200 785 m 1
 304 785 l 1
 151 -215 l 1
 46 -215 l 1
 200 785 l 1
EndSplineSet
EndChar

StartChar: zero
Encoding: 48 48 65
Width: 606
VWidth: 0
Flags: HMW
LayerCount: 2
Fore
SplineSet
186 350 m 0
 174 240 180 98 289 96 c 0
 399 94 469 226 487 350 c 0
 499 460 492 602 383 604 c 0
 273 606 204 474 186 350 c 0
70 350 m 0
 96 539 218 711 394 711 c 0
 573 711 624 526 602 350 c 0
 576 161 455 -11 278 -11 c 0
 101 -11 48 174 70 350 c 0
EndSplineSet
Substitution2: "Tabular Numbers lookup" uniFF10
EndChar

StartChar: one
Encoding: 49 49 66
Width: 458
VWidth: 0
Flags: HMW
LayerCount: 2
Fore
SplineSet
135 535 m 1
 155 649 l 1
 440 712 l 1
 317 0 l 1
 202 0 l 1
 301 579 l 1
 135 535 l 1
EndSplineSet
Substitution2: "Tabular Numbers lookup" uniFF11
EndChar

StartChar: two
Encoding: 50 50 67
Width: 586
VWidth: 0
Flags: HMW
LayerCount: 2
Fore
SplineSet
1 0 m 1
 366 341 l 2
 415 388 461 436 470 496 c 0
 478 551 442 604 374 605 c 0
 290 607 239 534 224 453 c 1
 108 453 l 1
 132 595 229 712 386 712 c 0
 525 712 607 607 591 502 c 0
 580 425 529 358 469 305 c 2
 247 111 l 1
 540 110 l 1
 522 0 l 1
 1 0 l 1
EndSplineSet
Substitution2: "Tabular Numbers lookup" uniFF12
EndChar

StartChar: four
Encoding: 52 52 68
Width: 610
VWidth: 0
Flags: HMW
LayerCount: 2
Fore
SplineSet
12 135 m 1
 491 699 l 1
 564 700 l 1
 444 0 l 1
 324 0 l 1
 354 176 l 1
 363 187 l 1
 414 482 l 1
 201 228 l 1
 430 228 l 1
 448 237 l 1
 592 237 l 1
 574 134 l 1
 12 135 l 1
EndSplineSet
Substitution2: "Tabular Numbers lookup" uniFF14
EndChar

StartChar: slash
Encoding: 47 47 69
Width: 535
VWidth: 0
Flags: HMW
LayerCount: 2
Fore
SplineSet
508 700 m 5
 618 700 l 5
 69 -150 l 5
 -39 -149 l 5
 508 700 l 5
EndSplineSet
EndChar

StartChar: backslash
Encoding: 92 92 70
Width: 510
VWidth: 0
Flags: HMW
LayerCount: 2
Fore
SplineSet
107 700 m 1
 214 700 l 1
 470 0 l 1
 365 0 l 1
 107 700 l 1
EndSplineSet
EndChar

StartChar: eight
Encoding: 56 56 71
Width: 560
VWidth: 0
Flags: HMW
LayerCount: 2
Fore
SplineSet
139 532 m 0
 155 638 258 712 371 712 c 0
 481 712 565 635 550 530 c 0
 534 418 429 350 317 350 c 0
 207 350 123 422 139 532 c 0
247 518 m 0
 239 467 270 421 323 420 c 0
 378 419 428 465 437 519 c 0
 445 570 417 617 362 618 c 0
 304 619 256 572 247 518 c 0
57 190 m 0
 75 318 199 392 317 392 c 0
 432 392 534 316 516 190 c 0
 498 73 381 -12 256 -12 c 0
 135 -12 40 75 57 190 c 0
173 206 m 0
 163 141 202 90 265 89 c 0
 331 88 394 139 405 207 c 0
 414 266 374 322 312 323 c 0
 247 324 184 268 173 206 c 0
EndSplineSet
Substitution2: "Tabular Numbers lookup" uniFF18
EndChar

StartChar: nine
Encoding: 57 57 72
Width: 594
VWidth: 0
Flags: HMW
LayerCount: 2
Fore
SplineSet
489 464 m 0
 500 540 458 607 378 608 c 0
 297 609 228 544 216 464 c 0
 205 388 247 319 327 318 c 0
 408 317 477 384 489 464 c 0
260 1 m 1
 108 1 l 1
 367 275 l 1
 387 277 l 1
 354 249 319 237 275 237 c 0
 159 238 88 346 102 464 c 0
 121 610 243 712 387 712 c 0
 529 712 621 606 603 464 c 0
 594 400 561 344 521 298 c 2
 260 1 l 1
EndSplineSet
Substitution2: "Tabular Numbers lookup" uniFF19
EndChar

StartChar: three
Encoding: 51 51 73
Width: 558
VWidth: 0
Flags: HMW
LayerCount: 2
Fore
SplineSet
290 343 m 1
 298 406 l 1
 374 411 438 451 449 516 c 0
 456 566 432 609 374 610 c 0
 313 611 268 566 254 514 c 1
 144 514 l 1
 165 626 256 711 382 711 c 0
 503 711 582 627 567 522 c 0
 549 403 423 347 290 343 c 1
272 -12 m 0
 134 -12 56 82 65 200 c 1
 181 200 l 1
 178 136 214 92 284 91 c 0
 352 90 409 134 419 200 c 0
 432 278 367 314 286 318 c 1
 295 384 l 1
 431 381 554 327 535 187 c 0
 518 66 405 -12 272 -12 c 0
EndSplineSet
Substitution2: "Tabular Numbers lookup" uniFF13
EndChar

StartChar: five
Encoding: 53 53 74
Width: 578
VWidth: 0
Flags: HMW
LayerCount: 2
Fore
SplineSet
559 227 m 0
 539 78 412 -11 273 -11 c 0
 159 -11 84 42 34 114 c 1
 112 198 l 1
 146 144 201 99 268 99 c 0
 356 99 424 154 436 235 c 0
 447 313 394 367 316 369 c 0
 250 371 190 350 124 315 c 1
 273 700 l 1
 626 700 l 1
 609 596 l 1
 348 596 l 1
 276 435 l 1
 311 451 348 460 386 460 c 0
 508 459 574 350 559 227 c 0
EndSplineSet
Substitution2: "Tabular Numbers lookup" uniFF15
EndChar

StartChar: six
Encoding: 54 54 75
Width: 594
VWidth: 0
Flags: HMW
LayerCount: 2
Fore
SplineSet
181 236 m 0
 170 160 212 93 292 92 c 0
 373 91 442 156 454 236 c 0
 465 312 423 381 343 382 c 0
 262 383 193 316 181 236 c 0
410 698 m 1
 562 698 l 1
 302 425 l 1
 282 423 l 1
 315 451 350 463 394 463 c 0
 510 462 581 354 567 236 c 0
 548 90 426 -12 282 -12 c 0
 140 -12 49 94 67 236 c 0
 76 300 108 356 148 402 c 2
 410 698 l 1
EndSplineSet
Substitution2: "Tabular Numbers lookup" uniFF16
EndChar

StartChar: seven
Encoding: 55 55 76
Width: 539
VWidth: 0
Flags: HMW
LayerCount: 2
Fore
SplineSet
101 588 m 1
 119 700 l 1
 630 700 l 1
 195 0 l 1
 67 0 l 1
 437 588 l 1
 101 588 l 1
EndSplineSet
Substitution2: "Tabular Numbers lookup" uniFF17
EndChar

StartChar: plus
Encoding: 43 43 77
Width: 619
VWidth: 0
Flags: HMW
LayerCount: 2
Fore
SplineSet
71 208 m 1
 89 314 l 1
 585 314 l 1
 567 208 l 1
 71 208 l 1
315 516 m 1
 428 517 l 1
 339 5 l 1
 228 5 l 1
 315 516 l 1
EndSplineSet
EndChar

StartChar: equal
Encoding: 61 61 78
Width: 600
VWidth: 0
Flags: HMW
LayerCount: 2
Fore
SplineSet
52 117 m 1
 69 215 l 1
 553 215 l 1
 536 117 l 1
 52 117 l 1
81 290 m 1
 98 388 l 1
 583 388 l 1
 566 290 l 1
 81 290 l 1
EndSplineSet
EndChar

StartChar: percent
Encoding: 37 37 79
Width: 794
VWidth: 0
Flags: HMW
LayerCount: 2
Fore
SplineSet
94 544 m 0
 108 636 188 713 286 713 c 0
 383 713 440 632 427 543 c 0
 413 451 333 374 235 374 c 0
 138 374 81 455 94 544 c 0
185 543 m 0
 179 503 198 462 245 461 c 0
 291 460 329 502 336 544 c 0
 342 584 323 626 276 627 c 0
 230 628 192 585 185 543 c 0
434 157 m 0
 448 249 528 326 626 326 c 0
 723 326 779 245 766 156 c 0
 752 64 672 -13 574 -13 c 0
 477 -13 421 68 434 157 c 0
525 156 m 0
 519 116 539 75 584 74 c 0
 630 73 669 114 676 157 c 0
 682 197 661 239 616 240 c 0
 570 241 532 199 525 156 c 0
670 700 m 1
 781 700 l 1
 189 0 l 1
 81 0 l 1
 670 700 l 1
EndSplineSet
EndChar

StartChar: ampersand
Encoding: 38 38 80
Width: 685
VWidth: 0
Flags: HMW
LayerCount: 2
Fore
SplineSet
259 379 m 2
 224 428 176 482 184 552 c 0
 196 645 285 713 390 713 c 0
 493 713 558 638 546 551 c 0
 533 466 456 411 366 359 c 0
 291 317 178 286 163 193 c 0
 153 130 201 87 269 85 c 0
 404 81 524 215 617 325 c 1
 688 270 l 1
 577 141 437 -13 249 -11 c 0
 133 -10 33 67 49 185 c 0
 67 327 215 374 305 418 c 0
 370 451 434 493 443 546 c 0
 448 585 426 621 380 622 c 0
 333 623 297 589 291 547 c 0
 283 501 320 460 354 415 c 2
 649 0 l 1
 529 0 l 1
 259 379 l 2
EndSplineSet
EndChar

StartChar: question
Encoding: 63 63 81
Width: 567
VWidth: 0
Flags: HMW
LayerCount: 2
Fore
SplineSet
463 500 m 0
 475 569 434 616 358 617 c 0
 293 618 238 580 198 533 c 1
 126 593 l 1
 191 663 266 714 377 713 c 0
 500 712 589 620 571 500 c 0
 552 382 444 305 331 288 c 1
 306 183 l 1
 221 183 l 1
 230 359 l 1
 257 359 l 1
 361 361 447 423 463 500 c 0
170 48 m 0
 170 84 201 114 240 114 c 0
 280 114 309 83 309 48 c 0
 309 12 279 -18 240 -18 c 0
 200 -18 170 12 170 48 c 0
EndSplineSet
EndChar

StartChar: parenleft
Encoding: 40 40 82
Width: 311
VWidth: 0
Flags: HMW
LayerCount: 2
Fore
SplineSet
293 779 m 1
 393 779 l 1
 305 629 246 463 218 290 c 0
 193 126 198 -42 244 -200 c 1
 146 -200 l 1
 91 -43 81 125 105 290 c 0
 132 464 195 632 293 779 c 1
EndSplineSet
EndChar

StartChar: parenright
Encoding: 41 41 83
Width: 311
VWidth: 0
Flags: HMW
LayerCount: 2
Fore
SplineSet
75 -199 m 1
 -25 -199 l 1
 63 -49 122 117 150 290 c 0
 175 454 171 622 125 780 c 1
 222 780 l 1
 277 623 287 455 263 290 c 0
 236 116 173 -52 75 -199 c 1
EndSplineSet
EndChar

StartChar: asterisk
Encoding: 42 42 84
Width: 574
VWidth: 0
Flags: HMW
LayerCount: 2
Fore
SplineSet
542 600 m 1
 557 507 l 1
 348 460 l 1
 339 519 l 1
 542 600 l 1
479 345 m 1
 392 288 l 1
 317 473 l 1
 367 506 l 1
 479 345 l 1
230 290 m 1
 159 349 l 1
 321 505 l 1
 365 469 l 1
 230 290 l 1
137 508 m 1
 180 600 l 1
 359 516 l 1
 331 461 l 1
 137 508 l 1
331 700 m 1
 428 700 l 1
 373 489 l 1
 314 489 l 1
 331 700 l 1
EndSplineSet
EndChar

StartChar: less
Encoding: 60 60 85
Width: 621
VWidth: 0
Flags: HMW
LayerCount: 2
Fore
SplineSet
242 260 m 1
 552 112 l 1
 534 10 l 1
 74 227 l 1
 85 294 l 1
 621 513 l 1
 601 401 l 1
 242 260 l 1
EndSplineSet
EndChar

StartChar: greater
Encoding: 62 62 86
Width: 621
VWidth: 0
Flags: HMW
LayerCount: 2
Fore
SplineSet
413 260 m 1
 104 408 l 1
 122 510 l 1
 581 293 l 1
 570 226 l 1
 35 7 l 1
 54 119 l 1
 413 260 l 1
EndSplineSet
EndChar

StartChar: bracketleft
Encoding: 91 91 87
Width: 315
VWidth: 0
Flags: HMW
LayerCount: 2
Fore
SplineSet
288 682 m 1
 164 -122 l 1
 262 -122 l 1
 246 -220 l 1
 41 -220 l 1
 196 780 l 1
 401 780 l 1
 385 682 l 1
 288 682 l 1
EndSplineSet
EndChar

StartChar: bracketright
Encoding: 93 93 88
Width: 315
VWidth: 0
Flags: HMW
LayerCount: 2
Fore
SplineSet
80 -122 m 1
 205 682 l 1
 106 682 l 1
 122 780 l 1
 326 780 l 1
 172 -220 l 1
 -33 -220 l 1
 -18 -122 l 1
 80 -122 l 1
EndSplineSet
EndChar

StartChar: asciicircum
Encoding: 94 94 89
Width: 494
VWidth: 0
Flags: HMW
LayerCount: 2
Fore
SplineSet
326 603 m 1
 206 456 l 1
 100 456 l 1
 310 710 l 1
 369 710 l 1
 492 455 l 1
 394 455 l 1
 326 603 l 1
EndSplineSet
EndChar

StartChar: underscore
Encoding: 95 95 90
Width: 496
VWidth: 0
Flags: HMW
LayerCount: 2
Fore
SplineSet
-52 -141 m 1
 -40 -70 l 1
 459 -70 l 1
 448 -141 l 1
 -52 -141 l 1
EndSplineSet
EndChar

StartChar: grave
Encoding: 96 96 91
Width: 363
VWidth: 0
Flags: HMW
LayerCount: 2
Fore
SplineSet
148 659 m 1
 242 703 l 1
 365 541 l 1
 302 508 l 1
 148 659 l 1
EndSplineSet
EndChar

StartChar: braceleft
Encoding: 123 123 92
Width: 335
VWidth: 0
Flags: HMW
LayerCount: 2
Fore
SplineSet
290 639 m 2
 267 490 l 2
 251 394 228 291 111 280 c 1
 113 300 l 1
 227 286 217 177 204 90 c 2
 181 -60 l 2
 177 -87 189 -109 219 -109 c 2
 255 -109 l 1
 241 -200 l 1
 172 -200 l 2
 105 -200 58 -142 68 -60 c 2
 99 140 l 2
 106 201 100 228 64 250 c 1
 76 330 l 1
 116 348 135 377 144 440 c 2
 175 640 l 2
 187 725 250 779 318 780 c 1
 392 780 l 1
 378 690 l 1
 345 690 l 2
 314 690 295 668 290 639 c 2
EndSplineSet
EndChar

StartChar: braceright
Encoding: 125 125 93
Width: 335
VWidth: 0
Flags: HMW
LayerCount: 2
Fore
SplineSet
108 -59 m 2
 131 90 l 2
 147 186 170 289 287 300 c 1
 284 280 l 1
 170 294 181 403 194 490 c 2
 217 640 l 2
 221 667 208 689 179 689 c 2
 144 689 l 1
 157 780 l 1
 226 780 l 2
 293 779 339 722 329 640 c 2
 298 440 l 2
 291 379 298 352 334 330 c 1
 322 250 l 1
 282 232 263 203 254 140 c 2
 223 -60 l 2
 211 -146 149 -199 81 -200 c 1
 6 -200 l 1
 20 -110 l 1
 53 -110 l 2
 84 -110 103 -88 108 -59 c 2
EndSplineSet
EndChar

StartChar: asciitilde
Encoding: 126 126 94
Width: 558
VWidth: 0
Flags: HMW
LayerCount: 2
Fore
SplineSet
154 171 m 1
 64 176 l 1
 63 184 63 193 64 201 c 0
 68 229 80 256 101 280 c 0
 130 313 171 334 220 334 c 0
 261 334 296 315 333 286 c 0
 355 269 377 253 397 253 c 0
 422 253 439 274 443 298 c 0
 445 307 444 318 442 328 c 1
 536 323 l 1
 537 314 537 304 536 294 c 0
 532 267 521 238 501 214 c 0
 474 183 438 165 396 165 c 0
 358 165 325 185 288 213 c 0
 263 232 237 248 212 247 c 0
 180 246 158 224 153 196 c 0
 151 187 153 179 154 171 c 1
EndSplineSet
EndChar

StartChar: exclamdown
Encoding: 161 161 95
Width: 308
VWidth: 0
Flags: HMW
LayerCount: 2
Fore
SplineSet
153 -239 m 1
 19 -239 l 1
 127 249 l 1
 212 249 l 1
 153 -239 l 1
267 412 m 0
 263 376 225 344 188 345 c 0
 150 346 124 377 128 414 c 0
 132 450 170 480 207 479 c 0
 245 478 271 449 267 412 c 0
EndSplineSet
EndChar

StartChar: cent
Encoding: 162 162 96
Width: 562
VWidth: 0
Flags: HMW
LayerCount: 2
Fore
SplineSet
233 38 m 1
 316 38 l 1
 293 -112 l 1
 203 -112 l 1
 233 38 l 1
187 230 m 0
 175 152 217 86 297 84 c 0
 364 83 422 120 458 161 c 1
 440 41 l 1
 400 10 344 -10 283 -10 c 0
 144 -10 58 98 77 230 c 0
 98 366 217 470 358 470 c 0
 416 470 468 451 503 418 c 1
 484 298 l 1
 462 344 416 376 354 376 c 0
 272 376 201 311 187 230 c 0
322 578 m 1
 412 578 l 1
 382 428 l 1
 299 428 l 1
 322 578 l 1
EndSplineSet
EndChar

StartChar: sterling
Encoding: 163 163 97
Width: 573
VWidth: 0
Flags: HMW
LayerCount: 2
Fore
SplineSet
100 370 m 1
 459 370 l 1
 444 285 l 1
 85 285 l 1
 100 370 l 1
486 475 m 1
 489 536 474 604 396 605 c 0
 339 606 285 571 274 510 c 0
 258 418 335 363 323 266 c 0
 307 160 211 78 124 51 c 1
 153 104 l 1
 502 104 l 1
 484 0 l 1
 30 0 l 1
 121 90 199 160 217 264 c 0
 231 354 147 412 160 520 c 0
 176 635 285 711 404 710 c 0
 532 709 591 603 587 511 c 1
 486 475 l 1
EndSplineSet
EndChar

StartChar: currency
Encoding: 164 164 98
Width: 560
VWidth: 0
Flags: HMW
LayerCount: 2
Fore
SplineSet
88 505 m 1
 150 558 l 1
 228 459 l 1
 169 408 l 1
 88 505 l 1
66 42 m 1
 20 100 l 1
 128 192 l 1
 174 136 l 1
 66 42 l 1
482 408 m 1
 435 464 l 1
 544 558 l 1
 590 501 l 1
 482 408 l 1
380 140 m 1
 441 192 l 1
 520 95 l 1
 460 43 l 1
 380 140 l 1
73 300 m 0
 92 432 207 540 342 540 c 0
 476 540 555 428 537 300 c 0
 518 168 404 60 268 60 c 0
 134 60 55 172 73 300 c 0
175 300 m 0
 163 228 201 162 278 161 c 0
 356 160 422 224 435 300 c 0
 447 372 409 438 332 439 c 0
 254 440 188 376 175 300 c 0
EndSplineSet
EndChar

StartChar: yen
Encoding: 165 165 99
Width: 596
VWidth: 0
Flags: HMW
LayerCount: 2
Fore
SplineSet
64 280 m 1
 78 365 l 1
 587 365 l 1
 572 280 l 1
 64 280 l 1
39 130 m 1
 53 215 l 1
 561 215 l 1
 547 130 l 1
 39 130 l 1
547 700 m 1
 683 700 l 1
 383 295 l 1
 332 0 l 1
 212 0 l 1
 265 299 l 1
 103 700 l 1
 233 700 l 1
 338 403 l 1
 547 700 l 1
EndSplineSet
EndChar

StartChar: brokenbar
Encoding: 166 166 100
Width: 295
VWidth: 0
Flags: HMW
LayerCount: 2
Fore
SplineSet
188 695 m 1
 292 695 l 1
 250 445 l 1
 145 445 l 1
 188 695 l 1
217 255 m 1
 174 5 l 1
 69 5 l 1
 113 255 l 1
 217 255 l 1
EndSplineSet
EndChar

StartChar: section
Encoding: 167 167 101
Width: 461
VWidth: 0
Flags: HMW
LayerCount: 2
Fore
SplineSet
409 567 m 1
 388 599 354 619 318 619 c 0
 287 619 252 606 248 580 c 0
 242 545 300 528 338 512 c 0
 401 487 454 440 445 373 c 0
 431 272 336 239 239 236 c 1
 246 273 l 1
 289 281 332 313 339 356 c 0
 347 407 294 427 249 447 c 0
 191 473 135 512 145 585 c 0
 157 667 243 715 323 715 c 0
 394 715 457 683 482 630 c 1
 409 567 l 1
105 165 m 1
 125 116 165 81 217 81 c 0
 255 81 290 97 296 129 c 0
 303 171 255 189 213 206 c 0
 150 231 89 276 99 350 c 0
 114 441 204 476 306 479 c 1
 301 449 l 1
 254 432 213 412 205 369 c 0
 195 309 257 292 302 271 c 0
 362 243 414 199 405 130 c 0
 393 34 301 -15 207 -15 c 0
 118 -15 52 35 29 104 c 1
 105 165 l 1
EndSplineSet
EndChar

StartChar: dieresis
Encoding: 168 168 102
Width: 471
VWidth: 0
Flags: HMW
LayerCount: 2
Fore
SplineSet
357 650 m 0
 360 684 398 715 433 714 c 0
 469 713 496 683 492 648 c 0
 489 614 451 582 416 583 c 0
 380 584 353 615 357 650 c 0
146 650 m 0
 149 684 187 715 222 714 c 0
 258 713 285 683 281 648 c 0
 278 614 240 582 205 583 c 0
 169 584 142 615 146 650 c 0
EndSplineSet
EndChar

StartChar: copyright
Encoding: 169 169 103
Width: 776
VWidth: 0
Flags: HMW
LayerCount: 2
Fore
SplineSet
289 350 m 0
 277 271 321 204 402 203 c 0
 459 202 505 229 541 261 c 1
 529 176 l 1
 491 149 450 133 395 133 c 0
 274 133 196 233 212 350 c 0
 228 472 333 566 456 567 c 0
 510 567 547 552 582 523 c 1
 570 439 l 1
 543 474 507 498 454 498 c 0
 372 498 302 433 289 350 c 0
130 350 m 0
 106 189 202 41 374 40 c 0
 549 39 694 181 720 350 c 0
 744 511 647 659 476 660 c 0
 302 661 156 519 130 350 c 0
74 350 m 0
 101 550 273 710 477 710 c 0
 678 710 800 543 775 350 c 0
 748 150 577 -10 373 -10 c 0
 172 -10 49 157 74 350 c 0
EndSplineSet
EndChar

StartChar: registered
Encoding: 174 174 104
Width: 776
VWidth: 0
Flags: HMW
LayerCount: 2
Fore
SplineSet
385 345 m 1
 454 345 l 1
 559 150 l 1
 476 150 l 1
 385 345 l 1
328 570 m 1
 399 570 l 1
 334 150 l 1
 263 150 l 1
 328 570 l 1
359 508 m 1
 369 570 l 1
 452 570 l 1
 534 568 593 519 583 442 c 0
 572 363 502 314 417 312 c 1
 329 312 l 1
 338 370 l 1
 418 370 l 1
 463 372 503 395 510 439 c 0
 516 481 487 506 444 508 c 1
 359 508 l 1
130 350 m 0
 106 189 202 41 374 40 c 0
 549 39 694 181 720 350 c 0
 744 511 647 659 476 660 c 0
 302 661 156 519 130 350 c 0
74 350 m 0
 101 550 273 710 477 710 c 0
 678 710 800 543 775 350 c 0
 748 150 577 -10 373 -10 c 0
 172 -10 49 157 74 350 c 0
EndSplineSet
EndChar

StartChar: ordfeminine
Encoding: 170 170 105
Width: 242
VWidth: 0
Flags: HMW
LayerCount: 2
Fore
SplineSet
135 531 m 0
 133 513 145 498 169 497 c 0
 203 496 230 518 240 551 c 1
 243 524 l 1
 231 484 198 455 150 456 c 0
 107 457 75 487 81 531 c 0
 88 577 139 609 188 609 c 0
 222 609 246 594 261 581 c 1
 257 553 l 1
 238 566 220 574 195 574 c 0
 168 574 138 555 135 531 c 0
143 637 m 1
 128 679 l 1
 153 691 185 705 222 705 c 0
 272 705 310 679 306 633 c 1
 276 460 l 1
 223 460 l 1
 253 625 l 1
 251 645 240 657 217 659 c 0
 188 661 160 645 143 637 c 1
EndSplineSet
EndChar

StartChar: ordmasculine
Encoding: 186 186 106
Width: 269
VWidth: 0
Flags: HMW
LayerCount: 2
Fore
SplineSet
90 581 m 0
 100 648 159 700 228 700 c 0
 297 700 342 645 333 579 c 0
 323 512 262 460 193 460 c 0
 124 460 81 515 90 581 c 0
144 580 m 0
 138 544 158 509 196 508 c 0
 235 507 272 542 278 580 c 0
 284 616 264 651 226 652 c 0
 187 653 150 618 144 580 c 0
EndSplineSet
EndChar

StartChar: guillemotleft
Encoding: 171 171 107
Width: 505
VWidth: 0
Flags: HMW
LayerCount: 2
Fore
SplineSet
323 258 m 1
 436 63 l 1
 362 12 l 1
 223 259 l 1
 442 497 l 1
 501 443 l 1
 323 258 l 1
150 258 m 1
 264 63 l 1
 190 12 l 1
 50 259 l 1
 269 497 l 1
 329 443 l 1
 150 258 l 1
EndSplineSet
EndChar

StartChar: guillemotright
Encoding: 187 187 108
Width: 505
VWidth: 0
Flags: HMW
LayerCount: 2
Fore
SplineSet
217 252 m 1
 104 447 l 1
 177 498 l 1
 317 251 l 1
 99 13 l 1
 38 67 l 1
 217 252 l 1
390 252 m 1
 277 447 l 1
 350 498 l 1
 490 251 l 1
 271 13 l 1
 211 67 l 1
 390 252 l 1
EndSplineSet
EndChar

StartChar: uni00AD
Encoding: 173 173 109
Width: 203
VWidth: 0
Flags: HMW
LayerCount: 2
Fore
SplineSet
12 200 m 1
 24 275 l 1
 221 275 l 1
 208 200 l 1
 12 200 l 1
EndSplineSet
EndChar

StartChar: logicalnot
Encoding: 172 172 110
Width: 612
VWidth: 0
Flags: HMW
LayerCount: 2
Fore
SplineSet
85 289 m 1
 101 386 l 1
 591 386 l 1
 554 175 l 1
 467 175 l 1
 488 289 l 1
 85 289 l 1
EndSplineSet
EndChar

StartChar: macron
Encoding: 175 175 111
Width: 502
VWidth: 0
Flags: HMW
LayerCount: 2
Fore
SplineSet
151 589 m 1
 166 686 l 1
 516 686 l 1
 501 589 l 1
 151 589 l 1
EndSplineSet
EndChar

StartChar: degree
Encoding: 176 176 112
Width: 275
VWidth: 0
Flags: HMW
LayerCount: 2
Fore
SplineSet
92 599 m 0
 102 666 162 720 231 720 c 0
 300 720 344 664 335 598 c 0
 325 531 264 478 195 478 c 0
 126 478 83 533 92 599 c 0
146 598 m 0
 140 561 161 528 199 527 c 0
 238 526 274 560 281 599 c 0
 287 636 266 670 228 671 c 0
 189 672 153 637 146 598 c 0
EndSplineSet
EndChar

StartChar: plusminus
Encoding: 177 177 113
Width: 602
VWidth: 0
Flags: HMW
LayerCount: 2
Fore
SplineSet
46 2 m 1
 61 103 l 1
 542 103 l 1
 526 2 l 1
 46 2 l 1
98 340 m 1
 114 443 l 1
 594 443 l 1
 578 340 l 1
 98 340 l 1
324 620 m 1
 437 620 l 1
 365 163 l 1
 255 163 l 1
 324 620 l 1
EndSplineSet
EndChar

StartChar: uni00B2
Encoding: 178 178 114
Width: 359
VWidth: 0
Flags: HMW
LayerCount: 2
Fore
SplineSet
44 283 m 1
 266 487 l 2
 296 515 325 543 331 580 c 0
 336 611 319 643 279 645 c 0
 228 648 195 602 184 554 c 1
 113 554 l 1
 131 637 190 710 285 709 c 0
 370 709 414 644 403 579 c 0
 396 533 365 496 329 465 c 2
 194 349 l 1
 368 348 l 1
 357 282 l 1
 44 283 l 1
EndSplineSet
EndChar

StartChar: uni00B3
Encoding: 179 179 115
Width: 322
VWidth: 0
Flags: HMW
LayerCount: 2
Fore
SplineSet
197 486 m 1
 204 523 l 1
 250 527 288 550 296 590 c 0
 301 620 286 645 252 646 c 0
 216 647 189 618 179 589 c 1
 111 590 l 1
 127 655 181 706 257 706 c 0
 330 706 376 655 366 592 c 0
 354 521 277 490 197 486 c 1
185 273 m 0
 100 273 57 330 61 400 c 1
 131 400 l 1
 131 363 149 336 191 335 c 0
 231 334 267 363 273 401 c 0
 281 449 242 466 194 470 c 1
 201 510 l 1
 283 507 357 476 344 392 c 0
 333 320 264 273 185 273 c 0
EndSplineSet
EndChar

StartChar: acute
Encoding: 180 180 116
Width: 363
VWidth: 0
Flags: HMW
LayerCount: 2
Fore
SplineSet
384 655 m 1
 187 508 l 1
 129 545 l 1
 298 702 l 1
 384 655 l 1
EndSplineSet
EndChar

StartChar: mu
Encoding: 181 181 117
Width: 528
VWidth: 0
Flags: HMW
LayerCount: 2
Fore
SplineSet
328 0 m 1
 407 460 l 1
 515 460 l 1
 436 0 l 1
 328 0 l 1
179 180 m 1
 173 125 182 80 240 78 c 0
 302 76 345 125 359 179 c 1
 394 181 l 1
 375 81 303 -10 197 -10 c 0
 93 -10 55 67 67 168 c 1
 118 460 l 1
 227 460 l 1
 179 180 l 1
117 460 m 1
 223 460 l 1
 89 -320 l 1
 -15 -320 l 1
 117 460 l 1
EndSplineSet
EndChar

StartChar: paragraph
Encoding: 182 182 118
Width: 596
VWidth: 0
Flags: HMW
LayerCount: 2
Fore
SplineSet
358 624 m 1
 371 700 l 1
 579 700 l 1
 566 624 l 1
 358 624 l 1
539 700 m 1
 633 700 l 1
 476 -220 l 1
 382 -220 l 1
 539 700 l 1
371 700 m 1
 465 700 l 1
 308 -220 l 1
 214 -220 l 1
 371 700 l 1
301 270 m 1
 179 276 94 356 113 486 c 0
 134 621 243 700 371 700 c 1
 301 270 l 1
EndSplineSet
EndChar

StartChar: periodcentered
Encoding: 183 183 119
Width: 299
VWidth: 0
Flags: HMW
LayerCount: 2
Fore
SplineSet
96 252 m 0
 100 288 139 322 176 321 c 0
 214 320 239 287 235 250 c 0
 231 214 193 181 156 182 c 0
 118 183 92 215 96 252 c 0
EndSplineSet
EndChar

StartChar: uni00B9
Encoding: 185 185 120
Width: 460
VWidth: 0
Flags: HMW
LayerCount: 2
Fore
SplineSet
214 595 m 1
 225 663 l 1
 397 701 l 1
 323 274 l 1
 254 274 l 1
 312 621 l 1
 214 595 l 1
EndSplineSet
EndChar

StartChar: cedilla
Encoding: 184 184 121
Width: 356
VWidth: 0
Flags: HMW
LayerCount: 2
Fore
SplineSet
167 64 m 1
 249 62 l 1
 156 -53 l 1
 162 -52 168 -51 174 -51 c 0
 214 -54 246 -87 241 -136 c 0
 234 -198 170 -235 113 -235 c 0
 70 -236 40 -221 8 -195 c 1
 52 -146 l 1
 71 -160 89 -169 111 -169 c 0
 138 -169 168 -154 170 -131 c 0
 172 -108 150 -97 125 -97 c 0
 108 -96 80 -103 55 -113 c 1
 167 64 l 1
EndSplineSet
EndChar

StartChar: questiondown
Encoding: 191 191 122
Width: 567
VWidth: 0
Flags: HMW
LayerCount: 2
Fore
SplineSet
170 200 m 0
 158 131 200 84 276 83 c 0
 341 82 396 120 436 167 c 1
 507 107 l 1
 442 37 368 -14 257 -13 c 0
 134 -12 44 80 62 200 c 0
 81 318 190 395 303 412 c 1
 327 517 l 1
 413 517 l 1
 404 341 l 1
 377 341 l 1
 273 339 186 277 170 200 c 0
462 652 m 0
 458 618 419 585 383 586 c 0
 346 587 319 619 323 654 c 0
 327 688 365 719 401 718 c 0
 438 717 466 687 462 652 c 0
EndSplineSet
EndChar

StartChar: multiply
Encoding: 215 215 123
Width: 578
VWidth: 0
Flags: HMW
LayerCount: 2
Fore
SplineSet
102 14 m 1
 43 89 l 1
 241 258 l 1
 101 427 l 1
 180 496 l 1
 314 322 l 1
 509 496 l 1
 568 421 l 1
 370 252 l 1
 510 83 l 1
 431 14 l 1
 297 188 l 1
 102 14 l 1
EndSplineSet
EndChar

StartChar: Oslash
Encoding: 216 216 124
Width: 766
VWidth: 0
Flags: HMW
LayerCount: 2
Fore
SplineSet
192 350 m 0
 172 222 237 102 376 101 c 0
 517 100 629 214 652 350 c 0
 672 478 607 598 468 599 c 0
 327 600 215 486 192 350 c 0
68 350 m 0
 99 551 271 712 480 712 c 0
 685 712 805 543 777 350 c 0
 746 149 572 -15 363 -15 c 0
 157 -15 40 157 68 350 c 0
770 752 m 1
 828 705 l 1
 70 -52 l 1
 13 -7 l 1
 770 752 l 1
EndSplineSet
EndChar

StartChar: Thorn
Encoding: 222 222 125
Width: 557
VWidth: 0
Flags: HMW
LayerCount: 2
Fore
SplineSet
168 700 m 1
 279 700 l 1
 158 0 l 1
 50 0 l 1
 168 700 l 1
192 466 m 1
 210 567 l 1
 344 567 l 1
 483 565 576 483 556 351 c 0
 536 217 422 137 278 135 c 1
 136 135 l 1
 154 237 l 1
 287 237 l 1
 367 239 433 275 447 351 c 0
 460 425 409 464 333 466 c 1
 192 466 l 1
EndSplineSet
EndChar

StartChar: divide
Encoding: 247 247 126
Width: 610
VWidth: 0
Flags: HMW
LayerCount: 2
Fore
SplineSet
292 493 m 0
 296 529 334 563 371 562 c 0
 409 561 435 528 431 491 c 0
 427 455 389 421 352 422 c 0
 314 423 288 456 292 493 c 0
222 82 m 0
 226 118 264 152 301 151 c 0
 339 150 365 117 361 80 c 0
 357 44 318 11 281 12 c 0
 243 13 218 45 222 82 c 0
58 239 m 1
 76 342 l 1
 597 342 l 1
 580 239 l 1
 58 239 l 1
EndSplineSet
EndChar

StartChar: oslash
Encoding: 248 248 127
Width: 529
VWidth: 0
Flags: HMW
LayerCount: 2
Fore
SplineSet
44 230 m 0
 65 367 183 470 323 470 c 0
 460 470 547 363 528 230 c 0
 507 93 388 -10 248 -10 c 0
 111 -10 25 97 44 230 c 0
148 230 m 0
 136 153 176 84 257 83 c 0
 339 82 410 149 423 230 c 0
 435 305 394 376 314 377 c 0
 232 378 162 310 148 230 c 0
489 502 m 1
 537 475 l 1
 71 -46 l 1
 23 -20 l 1
 489 502 l 1
EndSplineSet
EndChar

StartChar: circumflex
Encoding: 710 710 128
Width: 465
VWidth: 0
Flags: HMW
LayerCount: 2
Fore
SplineSet
318 638 m 1
 202 548 l 1
 138 602 l 1
 329 740 l 1
 479 599 l 1
 402 547 l 1
 318 638 l 1
EndSplineSet
EndChar

StartChar: ogonek
Encoding: 731 731 129
Width: 252
VWidth: 0
Flags: HMW
LayerCount: 2
Fore
SplineSet
151 -122 m 1
 176 -181 l 1
 154 -201 123 -220 81 -220 c 0
 13 -220 -31 -180 -23 -119 c 0
 -14 -51 62 -8 128 25 c 1
 167 0 l 1
 122 -24 72 -56 66 -98 c 0
 64 -124 74 -140 99 -142 c 0
 120 -144 137 -132 151 -122 c 1
EndSplineSet
EndChar

StartChar: tilde
Encoding: 732 732 130
Width: 514
VWidth: 0
Flags: HMW
LayerCount: 2
Fore
SplineSet
166 631 m 1
 186 676 230 718 284 716 c 0
 337 715 354 667 402 669 c 0
 427 670 449 693 469 718 c 1
 518 661 l 1
 494 625 448 583 394 585 c 0
 347 587 321 635 277 633 c 0
 242 631 229 601 221 583 c 1
 166 631 l 1
EndSplineSet
EndChar

StartChar: ring
Encoding: 730 730 131
Width: 288
VWidth: 0
Flags: HMW
LayerCount: 2
Fore
SplineSet
141 780 m 0
 149 839 207 884 266 884 c 0
 325 884 367 837 359 778 c 0
 351 718 294 673 235 673 c 0
 176 673 133 721 141 780 c 0
202 778 m 0
 199 753 217 729 240 728 c 0
 264 726 295 753 298 780 c 0
 301 805 284 828 261 829 c 0
 237 831 205 805 202 778 c 0
EndSplineSet
EndChar

StartChar: dotaccent
Encoding: 729 729 132
Width: 291
VWidth: 0
Flags: HMW
LayerCount: 2
Fore
SplineSet
188 801 m 0
 192 835 229 866 264 865 c 0
 300 864 326 833 322 798 c 0
 318 764 281 733 246 734 c 0
 210 735 184 766 188 801 c 0
EndSplineSet
EndChar

StartChar: uni2010
Encoding: 8208 8208 133
Width: 207
VWidth: 0
Flags: HMW
LayerCount: 2
Fore
SplineSet
10 189 m 1
 26 286 l 1
 228 286 l 1
 211 189 l 1
 10 189 l 1
EndSplineSet
EndChar

StartChar: endash
Encoding: 8211 8211 134
Width: 735
VWidth: 0
Flags: HMW
LayerCount: 2
Fore
SplineSet
73 189 m 1
 89 286 l 1
 688 286 l 1
 672 189 l 1
 73 189 l 1
EndSplineSet
EndChar

StartChar: figuredash
Encoding: 8210 8210 135
Width: 586
VWidth: 0
Flags: HMW
LayerCount: 2
Fore
SplineSet
73 189 m 1
 89 286 l 1
 539 286 l 1
 522 189 l 1
 73 189 l 1
EndSplineSet
EndChar

StartChar: emdash
Encoding: 8212 8212 136
Width: 882
VWidth: 0
Flags: HMW
LayerCount: 2
Fore
SplineSet
73 189 m 1
 89 286 l 1
 838 286 l 1
 821 189 l 1
 73 189 l 1
EndSplineSet
EndChar

StartChar: minus
Encoding: 8722 8722 137
Width: 573
VWidth: 0
Flags: HMW
LayerCount: 2
Fore
SplineSet
68 189 m 1
 84 286 l 1
 534 286 l 1
 518 189 l 1
 68 189 l 1
EndSplineSet
EndChar

StartChar: quoteright
Encoding: 8217 8217 138
Width: 288
VWidth: 0
Flags: HMW
LayerCount: 2
Fore
SplineSet
195 700 m 1
 317 700 l 1
 176 461 l 1
 99 461 l 1
 195 700 l 1
EndSplineSet
EndChar

StartChar: quoteleft
Encoding: 8216 8216 139
Width: 288
VWidth: 0
Flags: HMW
LayerCount: 2
Fore
SplineSet
238 460 m 1
 116 461 l 1
 257 699 l 1
 335 699 l 1
 238 460 l 1
EndSplineSet
EndChar

StartChar: quotesinglbase
Encoding: 8218 8218 140
Width: 288
VWidth: 0
Flags: HMW
LayerCount: 2
Fore
SplineSet
99 80 m 1
 220 80 l 1
 79 -159 l 1
 3 -159 l 1
 99 80 l 1
EndSplineSet
EndChar

StartChar: quotedblleft
Encoding: 8220 8220 141
Width: 494
VWidth: 0
Flags: HMW
LayerCount: 2
Fore
SplineSet
238 460 m 1
 116 461 l 1
 257 699 l 1
 335 699 l 1
 238 460 l 1
444 460 m 1
 322 461 l 1
 463 699 l 1
 541 699 l 1
 444 460 l 1
EndSplineSet
EndChar

StartChar: quotedblright
Encoding: 8221 8221 142
Width: 494
VWidth: 0
Flags: HMW
LayerCount: 2
Fore
SplineSet
195 700 m 1
 317 700 l 1
 176 461 l 1
 99 461 l 1
 195 700 l 1
401 700 m 1
 523 700 l 1
 383 461 l 1
 305 461 l 1
 401 700 l 1
EndSplineSet
EndChar

StartChar: perthousand
Encoding: 8240 8240 143
Width: 1192
VWidth: 0
Flags: HMW
LayerCount: 2
Fore
SplineSet
832 157 m 0
 846 249 926 326 1024 326 c 0
 1121 326 1178 245 1165 156 c 0
 1151 64 1071 -13 973 -13 c 0
 876 -13 819 68 832 157 c 0
923 156 m 0
 917 116 937 76 982 74 c 0
 1028 72 1067 115 1074 157 c 0
 1080 197 1061 238 1016 240 c 0
 970 242 930 198 923 156 c 0
94 544 m 0
 108 636 188 713 286 713 c 0
 383 713 440 632 427 543 c 0
 413 451 333 374 235 374 c 0
 138 374 81 455 94 544 c 0
185 543 m 0
 179 503 199 463 244 461 c 0
 290 459 329 502 336 544 c 0
 342 584 323 625 278 627 c 0
 232 629 192 585 185 543 c 0
434 157 m 0
 448 249 528 326 626 326 c 0
 723 326 779 245 766 156 c 0
 752 64 672 -13 574 -13 c 0
 477 -13 421 68 434 157 c 0
525 156 m 0
 519 116 538 76 583 74 c 0
 629 72 669 115 676 157 c 0
 682 197 662 238 617 240 c 0
 571 242 532 198 525 156 c 0
670 700 m 1
 781 700 l 1
 189 0 l 1
 81 0 l 1
 670 700 l 1
EndSplineSet
EndChar

StartChar: guilsinglleft
Encoding: 8249 8249 144
Width: 339
VWidth: 0
Flags: HMW
LayerCount: 2
Fore
SplineSet
150 258 m 1
 264 63 l 1
 190 12 l 1
 50 259 l 1
 269 497 l 1
 329 443 l 1
 150 258 l 1
EndSplineSet
EndChar

StartChar: guilsinglright
Encoding: 8250 8250 145
Width: 339
VWidth: 0
Flags: HMW
LayerCount: 2
Fore
SplineSet
222 252 m 1
 109 447 l 1
 182 498 l 1
 322 251 l 1
 104 13 l 1
 44 67 l 1
 222 252 l 1
EndSplineSet
EndChar

StartChar: uni2031
Encoding: 8241 8241 146
Width: 1591
VWidth: 0
Flags: HMW
LayerCount: 2
Fore
SplineSet
1230 157 m 0
 1244 249 1324 326 1422 326 c 0
 1519 326 1577 245 1564 156 c 0
 1550 64 1470 -13 1372 -13 c 0
 1275 -13 1217 68 1230 157 c 0
1321 156 m 0
 1315 116 1335 76 1380 74 c 0
 1426 72 1466 115 1473 157 c 0
 1479 197 1458 238 1413 240 c 0
 1367 242 1328 198 1321 156 c 0
832 157 m 0
 846 249 926 326 1024 326 c 0
 1121 326 1178 245 1165 156 c 0
 1151 64 1071 -13 973 -13 c 0
 876 -13 819 68 832 157 c 0
923 156 m 0
 917 116 937 76 982 74 c 0
 1028 72 1067 115 1074 157 c 0
 1080 197 1061 238 1016 240 c 0
 970 242 930 198 923 156 c 0
94 544 m 0
 108 636 188 713 286 713 c 0
 383 713 440 632 427 543 c 0
 413 451 333 374 235 374 c 0
 138 374 81 455 94 544 c 0
185 543 m 0
 179 503 199 463 244 461 c 0
 290 459 329 502 336 544 c 0
 342 584 323 625 278 627 c 0
 232 629 192 585 185 543 c 0
434 157 m 0
 448 249 528 326 626 326 c 0
 723 326 779 245 766 156 c 0
 752 64 672 -13 574 -13 c 0
 477 -13 421 68 434 157 c 0
525 156 m 0
 519 116 538 76 583 74 c 0
 629 72 669 115 676 157 c 0
 682 197 662 238 617 240 c 0
 571 242 532 198 525 156 c 0
670 700 m 1
 781 700 l 1
 189 0 l 1
 81 0 l 1
 670 700 l 1
EndSplineSet
EndChar

StartChar: uni203D
Encoding: 8253 8253 147
Width: 567
VWidth: 0
Flags: HMW
LayerCount: 2
Fore
SplineSet
467 493 m 0
 480 568 435 617 355 617 c 0
 290 618 237 582 198 533 c 1
 126 593 l 1
 184 661 264 714 376 713 c 0
 499 712 589 620 571 500 c 0
 551 368 419 292 297 285 c 1
 269 347 l 1
 366 353 450 410 467 493 c 0
258 508 m 1
 377 507 l 1
 298 183 l 1
 226 183 l 1
 258 508 l 1
171 50 m 0
 175 85 214 117 251 116 c 0
 289 115 315 84 311 48 c 0
 307 13 269 -19 232 -18 c 0
 194 -17 167 14 171 50 c 0
EndSplineSet
EndChar

StartChar: Euro
Encoding: 8364 8364 148
Width: 591
VWidth: 0
Flags: HMW
LayerCount: 2
Fore
SplineSet
69 397 m 1
 80 459 l 1
 564 459 l 1
 554 397 l 1
 69 397 l 1
43 272 m 1
 54 334 l 1
 520 334 l 1
 509 272 l 1
 43 272 l 1
221 350 m 0
 205 226 235 93 361 91 c 0
 420 90 474 117 520 152 c 1
 501 27 l 1
 455 3 404 -13 350 -13 c 0
 160 -13 88 171 112 350 c 0
 140 541 278 714 468 714 c 0
 520 714 566 698 610 673 c 1
 590 547 l 1
 554 585 511 609 457 609 c 0
 330 609 242 487 221 350 c 0
EndSplineSet
EndChar

StartChar: fraction
Encoding: 8260 8260 149
Width: 693
VWidth: 0
Flags: HMW
LayerCount: 2
Fore
SplineSet
652 699 m 1
 742 699 l 1
 119 0 l 1
 29 0 l 1
 652 699 l 1
EndSplineSet
EndChar

StartChar: onequarter
Encoding: 188 188 150
Width: 757
VWidth: 0
Flags: HMW
LayerCount: 2
Fore
SplineSet
695 699 m 1
 774 699 l 1
 151 0 l 1
 71 0 l 1
 695 699 l 1
101 595 m 1
 112 663 l 1
 284 701 l 1
 210 274 l 1
 140 274 l 1
 199 621 l 1
 101 595 l 1
375 81 m 1
 440 136 l 1
 618 136 l 1
 629 142 l 1
 724 141 l 1
 713 81 l 1
 375 81 l 1
452 93 m 1
 373 80 l 1
 663 419 l 1
 707 420 l 1
 636 0 l 1
 563 0 l 1
 580 102 l 1
 586 108 l 1
 616 287 l 1
 452 93 l 1
EndSplineSet
EndChar

StartChar: onehalf
Encoding: 189 189 151
Width: 823
VWidth: 0
Flags: HMW
LayerCount: 2
Fore
SplineSet
695 699 m 1
 774 699 l 1
 151 0 l 1
 71 0 l 1
 695 699 l 1
101 595 m 1
 112 663 l 1
 284 701 l 1
 210 274 l 1
 140 274 l 1
 199 621 l 1
 101 595 l 1
455 3 m 1
 677 207 l 2
 707 235 736 263 742 300 c 0
 747 331 730 363 690 365 c 0
 639 368 606 322 595 274 c 1
 524 274 l 1
 542 357 601 430 696 429 c 0
 781 429 825 364 814 299 c 0
 807 253 777 216 741 185 c 2
 606 69 l 1
 780 68 l 1
 768 2 l 1
 455 3 l 1
EndSplineSet
EndChar

StartChar: threequarters
Encoding: 190 190 152
Width: 817
VWidth: 0
Flags: HMW
LayerCount: 2
Fore
SplineSet
758 699 m 1
 838 699 l 1
 215 0 l 1
 135 0 l 1
 758 699 l 1
204 486 m 1
 210 523 l 1
 256 527 294 550 302 590 c 0
 307 620 292 645 258 646 c 0
 222 647 195 618 185 589 c 1
 117 590 l 1
 133 655 187 706 263 706 c 0
 336 706 382 655 372 592 c 0
 360 521 284 490 204 486 c 1
191 273 m 0
 106 273 63 330 67 400 c 1
 137 400 l 1
 137 363 155 336 197 335 c 0
 237 334 273 363 279 401 c 0
 287 449 248 466 200 470 c 1
 207 510 l 1
 289 507 363 476 350 392 c 0
 339 320 270 273 191 273 c 0
436 81 m 1
 501 136 l 1
 679 136 l 1
 690 142 l 1
 786 141 l 1
 775 81 l 1
 436 81 l 1
513 93 m 1
 435 80 l 1
 724 419 l 1
 768 420 l 1
 697 0 l 1
 624 0 l 1
 642 102 l 1
 647 108 l 1
 678 287 l 1
 513 93 l 1
EndSplineSet
EndChar

StartChar: uni2150
Encoding: 8528 8528 153
Width: 855
VWidth: 0
Flags: HMW
LayerCount: 2
Fore
SplineSet
655 699 m 1
 745 699 l 1
 122 0 l 1
 33 0 l 1
 655 699 l 1
101 595 m 1
 112 663 l 1
 284 701 l 1
 210 274 l 1
 140 274 l 1
 199 621 l 1
 101 595 l 1
558 353 m 1
 570 420 l 1
 878 420 l 1
 610 0 l 1
 533 0 l 1
 758 352 l 1
 558 353 l 1
EndSplineSet
EndChar

StartChar: uni2151
Encoding: 8529 8529 154
Width: 799
VWidth: 0
Flags: HMW
LayerCount: 2
Fore
SplineSet
653 699 m 1
 743 699 l 1
 120 0 l 1
 30 0 l 1
 653 699 l 1
101 595 m 1
 112 663 l 1
 284 701 l 1
 210 274 l 1
 140 274 l 1
 199 621 l 1
 101 595 l 1
734 281 m 0
 741 326 718 365 670 366 c 0
 622 368 577 327 570 280 c 0
 563 235 586 195 634 193 c 0
 682 191 727 234 734 281 c 0
593 4 m 1
 500 4 l 1
 658 166 l 1
 670 166 l 1
 650 151 630 144 604 144 c 0
 535 145 492 211 501 281 c 0
 513 368 589 429 674 429 c 0
 759 429 815 365 803 280 c 0
 797 242 776 208 752 181 c 1
 593 4 l 1
EndSplineSet
EndChar

StartChar: uni2152
Encoding: 8530 8530 155
Width: 1099
VWidth: 0
Flags: HMW
LayerCount: 2
Fore
SplineSet
653 699 m 1
 743 699 l 1
 120 0 l 1
 30 0 l 1
 653 699 l 1
101 595 m 1
 112 663 l 1
 284 701 l 1
 210 274 l 1
 140 274 l 1
 199 621 l 1
 101 595 l 1
526 322 m 1
 537 390 l 1
 709 428 l 1
 635 1 l 1
 565 1 l 1
 623 348 l 1
 526 322 l 1
829 210 m 0
 821 144 825 60 890 58 c 0
 955 56 999 136 1010 210 c 0
 1018 276 1014 360 949 362 c 0
 884 364 840 284 829 210 c 0
759 210 m 0
 774 323 849 426 953 426 c 0
 1060 426 1092 316 1079 210 c 0
 1064 97 991 -6 886 -6 c 0
 780 -6 746 104 759 210 c 0
EndSplineSet
EndChar

StartChar: onethird
Encoding: 8531 8531 156
Width: 778
VWidth: 0
Flags: HMW
LayerCount: 2
Fore
SplineSet
653 699 m 1
 742 699 l 1
 120 0 l 1
 30 0 l 1
 653 699 l 1
101 595 m 1
 112 663 l 1
 284 701 l 1
 210 274 l 1
 140 274 l 1
 199 621 l 1
 101 595 l 1
601 206 m 1
 607 243 l 1
 653 247 692 270 700 310 c 0
 705 340 690 365 656 366 c 0
 620 367 592 338 582 309 c 1
 515 310 l 1
 531 375 584 426 660 426 c 0
 733 426 780 375 770 312 c 0
 758 241 681 210 601 206 c 1
589 -7 m 0
 504 -7 461 50 465 120 c 1
 535 120 l 1
 535 83 553 56 595 55 c 0
 635 54 671 83 677 121 c 0
 685 169 646 186 598 190 c 1
 604 230 l 1
 686 227 760 196 747 112 c 0
 736 40 668 -7 589 -7 c 0
EndSplineSet
EndChar

StartChar: twothirds
Encoding: 8532 8532 157
Width: 904
VWidth: 0
Flags: HMW
LayerCount: 2
Fore
SplineSet
784 699 m 1
 874 699 l 1
 250 0 l 1
 160 0 l 1
 784 699 l 1
49 283 m 1
 271 487 l 2
 301 515 330 543 336 580 c 0
 341 611 324 643 284 645 c 0
 233 648 200 602 189 554 c 1
 118 554 l 1
 136 637 195 710 290 709 c 0
 375 709 419 644 408 579 c 0
 401 533 370 496 334 465 c 2
 199 349 l 1
 373 348 l 1
 362 282 l 1
 49 283 l 1
727 206 m 1
 733 243 l 1
 779 247 817 270 825 310 c 0
 830 340 815 365 781 366 c 0
 745 367 719 338 709 309 c 1
 641 310 l 1
 657 375 710 426 786 426 c 0
 859 426 905 375 895 312 c 0
 883 241 807 210 727 206 c 1
715 -7 m 0
 630 -7 587 50 591 120 c 1
 660 120 l 1
 660 83 678 56 720 55 c 0
 760 54 797 83 803 121 c 0
 811 169 771 186 723 190 c 1
 730 230 l 1
 812 227 886 196 873 112 c 0
 862 40 794 -7 715 -7 c 0
EndSplineSet
EndChar

StartChar: uni2155
Encoding: 8533 8533 158
Width: 768
VWidth: 0
Flags: HMW
LayerCount: 2
Fore
SplineSet
653 699 m 1
 743 699 l 1
 120 0 l 1
 30 0 l 1
 653 699 l 1
101 595 m 1
 112 663 l 1
 284 701 l 1
 210 274 l 1
 140 274 l 1
 199 621 l 1
 101 595 l 1
740 134 m 0
 728 45 649 -8 566 -8 c 0
 497 -8 454 24 423 67 c 1
 469 117 l 1
 490 85 522 58 562 58 c 0
 614 58 658 91 665 139 c 0
 671 185 640 217 595 219 c 0
 556 221 519 208 479 188 c 1
 528 230 l 1
 558 258 598 275 637 274 c 0
 710 273 750 208 740 134 c 0
617 355 m 1
 563 238 l 1
 473 183 l 1
 572 418 l 1
 784 418 l 1
 773 356 l 1
 617 355 l 1
EndSplineSet
EndChar

StartChar: uni2156
Encoding: 8534 8534 159
Width: 897
VWidth: 0
Flags: HMW
LayerCount: 2
Fore
SplineSet
784 699 m 1
 874 699 l 1
 250 0 l 1
 160 0 l 1
 784 699 l 1
49 283 m 1
 271 487 l 2
 301 515 330 543 336 580 c 0
 341 611 324 643 284 645 c 0
 233 648 200 602 189 554 c 1
 118 554 l 1
 136 637 195 710 290 709 c 0
 375 709 419 644 408 579 c 0
 401 533 370 496 334 465 c 2
 199 349 l 1
 373 348 l 1
 362 282 l 1
 49 283 l 1
865 134 m 0
 853 45 774 -8 691 -8 c 0
 622 -8 579 24 548 67 c 1
 596 117 l 1
 617 85 647 58 687 58 c 0
 739 58 783 91 790 139 c 0
 796 185 766 217 721 219 c 0
 682 221 644 208 604 188 c 1
 654 230 l 1
 684 258 723 275 762 274 c 0
 835 273 875 208 865 134 c 0
743 355 m 1
 689 238 l 1
 598 183 l 1
 698 418 l 1
 910 418 l 1
 898 356 l 1
 743 355 l 1
EndSplineSet
EndChar

StartChar: uni2157
Encoding: 8535 8535 160
Width: 844
VWidth: 0
Flags: HMW
LayerCount: 2
Fore
SplineSet
733 699 m 1
 822 699 l 1
 199 0 l 1
 109 0 l 1
 733 699 l 1
202 486 m 1
 208 523 l 1
 254 527 292 550 300 590 c 0
 305 620 291 645 257 646 c 0
 221 647 193 618 183 589 c 1
 116 590 l 1
 132 655 185 706 261 706 c 0
 334 706 381 655 371 592 c 0
 359 521 282 490 202 486 c 1
190 273 m 0
 105 273 62 330 66 400 c 1
 136 400 l 1
 136 363 154 336 196 335 c 0
 236 334 272 363 278 401 c 0
 286 449 247 466 199 470 c 1
 206 510 l 1
 288 507 362 476 349 392 c 0
 338 320 269 273 190 273 c 0
811 134 m 0
 799 45 721 -8 638 -8 c 0
 569 -8 525 24 494 67 c 1
 542 117 l 1
 563 85 593 58 633 58 c 0
 685 58 730 91 737 139 c 0
 743 185 712 217 667 219 c 0
 628 221 591 208 551 188 c 1
 601 230 l 1
 631 258 670 275 709 274 c 0
 782 273 821 208 811 134 c 0
689 355 m 1
 636 238 l 1
 545 183 l 1
 644 418 l 1
 856 418 l 1
 845 356 l 1
 689 355 l 1
EndSplineSet
EndChar

StartChar: uni2158
Encoding: 8536 8536 161
Width: 898
VWidth: 0
Flags: HMW
LayerCount: 2
Fore
SplineSet
777 699 m 1
 866 698 l 1
 243 0 l 1
 154 0 l 1
 777 699 l 1
59 361 m 1
 124 416 l 1
 302 416 l 1
 313 422 l 1
 408 421 l 1
 397 361 l 1
 59 361 l 1
136 373 m 1
 57 360 l 1
 347 699 l 1
 391 700 l 1
 320 280 l 1
 247 280 l 1
 264 382 l 1
 270 388 l 1
 300 567 l 1
 136 373 l 1
867 134 m 0
 855 45 777 -8 694 -8 c 0
 625 -8 581 23 550 66 c 1
 598 117 l 1
 619 85 650 58 690 58 c 0
 742 58 786 91 793 139 c 0
 799 185 769 217 724 219 c 0
 685 221 647 208 607 188 c 1
 657 230 l 1
 687 258 726 275 765 274 c 0
 838 273 877 208 867 134 c 0
745 355 m 1
 691 237 l 1
 601 182 l 1
 699 417 l 1
 912 417 l 1
 901 356 l 1
 745 355 l 1
EndSplineSet
EndChar

StartChar: uni2159
Encoding: 8537 8537 162
Width: 765
VWidth: 0
Flags: HMW
LayerCount: 2
Fore
SplineSet
661 699 m 1
 750 699 l 1
 127 0 l 1
 37 0 l 1
 661 699 l 1
101 595 m 1
 112 663 l 1
 284 701 l 1
 210 274 l 1
 140 274 l 1
 199 621 l 1
 101 595 l 1
506 139 m 0
 499 94 523 55 571 54 c 0
 619 52 663 93 670 140 c 0
 677 185 654 225 606 227 c 0
 558 229 513 186 506 139 c 0
647 416 m 1
 740 416 l 1
 583 254 l 1
 570 254 l 1
 590 269 610 276 636 276 c 0
 705 276 749 209 740 139 c 0
 728 52 651 -9 566 -9 c 0
 481 -9 426 55 438 140 c 0
 444 178 464 212 488 239 c 1
 647 416 l 1
EndSplineSet
EndChar

StartChar: uni215A
Encoding: 8538 8538 163
Width: 859
VWidth: 0
Flags: HMW
LayerCount: 2
Fore
SplineSet
762 699 m 1
 851 699 l 1
 228 0 l 1
 139 0 l 1
 762 699 l 1
377 414 m 0
 365 325 287 272 204 272 c 0
 135 272 92 304 61 347 c 1
 108 397 l 1
 129 365 160 338 200 338 c 0
 252 338 296 371 303 419 c 0
 309 465 278 497 233 499 c 0
 194 501 157 488 117 468 c 1
 166 510 l 1
 196 538 235 555 274 554 c 0
 347 553 387 488 377 414 c 0
255 635 m 1
 202 518 l 1
 111 463 l 1
 210 698 l 1
 422 698 l 1
 411 636 l 1
 255 635 l 1
600 139 m 0
 593 94 617 55 665 54 c 0
 713 52 757 93 764 140 c 0
 771 185 748 225 700 227 c 0
 652 229 607 186 600 139 c 0
741 416 m 1
 833 416 l 1
 677 254 l 1
 664 254 l 1
 684 269 704 276 730 276 c 0
 799 276 842 209 833 139 c 0
 821 52 746 -9 661 -9 c 0
 576 -9 519 55 531 140 c 0
 537 178 558 212 582 239 c 1
 741 416 l 1
EndSplineSet
EndChar

StartChar: oneeighth
Encoding: 8539 8539 164
Width: 788
VWidth: 0
Flags: HMW
LayerCount: 2
Fore
SplineSet
661 699 m 1
 750 699 l 1
 127 0 l 1
 37 0 l 1
 661 699 l 1
101 595 m 1
 112 663 l 1
 284 701 l 1
 210 274 l 1
 140 274 l 1
 199 621 l 1
 101 595 l 1
526 320 m 0
 535 383 599 427 665 427 c 0
 731 427 783 381 774 318 c 0
 765 252 700 210 634 210 c 0
 568 210 517 253 526 320 c 0
592 311 m 0
 588 281 605 253 636 252 c 0
 667 251 700 281 705 312 c 0
 709 342 693 370 661 371 c 0
 628 372 597 343 592 311 c 0
476 115 m 0
 486 191 562 235 632 235 c 0
 701 235 764 189 753 113 c 0
 743 43 671 -7 597 -7 c 0
 524 -7 466 46 476 115 c 0
547 123 m 0
 541 84 565 54 602 53 c 0
 640 52 680 83 686 124 c 0
 691 159 667 193 631 194 c 0
 593 195 553 160 547 123 c 0
EndSplineSet
EndChar

StartChar: threeeighths
Encoding: 8540 8540 165
Width: 862
VWidth: 0
Flags: HMW
LayerCount: 2
Fore
SplineSet
735 699 m 1
 825 699 l 1
 201 0 l 1
 112 0 l 1
 735 699 l 1
202 486 m 1
 208 523 l 1
 254 527 292 550 300 590 c 0
 305 620 291 645 257 646 c 0
 221 647 193 618 183 589 c 1
 116 590 l 1
 132 655 185 706 261 706 c 0
 334 706 381 655 371 592 c 0
 359 521 282 490 202 486 c 1
190 273 m 0
 105 273 62 330 66 400 c 1
 136 400 l 1
 136 363 154 336 196 335 c 0
 236 334 272 363 278 401 c 0
 286 449 247 466 199 470 c 1
 206 510 l 1
 288 507 362 476 349 392 c 0
 338 320 269 273 190 273 c 0
600 320 m 0
 609 383 674 427 740 427 c 0
 806 427 857 381 848 318 c 0
 839 252 774 210 708 210 c 0
 642 210 591 253 600 320 c 0
666 311 m 0
 662 281 680 253 711 252 c 0
 742 251 775 281 780 312 c 0
 784 342 767 370 735 371 c 0
 702 372 671 343 666 311 c 0
551 115 m 0
 561 191 637 235 707 235 c 0
 776 235 839 189 828 113 c 0
 818 43 746 -7 672 -7 c 0
 599 -7 541 46 551 115 c 0
622 123 m 0
 616 84 640 54 677 53 c 0
 715 52 754 83 760 124 c 0
 765 159 741 193 705 194 c 0
 667 195 628 160 622 123 c 0
EndSplineSet
EndChar

StartChar: fiveeighths
Encoding: 8541 8541 166
Width: 889
VWidth: 0
Flags: HMW
LayerCount: 2
Fore
SplineSet
762 699 m 1
 851 699 l 1
 228 0 l 1
 139 0 l 1
 762 699 l 1
375 414 m 0
 363 325 284 272 201 272 c 0
 132 272 89 304 58 347 c 1
 105 397 l 1
 126 365 157 338 197 338 c 0
 249 338 293 371 300 419 c 0
 306 465 276 497 231 499 c 0
 192 501 155 488 115 468 c 1
 164 510 l 1
 194 538 233 555 272 554 c 0
 345 553 385 488 375 414 c 0
253 635 m 1
 199 518 l 1
 108 463 l 1
 207 698 l 1
 419 698 l 1
 409 636 l 1
 253 635 l 1
627 320 m 0
 636 383 700 427 766 427 c 0
 832 427 884 381 875 318 c 0
 866 252 801 210 735 210 c 0
 669 210 618 253 627 320 c 0
693 311 m 0
 689 281 706 253 737 252 c 0
 768 251 801 281 806 312 c 0
 810 342 794 370 762 371 c 0
 729 372 698 343 693 311 c 0
578 115 m 0
 588 191 663 235 733 235 c 0
 802 235 865 189 854 113 c 0
 844 43 773 -7 699 -7 c 0
 626 -7 568 46 578 115 c 0
649 123 m 0
 643 84 666 54 703 53 c 0
 741 52 780 83 786 124 c 0
 791 159 768 193 732 194 c 0
 694 195 655 160 649 123 c 0
EndSplineSet
EndChar

StartChar: seveneighths
Encoding: 8542 8542 167
Width: 783
VWidth: 0
Flags: HMW
LayerCount: 2
Fore
SplineSet
652 699 m 1
 742 699 l 1
 119 0 l 1
 29 0 l 1
 652 699 l 1
107 633 m 1
 118 700 l 1
 426 700 l 1
 158 281 l 1
 81 281 l 1
 307 632 l 1
 107 633 l 1
521 320 m 0
 530 383 594 427 660 427 c 0
 726 427 777 381 768 318 c 0
 759 252 695 210 629 210 c 0
 563 210 512 253 521 320 c 0
586 311 m 0
 582 281 599 253 630 252 c 0
 661 251 695 281 700 312 c 0
 704 342 687 370 655 371 c 0
 622 372 591 343 586 311 c 0
471 115 m 0
 481 191 557 235 627 235 c 0
 696 235 758 189 747 113 c 0
 737 43 666 -7 592 -7 c 0
 519 -7 461 46 471 115 c 0
542 123 m 0
 536 84 559 54 596 53 c 0
 634 52 674 83 680 124 c 0
 685 159 662 193 626 194 c 0
 588 195 548 160 542 123 c 0
EndSplineSet
EndChar

StartChar: uni2074
Encoding: 8308 8308 168
Width: 389
VWidth: 0
Flags: HMW
LayerCount: 2
Fore
SplineSet
56 361 m 1
 121 416 l 1
 299 416 l 1
 310 422 l 1
 406 421 l 1
 395 361 l 1
 56 361 l 1
134 373 m 1
 55 360 l 1
 344 699 l 1
 389 700 l 1
 318 280 l 1
 245 280 l 1
 262 382 l 1
 267 388 l 1
 298 567 l 1
 134 373 l 1
EndSplineSet
EndChar

StartChar: uni2075
Encoding: 8309 8309 169
Width: 356
VWidth: 0
Flags: HMW
LayerCount: 2
Fore
SplineSet
375 414 m 0
 363 325 284 272 201 272 c 0
 132 272 89 304 58 347 c 1
 105 397 l 1
 126 365 157 338 197 338 c 0
 249 338 293 371 300 419 c 0
 306 465 276 497 231 499 c 0
 192 501 155 488 115 468 c 1
 164 510 l 1
 194 538 233 555 272 554 c 0
 345 553 385 488 375 414 c 0
253 635 m 1
 199 518 l 1
 108 463 l 1
 207 698 l 1
 419 698 l 1
 409 636 l 1
 253 635 l 1
EndSplineSet
EndChar

StartChar: uni2076
Encoding: 8310 8310 170
Width: 349
VWidth: 0
Flags: HMW
LayerCount: 2
Fore
SplineSet
142 419 m 0
 135 374 159 335 207 334 c 0
 255 332 299 373 306 420 c 0
 313 465 290 505 242 507 c 0
 194 509 149 466 142 419 c 0
282 696 m 1
 375 696 l 1
 218 534 l 1
 205 534 l 1
 225 549 245 556 271 556 c 0
 340 556 384 489 375 419 c 0
 363 332 286 271 201 271 c 0
 116 271 61 335 73 420 c 0
 79 458 99 492 123 519 c 1
 282 696 l 1
EndSplineSet
EndChar

StartChar: uni2077
Encoding: 8311 8311 171
Width: 352
VWidth: 0
Flags: HMW
LayerCount: 2
Fore
SplineSet
107 633 m 1
 118 700 l 1
 426 700 l 1
 158 281 l 1
 81 281 l 1
 307 632 l 1
 107 633 l 1
EndSplineSet
EndChar

StartChar: uni2078
Encoding: 8312 8312 172
Width: 327
VWidth: 0
Flags: HMW
LayerCount: 2
Fore
SplineSet
115 600 m 0
 124 663 189 707 255 707 c 0
 321 707 371 661 362 598 c 0
 353 532 289 490 223 490 c 0
 157 490 106 533 115 600 c 0
180 591 m 0
 176 561 194 533 225 532 c 0
 256 531 290 561 295 592 c 0
 299 622 282 650 250 651 c 0
 217 652 185 623 180 591 c 0
65 395 m 0
 75 471 152 515 222 515 c 0
 291 515 353 469 342 393 c 0
 332 323 260 273 186 273 c 0
 113 273 55 326 65 395 c 0
136 403 m 0
 130 364 154 334 191 333 c 0
 229 332 269 363 275 404 c 0
 280 439 256 473 220 474 c 0
 182 475 142 440 136 403 c 0
EndSplineSet
EndChar

StartChar: uni2079
Encoding: 8313 8313 173
Width: 348
VWidth: 0
Flags: HMW
LayerCount: 2
Fore
SplineSet
334 561 m 0
 341 606 317 645 269 646 c 0
 221 648 177 607 170 560 c 0
 163 515 186 475 234 473 c 0
 282 471 327 514 334 561 c 0
193 284 m 1
 100 284 l 1
 258 446 l 1
 270 446 l 1
 250 431 230 424 204 424 c 0
 135 425 92 491 101 561 c 0
 113 648 189 709 274 709 c 0
 359 709 414 645 402 560 c 0
 396 522 376 488 352 461 c 1
 193 284 l 1
EndSplineSet
EndChar

StartChar: uni2070
Encoding: 8304 8304 174
Width: 367
VWidth: 0
Flags: HMW
LayerCount: 2
Fore
SplineSet
151 490 m 0
 143 424 146 340 211 338 c 0
 276 336 320 416 331 490 c 0
 339 556 335 640 270 642 c 0
 205 644 162 564 151 490 c 0
81 490 m 0
 96 603 170 706 274 706 c 0
 381 706 414 596 401 490 c 0
 386 377 313 274 208 274 c 0
 102 274 68 384 81 490 c 0
EndSplineSet
EndChar

StartChar: uni2080
Encoding: 8320 8320 175
Width: 367
VWidth: 0
Flags: HMW
LayerCount: 2
Fore
SplineSet
103 210 m 0
 95 144 98 60 163 58 c 0
 228 56 272 136 283 210 c 0
 291 276 287 360 222 362 c 0
 157 364 114 284 103 210 c 0
33 210 m 0
 48 323 123 426 227 426 c 0
 334 426 366 316 353 210 c 0
 338 97 265 -6 160 -6 c 0
 54 -6 20 104 33 210 c 0
EndSplineSet
EndChar

StartChar: uni2084
Encoding: 8324 8324 176
Width: 391
VWidth: 0
Flags: HMW
LayerCount: 2
Fore
SplineSet
8 81 m 1
 73 136 l 1
 251 136 l 1
 262 142 l 1
 357 141 l 1
 347 81 l 1
 8 81 l 1
86 93 m 1
 6 80 l 1
 296 419 l 1
 341 420 l 1
 269 0 l 1
 196 0 l 1
 213 102 l 1
 219 108 l 1
 250 287 l 1
 86 93 l 1
EndSplineSet
EndChar

StartChar: uni2085
Encoding: 8325 8325 177
Width: 360
VWidth: 0
Flags: HMW
LayerCount: 2
Fore
SplineSet
329 134 m 0
 317 45 238 -8 155 -8 c 0
 86 -8 43 24 12 67 c 1
 59 117 l 1
 80 85 110 58 150 58 c 0
 202 58 247 91 254 139 c 0
 260 185 229 217 184 219 c 0
 145 221 108 208 68 188 c 1
 117 230 l 1
 147 258 187 275 226 274 c 0
 299 273 339 208 329 134 c 0
206 355 m 1
 152 238 l 1
 62 183 l 1
 161 418 l 1
 373 418 l 1
 362 356 l 1
 206 355 l 1
EndSplineSet
EndChar

StartChar: uni2086
Encoding: 8326 8326 178
Width: 353
VWidth: 0
Flags: HMW
LayerCount: 2
Fore
SplineSet
95 139 m 0
 88 94 111 55 159 54 c 0
 207 52 252 93 259 140 c 0
 266 185 242 225 194 227 c 0
 146 229 102 186 95 139 c 0
236 416 m 1
 328 416 l 1
 171 254 l 1
 159 254 l 1
 179 269 198 276 224 276 c 0
 293 276 336 209 327 139 c 0
 315 52 240 -9 155 -9 c 0
 70 -9 14 55 26 140 c 0
 32 178 53 212 77 239 c 1
 236 416 l 1
EndSplineSet
EndChar

StartChar: uni2087
Encoding: 8327 8327 179
Width: 354
VWidth: 0
Flags: HMW
LayerCount: 2
Fore
SplineSet
60 353 m 1
 72 420 l 1
 380 420 l 1
 111 0 l 1
 34 0 l 1
 260 352 l 1
 60 353 l 1
EndSplineSet
EndChar

StartChar: uni2088
Encoding: 8328 8328 180
Width: 330
VWidth: 0
Flags: HMW
LayerCount: 2
Fore
SplineSet
69 320 m 0
 78 383 142 427 208 427 c 0
 274 427 325 381 316 318 c 0
 307 252 243 210 177 210 c 0
 111 210 60 253 69 320 c 0
134 311 m 0
 130 281 148 253 179 252 c 0
 210 251 243 281 248 312 c 0
 252 342 236 370 204 371 c 0
 171 372 139 343 134 311 c 0
19 115 m 0
 29 191 105 235 175 235 c 0
 244 235 307 189 296 113 c 0
 286 43 214 -7 140 -7 c 0
 67 -7 9 46 19 115 c 0
90 123 m 0
 84 84 108 54 145 53 c 0
 183 52 223 83 229 124 c 0
 234 159 210 193 174 194 c 0
 136 195 96 160 90 123 c 0
EndSplineSet
EndChar

StartChar: uni2089
Encoding: 8329 8329 181
Width: 355
VWidth: 0
Flags: HMW
LayerCount: 2
Fore
SplineSet
277 281 m 0
 284 326 260 365 212 366 c 0
 164 368 119 327 112 280 c 0
 105 235 129 195 177 193 c 0
 225 191 270 234 277 281 c 0
136 4 m 1
 43 4 l 1
 200 166 l 1
 213 166 l 1
 193 151 173 144 147 144 c 0
 78 145 35 211 44 281 c 0
 56 368 132 429 217 429 c 0
 302 429 358 365 346 280 c 0
 340 242 319 208 295 181 c 1
 136 4 l 1
EndSplineSet
EndChar

StartChar: uni2081
Encoding: 8321 8321 182
Width: 322
VWidth: 0
Flags: HMW
LayerCount: 2
Fore
SplineSet
115 322 m 1
 126 390 l 1
 298 428 l 1
 224 1 l 1
 154 1 l 1
 213 348 l 1
 115 322 l 1
EndSplineSet
EndChar

StartChar: uni2082
Encoding: 8322 8322 183
Width: 360
VWidth: 0
Flags: HMW
LayerCount: 2
Fore
SplineSet
-3 3 m 1
 219 207 l 2
 249 235 278 263 284 300 c 0
 289 331 273 363 233 365 c 0
 182 368 148 322 137 274 c 1
 66 274 l 1
 84 357 143 430 238 429 c 0
 323 429 367 364 356 299 c 0
 349 253 319 216 283 185 c 2
 148 69 l 1
 322 68 l 1
 310 2 l 1
 -3 3 l 1
EndSplineSet
EndChar

StartChar: uni2083
Encoding: 8323 8323 184
Width: 325
VWidth: 0
Flags: HMW
LayerCount: 2
Fore
SplineSet
152 206 m 1
 157 243 l 1
 203 247 241 270 249 310 c 0
 254 340 240 365 206 366 c 0
 170 367 143 338 133 309 c 1
 66 310 l 1
 82 375 134 426 210 426 c 0
 283 426 330 375 320 312 c 0
 308 241 232 210 152 206 c 1
139 -7 m 0
 54 -7 11 50 15 120 c 1
 85 120 l 1
 85 83 102 56 144 55 c 0
 184 54 222 83 228 121 c 0
 236 169 196 186 148 190 c 1
 155 230 l 1
 237 227 310 196 297 112 c 0
 286 40 218 -7 139 -7 c 0
EndSplineSet
EndChar

StartChar: Agrave
Encoding: 192 192 185
Width: 669
VWidth: 0
Flags: HMW
LayerCount: 2
Fore
SplineSet
160 180 m 1
 199 279 l 1
 516 279 l 1
 521 180 l 1
 160 180 l 1
396 502 m 1
 245 245 l 1
 240 219 l 1
 107 0 l 1
 -28 0 l 1
 434 741 l 1
 640 0 l 1
 511 0 l 1
 454 213 l 1
 458 242 l 1
 396 502 l 1
331 951 m 1
 426 994 l 1
 546 832 l 1
 483 799 l 1
 331 951 l 1
EndSplineSet
EndChar

StartChar: Aacute
Encoding: 193 193 186
Width: 669
VWidth: 0
Flags: HMW
LayerCount: 2
Fore
SplineSet
160 180 m 1
 199 279 l 1
 516 279 l 1
 521 180 l 1
 160 180 l 1
396 502 m 1
 245 245 l 1
 240 219 l 1
 107 0 l 1
 -28 0 l 1
 434 741 l 1
 640 0 l 1
 511 0 l 1
 454 213 l 1
 458 242 l 1
 396 502 l 1
608 946 m 1
 410 799 l 1
 352 836 l 1
 523 993 l 1
 608 946 l 1
EndSplineSet
EndChar

StartChar: Acircumflex
Encoding: 194 194 187
Width: 669
VWidth: 0
Flags: HMW
LayerCount: 2
Fore
SplineSet
160 180 m 1
 199 279 l 1
 516 279 l 1
 521 180 l 1
 160 180 l 1
396 502 m 1
 245 245 l 1
 240 219 l 1
 107 0 l 1
 -28 0 l 1
 434 741 l 1
 640 0 l 1
 511 0 l 1
 454 213 l 1
 458 242 l 1
 396 502 l 1
458 859 m 1
 342 769 l 1
 277 824 l 1
 469 962 l 1
 619 820 l 1
 541 769 l 1
 458 859 l 1
EndSplineSet
EndChar

StartChar: Atilde
Encoding: 195 195 188
Width: 669
VWidth: 0
Flags: HMW
LayerCount: 2
Fore
SplineSet
160 180 m 1
 199 279 l 1
 516 279 l 1
 521 180 l 1
 160 180 l 1
396 502 m 1
 245 245 l 1
 240 219 l 1
 107 0 l 1
 -28 0 l 1
 434 741 l 1
 640 0 l 1
 511 0 l 1
 454 213 l 1
 458 242 l 1
 396 502 l 1
276 834 m 1
 296 878 342 921 396 919 c 0
 449 918 465 869 513 871 c 0
 538 872 561 895 581 920 c 1
 629 863 l 1
 605 827 558 785 504 787 c 0
 457 789 432 838 388 836 c 0
 353 834 339 804 331 786 c 1
 276 834 l 1
EndSplineSet
EndChar

StartChar: Adieresis
Encoding: 196 196 189
Width: 669
VWidth: 0
Flags: HMW
LayerCount: 2
Fore
SplineSet
160 180 m 1
 199 279 l 1
 516 279 l 1
 521 180 l 1
 160 180 l 1
396 502 m 1
 245 245 l 1
 240 219 l 1
 107 0 l 1
 -28 0 l 1
 434 741 l 1
 640 0 l 1
 511 0 l 1
 454 213 l 1
 458 242 l 1
 396 502 l 1
498 843 m 0
 502 877 539 908 574 907 c 0
 610 906 636 876 632 841 c 0
 628 807 591 775 556 776 c 0
 520 777 494 808 498 843 c 0
269 845 m 0
 273 879 311 911 346 910 c 0
 382 909 408 878 404 843 c 0
 400 809 362 778 327 779 c 0
 291 780 265 810 269 845 c 0
EndSplineSet
EndChar

StartChar: Aring
Encoding: 197 197 190
Width: 669
VWidth: 0
Flags: HMW
LayerCount: 2
Fore
SplineSet
160 180 m 1
 199 279 l 1
 516 279 l 1
 521 180 l 1
 160 180 l 1
396 502 m 1
 245 245 l 1
 240 219 l 1
 107 0 l 1
 -28 0 l 1
 434 741 l 1
 640 0 l 1
 511 0 l 1
 454 213 l 1
 458 242 l 1
 396 502 l 1
335 800 m 0
 343 859 401 905 460 905 c 0
 519 905 561 857 553 798 c 0
 545 738 487 693 428 693 c 0
 369 693 327 741 335 800 c 0
396 798 m 0
 393 773 410 750 433 749 c 0
 457 747 489 773 492 800 c 0
 495 825 478 849 455 850 c 0
 431 852 399 825 396 798 c 0
EndSplineSet
EndChar

StartChar: AE
Encoding: 198 198 191
Width: 980
VWidth: 0
Flags: HMW
LayerCount: 2
Fore
SplineSet
236 186 m 1
 257 296 l 1
 550 296 l 1
 531 186 l 1
 236 186 l 1
518 700 m 1
 614 658 l 1
 123 0 l 1
 -20 0 l 1
 518 700 l 1
531 0 m 1
 548 104 l 1
 906 104 l 1
 887 0 l 1
 531 0 l 1
644 596 m 1
 518 700 l 1
 1007 700 l 1
 989 596 l 1
 644 596 l 1
586 324 m 1
 603 426 l 1
 941 426 l 1
 923 323 l 1
 586 324 l 1
590 700 m 1
 714 700 l 1
 593 0 l 1
 472 0 l 1
 590 700 l 1
EndSplineSet
EndChar

StartChar: Ccedilla
Encoding: 199 199 192
Width: 670
VWidth: 0
Flags: HMW
LayerCount: 2
Fore
SplineSet
195 350 m 0
 175 219 248 106 380 104 c 0
 475 103 552 148 612 202 c 1
 591 62 l 1
 527 16 457 -12 364 -12 c 0
 160 -11 40 156 68 350 c 0
 99 553 272 712 480 712 c 0
 568 712 631 687 687 637 c 1
 665 497 l 1
 623 557 559 596 472 596 c 0
 338 596 218 488 195 350 c 0
340 53 m 1
 422 52 l 1
 329 -63 l 1
 335 -62 341 -62 347 -62 c 0
 387 -65 420 -97 414 -146 c 0
 406 -207 343 -244 286 -245 c 0
 243 -246 213 -231 180 -205 c 1
 225 -156 l 1
 244 -170 262 -180 284 -180 c 0
 311 -180 341 -163 343 -140 c 0
 345 -117 324 -107 299 -107 c 0
 282 -106 253 -113 228 -123 c 1
 340 53 l 1
EndSplineSet
EndChar

StartChar: Egrave
Encoding: 200 200 193
Width: 553
VWidth: 0
Flags: HMW
LayerCount: 2
Fore
SplineSet
119 0 m 1
 137 104 l 1
 482 104 l 1
 464 0 l 1
 119 0 l 1
221 596 m 1
 239 700 l 1
 583 700 l 1
 565 596 l 1
 221 596 l 1
174 324 m 1
 192 426 l 1
 517 426 l 1
 500 323 l 1
 174 324 l 1
166 700 m 1
 282 700 l 1
 162 0 l 1
 48 0 l 1
 166 700 l 1
274 927 m 1
 369 970 l 1
 489 809 l 1
 426 775 l 1
 274 927 l 1
EndSplineSet
EndChar

StartChar: Eacute
Encoding: 201 201 194
Width: 553
VWidth: 0
Flags: HMW
LayerCount: 2
Fore
SplineSet
119 0 m 1
 137 104 l 1
 482 104 l 1
 464 0 l 1
 119 0 l 1
221 596 m 1
 239 700 l 1
 583 700 l 1
 565 596 l 1
 221 596 l 1
174 324 m 1
 192 426 l 1
 517 426 l 1
 500 323 l 1
 174 324 l 1
166 700 m 1
 282 700 l 1
 162 0 l 1
 48 0 l 1
 166 700 l 1
551 922 m 1
 353 776 l 1
 295 812 l 1
 467 969 l 1
 551 922 l 1
EndSplineSet
EndChar

StartChar: Ecircumflex
Encoding: 202 202 195
Width: 553
VWidth: 0
Flags: HMW
LayerCount: 2
Fore
SplineSet
119 0 m 1
 137 104 l 1
 482 104 l 1
 464 0 l 1
 119 0 l 1
221 596 m 1
 239 700 l 1
 583 700 l 1
 565 596 l 1
 221 596 l 1
174 324 m 1
 192 426 l 1
 517 426 l 1
 500 323 l 1
 174 324 l 1
166 700 m 1
 282 700 l 1
 162 0 l 1
 48 0 l 1
 166 700 l 1
414 872 m 1
 291 778 l 1
 246 820 l 1
 423 958 l 1
 558 816 l 1
 505 778 l 1
 414 872 l 1
EndSplineSet
EndChar

StartChar: Edieresis
Encoding: 203 203 196
Width: 553
VWidth: 0
Flags: HMW
LayerCount: 2
Fore
SplineSet
119 0 m 1
 137 104 l 1
 482 104 l 1
 464 0 l 1
 119 0 l 1
221 596 m 1
 239 700 l 1
 583 700 l 1
 565 596 l 1
 221 596 l 1
174 324 m 1
 192 426 l 1
 517 426 l 1
 500 323 l 1
 174 324 l 1
166 700 m 1
 282 700 l 1
 162 0 l 1
 48 0 l 1
 166 700 l 1
446 855 m 0
 450 889 488 920 523 919 c 0
 559 918 585 887 581 852 c 0
 577 818 539 787 504 788 c 0
 468 789 442 820 446 855 c 0
235 855 m 0
 239 889 276 920 311 919 c 0
 347 918 373 887 369 852 c 0
 365 818 328 787 293 788 c 0
 257 789 231 820 235 855 c 0
EndSplineSet
EndChar

StartChar: Igrave
Encoding: 204 204 197
Width: 266
VWidth: 0
Flags: HMW
LayerCount: 2
Fore
SplineSet
166 700 m 1
 286 700 l 1
 165 0 l 1
 48 0 l 1
 166 700 l 1
123 927 m 1
 218 970 l 1
 339 809 l 1
 275 775 l 1
 123 927 l 1
EndSplineSet
EndChar

StartChar: Iacute
Encoding: 205 205 198
Width: 266
VWidth: 0
Flags: HMW
LayerCount: 2
Fore
SplineSet
166 700 m 1
 286 700 l 1
 165 0 l 1
 48 0 l 1
 166 700 l 1
400 922 m 1
 201 775 l 1
 144 812 l 1
 316 969 l 1
 400 922 l 1
EndSplineSet
EndChar

StartChar: Icircumflex
Encoding: 206 206 199
Width: 266
VWidth: 0
Flags: HMW
LayerCount: 2
Fore
SplineSet
166 700 m 1
 286 700 l 1
 165 0 l 1
 48 0 l 1
 166 700 l 1
255 872 m 1
 131 778 l 1
 87 820 l 1
 264 958 l 1
 399 816 l 1
 346 778 l 1
 255 872 l 1
EndSplineSet
EndChar

StartChar: Idieresis
Encoding: 207 207 200
Width: 266
VWidth: 0
Flags: HMW
LayerCount: 2
Fore
SplineSet
166 700 m 1
 286 700 l 1
 165 0 l 1
 48 0 l 1
 166 700 l 1
289 840 m 0
 293 874 330 905 365 904 c 0
 401 903 427 872 423 837 c 0
 419 803 381 772 346 773 c 0
 310 774 285 805 289 840 c 0
77 840 m 0
 81 874 118 905 153 904 c 0
 189 903 216 872 212 837 c 0
 208 803 169 772 134 773 c 0
 98 774 73 805 77 840 c 0
EndSplineSet
EndChar

StartChar: Ntilde
Encoding: 209 209 201
Width: 758
VWidth: 0
Flags: HMW
LayerCount: 2
Fore
SplineSet
663 700 m 1
 778 700 l 1
 652 -34 l 1
 243 470 l 1
 162 0 l 1
 47 0 l 1
 172 734 l 1
 581 230 l 1
 663 700 l 1
302 810 m 1
 322 854 367 897 421 895 c 0
 474 894 490 845 538 847 c 0
 563 848 586 871 606 896 c 1
 653 839 l 1
 629 803 583 762 529 764 c 0
 482 766 457 814 413 812 c 0
 378 810 363 780 355 762 c 1
 302 810 l 1
EndSplineSet
EndChar

StartChar: Eth
Encoding: 208 208 202
Width: 679
VWidth: 0
Flags: HMW
LayerCount: 2
Fore
SplineSet
30 307 m 1
 45 392 l 1
 357 392 l 1
 343 307 l 1
 30 307 l 1
166 700 m 1
 287 700 l 1
 167 0 l 1
 48 0 l 1
 166 700 l 1
271 0 m 1
 118 0 l 1
 138 112 l 1
 281 112 l 1
 422 115 534 204 558 350 c 0
 580 489 507 585 369 588 c 1
 218 588 l 1
 238 700 l 1
 383 700 l 1
 589 697 707 547 678 350 c 0
 646 146 482 3 271 0 c 1
EndSplineSet
EndChar

StartChar: Ograve
Encoding: 210 210 203
Width: 777
VWidth: 0
Flags: HMW
LayerCount: 2
Fore
SplineSet
192 350 m 0
 172 223 237 102 376 101 c 0
 517 100 629 215 652 350 c 0
 672 478 608 598 468 599 c 0
 327 600 215 485 192 350 c 0
68 350 m 0
 99 551 272 712 480 712 c 0
 685 712 805 543 777 350 c 0
 746 149 573 -15 363 -15 c 0
 157 -15 40 157 68 350 c 0
393 927 m 1
 487 970 l 1
 608 809 l 1
 545 775 l 1
 393 927 l 1
EndSplineSet
EndChar

StartChar: Oacute
Encoding: 211 211 204
Width: 777
VWidth: 0
Flags: HMW
LayerCount: 2
Fore
SplineSet
192 350 m 0
 172 223 237 102 376 101 c 0
 517 100 629 215 652 350 c 0
 672 478 608 598 468 599 c 0
 327 600 215 485 192 350 c 0
68 350 m 0
 99 551 272 712 480 712 c 0
 685 712 805 543 777 350 c 0
 746 149 573 -15 363 -15 c 0
 157 -15 40 157 68 350 c 0
655 922 m 1
 456 776 l 1
 399 812 l 1
 570 969 l 1
 655 922 l 1
EndSplineSet
EndChar

StartChar: Ocircumflex
Encoding: 212 212 205
Width: 777
VWidth: 0
Flags: HMW
LayerCount: 2
Fore
SplineSet
192 350 m 0
 172 223 237 102 376 101 c 0
 517 100 629 215 652 350 c 0
 672 478 608 598 468 599 c 0
 327 600 215 485 192 350 c 0
68 350 m 0
 99 551 272 712 480 712 c 0
 685 712 805 543 777 350 c 0
 746 149 573 -15 363 -15 c 0
 157 -15 40 157 68 350 c 0
518 872 m 1
 394 778 l 1
 350 820 l 1
 527 958 l 1
 662 816 l 1
 608 778 l 1
 518 872 l 1
EndSplineSet
EndChar

StartChar: Otilde
Encoding: 213 213 206
Width: 777
VWidth: 0
Flags: HMW
LayerCount: 2
Fore
SplineSet
192 350 m 0
 172 223 237 102 376 101 c 0
 517 100 629 215 652 350 c 0
 672 478 608 598 468 599 c 0
 327 600 215 485 192 350 c 0
68 350 m 0
 99 551 272 712 480 712 c 0
 685 712 805 543 777 350 c 0
 746 149 573 -15 363 -15 c 0
 157 -15 40 157 68 350 c 0
343 823 m 1
 343 867 419 902 455 902 c 0
 507 901 521 855 568 857 c 0
 592 858 611 880 631 904 c 1
 671 859 l 1
 648 825 608 786 559 788 c 0
 513 790 491 835 449 834 c 0
 413 833 399 802 391 784 c 1
 343 823 l 1
EndSplineSet
EndChar

StartChar: Odieresis
Encoding: 214 214 207
Width: 777
VWidth: 0
Flags: HMW
LayerCount: 2
Fore
SplineSet
192 350 m 0
 172 223 237 102 376 101 c 0
 517 100 629 215 652 350 c 0
 672 478 608 598 468 599 c 0
 327 600 215 485 192 350 c 0
68 350 m 0
 99 551 272 712 480 712 c 0
 685 712 805 543 777 350 c 0
 746 149 573 -15 363 -15 c 0
 157 -15 40 157 68 350 c 0
544 840 m 0
 548 874 585 905 620 904 c 0
 656 903 682 872 678 837 c 0
 674 803 637 772 602 773 c 0
 566 774 540 805 544 840 c 0
333 840 m 0
 337 874 374 905 409 904 c 0
 445 903 471 872 467 837 c 0
 463 803 426 772 391 773 c 0
 355 774 329 805 333 840 c 0
EndSplineSet
EndChar

StartChar: Ugrave
Encoding: 217 217 208
Width: 636
VWidth: 0
Flags: HMW
LayerCount: 2
Fore
SplineSet
162 700 m 1
 280 700 l 1
 199 235 l 2
 189 159 217 93 304 92 c 0
 392 91 448 155 463 235 c 1
 543 700 l 1
 661 700 l 1
 580 230 l 2
 555 85 442 -17 292 -17 c 0
 145 -17 63 88 82 230 c 1
 162 700 l 1
310 924 m 1
 405 968 l 1
 525 806 l 1
 462 772 l 1
 310 924 l 1
EndSplineSet
EndChar

StartChar: Uacute
Encoding: 218 218 209
Width: 636
VWidth: 0
Flags: HMW
LayerCount: 2
Fore
SplineSet
162 700 m 1
 280 700 l 1
 199 235 l 2
 189 159 217 93 304 92 c 0
 392 91 448 155 463 235 c 1
 543 700 l 1
 661 700 l 1
 580 230 l 2
 555 85 442 -17 292 -17 c 0
 145 -17 63 88 82 230 c 1
 162 700 l 1
588 920 m 1
 390 773 l 1
 332 810 l 1
 503 967 l 1
 588 920 l 1
EndSplineSet
EndChar

StartChar: Ucircumflex
Encoding: 219 219 210
Width: 636
VWidth: 0
Flags: HMW
LayerCount: 2
Fore
SplineSet
162 700 m 1
 280 700 l 1
 199 235 l 2
 189 159 217 93 304 92 c 0
 392 91 448 155 463 235 c 1
 543 700 l 1
 661 700 l 1
 580 230 l 2
 555 85 442 -17 292 -17 c 0
 145 -17 63 88 82 230 c 1
 162 700 l 1
442 863 m 1
 326 773 l 1
 262 827 l 1
 454 965 l 1
 603 824 l 1
 525 772 l 1
 442 863 l 1
EndSplineSet
EndChar

StartChar: Udieresis
Encoding: 220 220 211
Width: 636
VWidth: 0
Flags: HMW
LayerCount: 2
Fore
SplineSet
162 700 m 1
 280 700 l 1
 199 235 l 2
 189 159 217 93 304 92 c 0
 392 91 448 155 463 235 c 1
 543 700 l 1
 661 700 l 1
 580 230 l 2
 555 85 442 -17 292 -17 c 0
 145 -17 63 88 82 230 c 1
 162 700 l 1
480 840 m 0
 484 874 522 905 557 904 c 0
 593 903 619 872 615 837 c 0
 611 803 574 772 539 773 c 0
 503 774 476 805 480 840 c 0
254 840 m 0
 258 874 295 905 330 904 c 0
 366 903 392 872 388 837 c 0
 384 803 347 772 312 773 c 0
 276 774 250 805 254 840 c 0
EndSplineSet
EndChar

StartChar: Yacute
Encoding: 221 221 212
Width: 582
VWidth: 0
Flags: HMW
LayerCount: 2
Fore
SplineSet
561 920 m 1
 363 773 l 1
 306 810 l 1
 477 967 l 1
 561 920 l 1
540 700 m 1
 676 700 l 1
 374 292 l 1
 324 0 l 1
 205 0 l 1
 257 298 l 1
 96 700 l 1
 226 700 l 1
 331 403 l 1
 540 700 l 1
EndSplineSet
EndChar

StartChar: agrave
Encoding: 224 224 213
Width: 571
VWidth: 0
Flags: HMW
LayerCount: 2
Fore
SplineSet
457 460 m 1
 562 460 l 1
 482 0 l 1
 379 0 l 1
 457 460 l 1
44 230 m 0
 63 366 173 471 300 470 c 0
 424 469 469 354 453 230 c 0
 435 99 348 -10 225 -10 c 0
 98 -10 27 99 44 230 c 0
155 230 m 0
 143 152 183 86 260 85 c 0
 331 84 401 149 414 230 c 0
 425 306 385 373 316 375 c 0
 238 377 168 312 155 230 c 0
206 682 m 1
 300 726 l 1
 421 564 l 1
 358 530 l 1
 206 682 l 1
EndSplineSet
Substitution2: "alt a" agrave.alt
EndChar

StartChar: aacute
Encoding: 225 225 214
Width: 571
VWidth: 0
Flags: HMW
LayerCount: 2
Fore
SplineSet
457 460 m 1
 562 460 l 1
 482 0 l 1
 379 0 l 1
 457 460 l 1
44 230 m 0
 63 366 173 471 300 470 c 0
 424 469 469 354 453 230 c 0
 435 99 348 -10 225 -10 c 0
 98 -10 27 99 44 230 c 0
155 230 m 0
 143 152 183 86 260 85 c 0
 331 84 401 149 414 230 c 0
 425 306 385 373 316 375 c 0
 238 377 168 312 155 230 c 0
493 678 m 1
 295 531 l 1
 238 567 l 1
 409 725 l 1
 493 678 l 1
EndSplineSet
Substitution2: "alt a" aacute.alt
EndChar

StartChar: acircumflex
Encoding: 226 226 215
Width: 571
VWidth: 0
Flags: HMW
LayerCount: 2
Fore
SplineSet
457 460 m 1
 562 460 l 1
 482 0 l 1
 379 0 l 1
 457 460 l 1
44 230 m 0
 63 366 173 471 300 470 c 0
 424 469 469 354 453 230 c 0
 435 99 348 -10 225 -10 c 0
 98 -10 27 99 44 230 c 0
155 230 m 0
 143 152 183 86 260 85 c 0
 331 84 401 149 414 230 c 0
 425 306 385 373 316 375 c 0
 238 377 168 312 155 230 c 0
369 621 m 1
 254 531 l 1
 188 585 l 1
 381 723 l 1
 530 582 l 1
 453 530 l 1
 369 621 l 1
EndSplineSet
Substitution2: "alt a" acircumflex.alt
EndChar

StartChar: atilde
Encoding: 227 227 216
Width: 571
VWidth: 0
Flags: HMW
LayerCount: 2
Fore
SplineSet
457 460 m 1
 562 460 l 1
 482 0 l 1
 379 0 l 1
 457 460 l 1
44 230 m 0
 63 366 173 471 300 470 c 0
 424 469 469 354 453 230 c 0
 435 99 348 -10 225 -10 c 0
 98 -10 27 99 44 230 c 0
155 230 m 0
 143 152 183 86 260 85 c 0
 331 84 401 149 414 230 c 0
 425 306 385 373 316 375 c 0
 238 377 168 312 155 230 c 0
188 580 m 1
 208 626 254 665 307 665 c 0
 360 665 376 616 424 618 c 0
 449 619 472 642 492 667 c 1
 540 610 l 1
 516 574 469 532 415 534 c 0
 368 536 343 584 299 582 c 0
 264 580 251 550 242 532 c 1
 188 580 l 1
EndSplineSet
Substitution2: "alt a" atilde.alt
EndChar

StartChar: adieresis
Encoding: 228 228 217
Width: 571
VWidth: 0
Flags: HMW
LayerCount: 2
Fore
SplineSet
457 460 m 1
 562 460 l 1
 482 0 l 1
 379 0 l 1
 457 460 l 1
44 230 m 0
 63 366 173 471 300 470 c 0
 424 469 469 354 453 230 c 0
 435 99 348 -10 225 -10 c 0
 98 -10 27 99 44 230 c 0
155 230 m 0
 143 152 183 86 260 85 c 0
 331 84 401 149 414 230 c 0
 425 306 385 373 316 375 c 0
 238 377 168 312 155 230 c 0
398 597 m 0
 402 631 439 662 474 661 c 0
 510 660 536 630 532 595 c 0
 528 561 490 530 455 531 c 0
 419 532 394 562 398 597 c 0
187 597 m 0
 191 631 228 662 263 661 c 0
 299 660 325 630 321 595 c 0
 317 561 279 530 244 531 c 0
 208 532 183 562 187 597 c 0
EndSplineSet
Substitution2: "alt a" adieresis.alt
EndChar

StartChar: aring
Encoding: 229 229 218
Width: 571
VWidth: 0
Flags: HMW
LayerCount: 2
Fore
SplineSet
457 460 m 1
 562 460 l 1
 482 0 l 1
 379 0 l 1
 457 460 l 1
44 230 m 0
 63 366 173 471 300 470 c 0
 424 469 469 354 453 230 c 0
 435 99 348 -10 225 -10 c 0
 98 -10 27 99 44 230 c 0
155 230 m 0
 143 152 183 86 260 85 c 0
 331 84 401 149 414 230 c 0
 425 306 385 373 316 375 c 0
 238 377 168 312 155 230 c 0
238 637 m 0
 246 696 302 742 361 742 c 0
 420 742 464 694 456 635 c 0
 448 575 390 531 331 531 c 0
 272 531 230 578 238 637 c 0
298 636 m 0
 295 611 312 586 335 586 c 0
 359 586 391 610 394 637 c 0
 397 662 380 686 357 686 c 0
 333 686 301 663 298 636 c 0
EndSplineSet
Substitution2: "alt a" aring.alt
EndChar

StartChar: germandbls
Encoding: 223 223 219
Width: 561
VWidth: 0
Flags: HMW
LayerCount: 2
Fore
SplineSet
254 90 m 1
 337 97 418 153 434 243 c 0
 450 326 385 383 290 389 c 1
 302 464 l 1
 449 459 561 367 539 224 c 0
 516 79 386 -4 239 -10 c 1
 254 90 l 1
295 421 m 1
 306 490 l 1
 389 494 443 531 455 591 c 0
 465 647 434 692 366 692 c 0
 307 692 257 657 248 598 c 2
 145 0 l 1
 39 0 l 1
 143 606 l 2
 161 716 260 792 377 792 c 0
 503 792 580 716 563 606 c 0
 543 481 438 425 295 421 c 1
EndSplineSet
EndChar

StartChar: ae
Encoding: 230 230 220
Width: 827
VWidth: 0
Flags: HMW
LayerCount: 2
Fore
SplineSet
129 136 m 0
 122 95 153 74 198 73 c 0
 270 71 320 112 337 182 c 1
 385 128 l 1
 363 40 284 -10 181 -10 c 0
 81 -10 6 38 20 127 c 0
 34 227 130 283 236 283 c 0
 303 283 353 254 379 226 c 1
 371 171 l 1
 334 199 295 214 246 213 c 0
 187 212 137 186 129 136 c 0
143 338 m 1
 111 417 l 1
 161 444 226 471 301 471 c 0
 402 470 448 418 436 328 c 1
 403 130 l 1
 329 130 l 1
 361 308 l 1
 365 350 334 380 288 382 c 0
 229 385 177 356 143 338 c 1
407 206 m 1
 419 279 l 1
 797 280 l 1
 803 205 l 1
 407 206 l 1
698 248 m 2
 707 318 692 385 613 387 c 0
 537 389 480 331 465 258 c 1
 458 230 l 1
 446 148 474 81 555 79 c 0
 615 77 662 112 696 152 c 1
 784 113 l 1
 727 41 654 -11 542 -10 c 0
 405 -9 347 105 369 230 c 0
 372 247 382 263 388 279 c 0
 427 385 511 471 636 470 c 0
 762 469 824 362 809 235 c 0
 808 226 807 217 804 206 c 1
 694 226 l 1
 698 248 l 2
EndSplineSet
EndChar

StartChar: ccedilla
Encoding: 231 231 221
Width: 469
VWidth: 0
Flags: HMW
LayerCount: 2
Fore
SplineSet
150 230 m 0
 138 153 179 86 260 84 c 0
 326 83 385 118 421 160 c 1
 404 41 l 1
 364 10 308 -10 246 -10 c 0
 107 -10 21 98 40 230 c 0
 61 366 180 470 321 470 c 0
 380 470 431 451 466 418 c 1
 447 299 l 1
 425 346 376 376 317 376 c 0
 235 376 164 310 150 230 c 0
223 59 m 1
 305 57 l 1
 213 -58 l 1
 219 -57 224 -56 230 -56 c 0
 270 -59 303 -92 297 -141 c 0
 289 -202 226 -239 169 -240 c 0
 126 -241 96 -226 63 -200 c 1
 108 -151 l 1
 127 -165 145 -174 167 -174 c 0
 194 -174 224 -158 226 -135 c 0
 228 -112 206 -102 181 -102 c 0
 164 -101 136 -108 111 -118 c 1
 223 59 l 1
EndSplineSet
EndChar

StartChar: egrave
Encoding: 232 232 222
Width: 521
VWidth: 0
Flags: HMW
LayerCount: 2
Fore
SplineSet
104 206 m 1
 116 279 l 1
 395 280 l 1
 395 339 374 386 307 387 c 0
 231 389 174 329 159 257 c 1
 152 230 l 1
 140 148 169 81 249 79 c 0
 309 77 356 112 390 152 c 1
 478 113 l 1
 421 41 348 -11 236 -10 c 0
 97 -9 26 102 44 230 c 0
 46 247 50 263 55 279 c 0
 90 389 189 470 316 470 c 0
 456 470 519 367 503 235 c 0
 502 226 501 217 498 206 c 1
 104 206 l 1
210 689 m 1
 305 733 l 1
 426 571 l 1
 363 538 l 1
 210 689 l 1
EndSplineSet
EndChar

StartChar: eacute
Encoding: 233 233 223
Width: 521
VWidth: 0
Flags: HMW
LayerCount: 2
Fore
SplineSet
104 206 m 1
 116 279 l 1
 395 280 l 1
 395 339 374 386 307 387 c 0
 231 389 174 329 159 257 c 1
 152 230 l 1
 140 148 169 81 249 79 c 0
 309 77 356 112 390 152 c 1
 478 113 l 1
 421 41 348 -11 236 -10 c 0
 97 -9 26 102 44 230 c 0
 46 247 50 263 55 279 c 0
 90 389 189 470 316 470 c 0
 456 470 519 367 503 235 c 0
 502 226 501 217 498 206 c 1
 104 206 l 1
518 685 m 1
 320 539 l 1
 262 575 l 1
 433 732 l 1
 518 685 l 1
EndSplineSet
EndChar

StartChar: ecircumflex
Encoding: 234 234 224
Width: 521
VWidth: 0
Flags: HMW
LayerCount: 2
Fore
SplineSet
104 206 m 1
 116 279 l 1
 395 280 l 1
 395 339 374 386 307 387 c 0
 231 389 174 329 159 257 c 1
 152 230 l 1
 140 148 169 81 249 79 c 0
 309 77 356 112 390 152 c 1
 478 113 l 1
 421 41 348 -11 236 -10 c 0
 97 -9 26 102 44 230 c 0
 46 247 50 263 55 279 c 0
 90 389 189 470 316 470 c 0
 456 470 519 367 503 235 c 0
 502 226 501 217 498 206 c 1
 104 206 l 1
348 621 m 1
 233 531 l 1
 168 585 l 1
 360 723 l 1
 509 582 l 1
 432 530 l 1
 348 621 l 1
EndSplineSet
EndChar

StartChar: edieresis
Encoding: 235 235 225
Width: 521
VWidth: 0
Flags: HMW
LayerCount: 2
Fore
SplineSet
104 206 m 1
 116 279 l 1
 395 280 l 1
 395 339 374 386 307 387 c 0
 231 389 174 329 159 257 c 1
 152 230 l 1
 140 148 169 81 249 79 c 0
 309 77 356 112 390 152 c 1
 478 113 l 1
 421 41 348 -11 236 -10 c 0
 97 -9 26 102 44 230 c 0
 46 247 50 263 55 279 c 0
 90 389 189 470 316 470 c 0
 456 470 519 367 503 235 c 0
 502 226 501 217 498 206 c 1
 104 206 l 1
380 597 m 0
 384 631 421 662 456 661 c 0
 492 660 518 630 514 595 c 0
 510 561 473 530 438 531 c 0
 402 532 376 562 380 597 c 0
168 597 m 0
 172 631 210 662 245 661 c 0
 281 660 307 630 303 595 c 0
 299 561 261 530 226 531 c 0
 190 532 164 562 168 597 c 0
EndSplineSet
EndChar

StartChar: igrave
Encoding: 236 236 226
Width: 258
VWidth: 0
Flags: HMW
LayerCount: 2
Fore
SplineSet
127 460 m 1
 235 460 l 1
 154 0 l 1
 50 0 l 1
 127 460 l 1
57 696 m 1
 152 741 l 1
 273 578 l 1
 209 545 l 1
 57 696 l 1
EndSplineSet
EndChar

StartChar: dotlessi
Encoding: 305 305 227
Width: 258
VWidth: 0
Flags: HMW
LayerCount: 2
Fore
SplineSet
127 460 m 1
 235 460 l 1
 154 0 l 1
 50 0 l 1
 127 460 l 1
EndSplineSet
EndChar

StartChar: kgreenlandic
Encoding: 312 312 228
Width: 480
VWidth: 0
Flags: HMW
LayerCount: 2
Fore
SplineSet
113 460 m 1
 219 460 l 1
 140 0 l 1
 35 0 l 1
 113 460 l 1
379 460 m 1
 514 460 l 1
 285 267 l 1
 450 0 l 1
 325 0 l 1
 157 273 l 1
 379 460 l 1
EndSplineSet
EndChar

StartChar: iacute
Encoding: 237 237 229
Width: 258
VWidth: 0
Flags: HMW
LayerCount: 2
Fore
SplineSet
127 460 m 1
 235 460 l 1
 154 0 l 1
 50 0 l 1
 127 460 l 1
382 693 m 1
 183 546 l 1
 126 582 l 1
 297 740 l 1
 382 693 l 1
EndSplineSet
EndChar

StartChar: icircumflex
Encoding: 238 238 230
Width: 258
VWidth: 0
Flags: HMW
LayerCount: 2
Fore
SplineSet
127 460 m 1
 235 460 l 1
 154 0 l 1
 50 0 l 1
 127 460 l 1
212 628 m 1
 97 538 l 1
 32 593 l 1
 224 730 l 1
 373 589 l 1
 296 538 l 1
 212 628 l 1
EndSplineSet
EndChar

StartChar: idieresis
Encoding: 239 239 231
Width: 258
VWidth: 0
Flags: HMW
LayerCount: 2
Fore
SplineSet
127 460 m 1
 235 460 l 1
 154 0 l 1
 50 0 l 1
 127 460 l 1
246 619 m 0
 250 653 288 685 323 684 c 0
 359 683 385 652 381 617 c 0
 377 583 339 552 304 553 c 0
 268 554 242 584 246 619 c 0
35 619 m 0
 39 653 77 685 112 684 c 0
 148 683 174 652 170 617 c 0
 166 583 128 552 93 553 c 0
 57 554 31 584 35 619 c 0
EndSplineSet
EndChar

StartChar: ntilde
Encoding: 241 241 232
Width: 528
VWidth: 0
Flags: HMW
LayerCount: 2
Fore
SplineSet
225 460 m 1
 146 0 l 1
 38 0 l 1
 118 460 l 1
 225 460 l 1
375 280 m 1
 381 335 372 380 313 382 c 0
 251 384 208 335 194 281 c 1
 160 279 l 1
 179 379 250 470 356 470 c 0
 460 470 498 393 486 292 c 1
 436 0 l 1
 326 0 l 1
 375 280 l 1
163 581 m 1
 183 625 229 667 283 665 c 0
 336 664 351 616 399 618 c 0
 424 619 447 642 467 667 c 1
 516 610 l 1
 492 574 444 532 390 534 c 0
 343 536 319 584 275 582 c 0
 240 580 225 550 217 532 c 1
 163 581 l 1
EndSplineSet
EndChar

StartChar: ograve
Encoding: 242 242 233
Width: 546
VWidth: 0
Flags: HMW
LayerCount: 2
Fore
SplineSet
44 230 m 0
 64 365 183 470 323 470 c 0
 461 470 547 362 528 230 c 0
 508 95 388 -10 248 -10 c 0
 110 -10 25 98 44 230 c 0
154 230 m 0
 142 155 179 87 257 86 c 0
 336 85 405 151 418 230 c 0
 430 305 392 373 314 374 c 0
 235 375 167 309 154 230 c 0
210 696 m 1
 304 741 l 1
 425 578 l 1
 362 545 l 1
 210 696 l 1
EndSplineSet
EndChar

StartChar: oacute
Encoding: 243 243 234
Width: 546
VWidth: 0
Flags: HMW
LayerCount: 2
Fore
SplineSet
44 230 m 0
 64 365 183 470 323 470 c 0
 461 470 547 362 528 230 c 0
 508 95 388 -10 248 -10 c 0
 110 -10 25 98 44 230 c 0
154 230 m 0
 142 155 179 87 257 86 c 0
 336 85 405 151 418 230 c 0
 430 305 392 373 314 374 c 0
 235 375 167 309 154 230 c 0
521 693 m 1
 323 546 l 1
 266 582 l 1
 436 740 l 1
 521 693 l 1
EndSplineSet
EndChar

StartChar: ocircumflex
Encoding: 244 244 235
Width: 546
VWidth: 0
Flags: HMW
LayerCount: 2
Fore
SplineSet
44 230 m 0
 64 365 183 470 323 470 c 0
 461 470 547 362 528 230 c 0
 508 95 388 -10 248 -10 c 0
 110 -10 25 98 44 230 c 0
154 230 m 0
 142 155 179 87 257 86 c 0
 336 85 405 151 418 230 c 0
 430 305 392 373 314 374 c 0
 235 375 167 309 154 230 c 0
358 636 m 1
 243 546 l 1
 178 600 l 1
 370 738 l 1
 519 596 l 1
 442 545 l 1
 358 636 l 1
EndSplineSet
EndChar

StartChar: otilde
Encoding: 245 245 236
Width: 546
VWidth: 0
Flags: HMW
LayerCount: 2
Fore
SplineSet
44 230 m 0
 64 365 183 470 323 470 c 0
 461 470 547 362 528 230 c 0
 508 95 388 -10 248 -10 c 0
 110 -10 25 98 44 230 c 0
154 230 m 0
 142 155 179 87 257 86 c 0
 336 85 405 151 418 230 c 0
 430 305 392 373 314 374 c 0
 235 375 167 309 154 230 c 0
172 580 m 1
 172 626 249 665 291 665 c 0
 344 664 360 616 408 618 c 0
 433 619 456 642 476 667 c 1
 524 610 l 1
 500 574 453 532 399 534 c 0
 352 536 327 584 283 582 c 0
 248 580 234 550 226 532 c 1
 172 580 l 1
EndSplineSet
EndChar

StartChar: odieresis
Encoding: 246 246 237
Width: 546
VWidth: 0
Flags: HMW
LayerCount: 2
Fore
SplineSet
44 230 m 0
 64 365 183 470 323 470 c 0
 461 470 547 362 528 230 c 0
 508 95 388 -10 248 -10 c 0
 110 -10 25 98 44 230 c 0
154 230 m 0
 142 155 179 87 257 86 c 0
 336 85 405 151 418 230 c 0
 430 305 392 373 314 374 c 0
 235 375 167 309 154 230 c 0
391 619 m 0
 395 653 432 685 467 684 c 0
 503 683 529 652 525 617 c 0
 521 583 483 552 448 553 c 0
 412 554 387 584 391 619 c 0
179 619 m 0
 183 653 221 685 256 684 c 0
 292 683 317 652 313 617 c 0
 309 583 272 552 237 553 c 0
 201 554 175 584 179 619 c 0
EndSplineSet
EndChar

StartChar: ugrave
Encoding: 249 249 238
Width: 528
VWidth: 0
Flags: HMW
LayerCount: 2
Fore
SplineSet
328 0 m 1
 407 460 l 1
 515 460 l 1
 436 0 l 1
 328 0 l 1
179 180 m 1
 173 125 182 80 240 78 c 0
 302 76 345 125 359 179 c 1
 394 181 l 1
 375 81 303 -10 197 -10 c 0
 93 -10 55 67 67 168 c 1
 118 460 l 1
 227 460 l 1
 179 180 l 1
229 696 m 1
 324 741 l 1
 445 578 l 1
 381 545 l 1
 229 696 l 1
EndSplineSet
EndChar

StartChar: uacute
Encoding: 250 250 239
Width: 528
VWidth: 0
Flags: HMW
LayerCount: 2
Fore
SplineSet
328 0 m 1
 407 460 l 1
 515 460 l 1
 436 0 l 1
 328 0 l 1
179 180 m 1
 173 125 182 80 240 78 c 0
 302 76 345 125 359 179 c 1
 394 181 l 1
 375 81 303 -10 197 -10 c 0
 93 -10 55 67 67 168 c 1
 118 460 l 1
 227 460 l 1
 179 180 l 1
483 693 m 1
 284 546 l 1
 228 582 l 1
 399 740 l 1
 483 693 l 1
EndSplineSet
EndChar

StartChar: ucircumflex
Encoding: 251 251 240
Width: 528
VWidth: 0
Flags: HMW
LayerCount: 2
Fore
SplineSet
328 0 m 1
 407 460 l 1
 515 460 l 1
 436 0 l 1
 328 0 l 1
179 180 m 1
 173 125 182 80 240 78 c 0
 302 76 345 125 359 179 c 1
 394 181 l 1
 375 81 303 -10 197 -10 c 0
 93 -10 55 67 67 168 c 1
 118 460 l 1
 227 460 l 1
 179 180 l 1
349 636 m 1
 233 546 l 1
 168 600 l 1
 360 738 l 1
 510 596 l 1
 432 545 l 1
 349 636 l 1
EndSplineSet
EndChar

StartChar: udieresis
Encoding: 252 252 241
Width: 528
VWidth: 0
Flags: HMW
LayerCount: 2
Fore
SplineSet
328 0 m 1
 407 460 l 1
 515 460 l 1
 436 0 l 1
 328 0 l 1
179 180 m 1
 173 125 182 80 240 78 c 0
 302 76 345 125 359 179 c 1
 394 181 l 1
 375 81 303 -10 197 -10 c 0
 93 -10 55 67 67 168 c 1
 118 460 l 1
 227 460 l 1
 179 180 l 1
381 612 m 0
 385 646 421 677 456 676 c 0
 492 675 519 645 515 610 c 0
 511 576 473 545 438 546 c 0
 402 547 377 577 381 612 c 0
169 612 m 0
 173 646 210 677 245 676 c 0
 281 675 307 645 303 610 c 0
 299 576 262 545 227 546 c 0
 191 547 165 577 169 612 c 0
EndSplineSet
EndChar

StartChar: yacute
Encoding: 253 253 242
Width: 457
VWidth: 0
Flags: HMW
LayerCount: 2
Fore
SplineSet
517 460 m 1
 109 -220 l 1
 -8 -220 l 1
 159 57 l 1
 49 460 l 1
 168 460 l 1
 249 96 l 1
 197 100 l 1
 399 460 l 1
 517 460 l 1
460 693 m 1
 262 546 l 1
 205 582 l 1
 375 740 l 1
 460 693 l 1
EndSplineSet
EndChar

StartChar: thorn
Encoding: 254 254 243
Width: 571
VWidth: 0
Flags: HMW
LayerCount: 2
Fore
SplineSet
106 -220 m 1
 -3 -220 l 1
 169 780 l 1
 276 780 l 1
 106 -220 l 1
552 230 m 0
 533 94 423 -11 296 -10 c 0
 172 -9 127 106 143 230 c 0
 161 361 249 470 371 470 c 0
 498 470 569 361 552 230 c 0
441 230 m 0
 453 308 413 374 336 375 c 0
 265 376 194 311 181 230 c 0
 170 154 211 87 280 85 c 0
 358 83 428 148 441 230 c 0
EndSplineSet
EndChar

StartChar: ydieresis
Encoding: 255 255 244
Width: 457
VWidth: 0
Flags: HMW
LayerCount: 2
Fore
SplineSet
517 460 m 1
 109 -220 l 1
 -8 -220 l 1
 159 57 l 1
 49 460 l 1
 168 460 l 1
 249 96 l 1
 197 100 l 1
 399 460 l 1
 517 460 l 1
343 597 m 0
 347 631 384 662 419 661 c 0
 455 660 481 630 477 595 c 0
 473 561 436 530 401 531 c 0
 365 532 339 562 343 597 c 0
132 597 m 0
 136 631 173 662 208 661 c 0
 244 660 270 630 266 595 c 0
 262 561 224 530 189 531 c 0
 153 532 128 562 132 597 c 0
EndSplineSet
EndChar

StartChar: Amacron
Encoding: 256 256 245
Width: 669
VWidth: 0
Flags: HMW
LayerCount: 2
Fore
SplineSet
160 180 m 1
 199 279 l 1
 516 279 l 1
 521 180 l 1
 160 180 l 1
396 502 m 1
 245 245 l 1
 240 219 l 1
 107 0 l 1
 -28 0 l 1
 434 741 l 1
 640 0 l 1
 511 0 l 1
 454 213 l 1
 458 242 l 1
 396 502 l 1
270 799 m 1
 287 897 l 1
 636 897 l 1
 620 799 l 1
 270 799 l 1
EndSplineSet
EndChar

StartChar: amacron
Encoding: 257 257 246
Width: 571
VWidth: 0
Flags: HMW
LayerCount: 2
Fore
SplineSet
457 460 m 1
 562 460 l 1
 482 0 l 1
 379 0 l 1
 457 460 l 1
44 230 m 0
 63 366 173 471 300 470 c 0
 424 469 469 354 453 230 c 0
 435 99 348 -10 225 -10 c 0
 98 -10 27 99 44 230 c 0
155 230 m 0
 143 152 183 86 260 85 c 0
 331 84 401 149 414 230 c 0
 425 306 385 373 316 375 c 0
 238 377 168 312 155 230 c 0
169 538 m 1
 185 636 l 1
 536 636 l 1
 519 538 l 1
 169 538 l 1
EndSplineSet
Substitution2: "alt a" amacron.alt
EndChar

StartChar: breve
Encoding: 728 728 247
Width: 529
VWidth: 0
Flags: HMW
LayerCount: 2
Fore
SplineSet
222 850 m 1
 302 850 l 1
 302 818 315 783 365 782 c 0
 416 781 442 818 453 850 c 1
 535 849 l 1
 518 773 458 708 360 708 c 0
 264 708 218 773 222 850 c 1
EndSplineSet
EndChar

StartChar: Abreve
Encoding: 258 258 248
Width: 669
VWidth: 0
Flags: HMW
LayerCount: 2
Fore
SplineSet
160 180 m 1
 199 279 l 1
 516 279 l 1
 521 180 l 1
 160 180 l 1
396 502 m 1
 245 245 l 1
 240 219 l 1
 107 0 l 1
 -28 0 l 1
 434 741 l 1
 640 0 l 1
 511 0 l 1
 454 213 l 1
 458 242 l 1
 396 502 l 1
311 941 m 1
 391 941 l 1
 390 909 403 874 453 873 c 0
 504 872 530 910 542 941 c 1
 624 940 l 1
 606 864 546 799 448 799 c 0
 351 799 305 864 311 941 c 1
EndSplineSet
EndChar

StartChar: abreve
Encoding: 259 259 249
Width: 571
VWidth: 0
Flags: HMW
LayerCount: 2
Fore
SplineSet
457 460 m 1
 562 460 l 1
 482 0 l 1
 379 0 l 1
 457 460 l 1
44 230 m 0
 63 366 173 471 300 470 c 0
 424 469 469 354 453 230 c 0
 435 99 348 -10 225 -10 c 0
 98 -10 27 99 44 230 c 0
155 230 m 0
 143 152 183 86 260 85 c 0
 331 84 401 149 414 230 c 0
 425 306 385 373 316 375 c 0
 238 377 168 312 155 230 c 0
186 673 m 1
 266 672 l 1
 266 640 279 605 329 604 c 0
 380 603 406 640 417 672 c 1
 499 671 l 1
 481 595 421 531 323 531 c 0
 226 531 181 596 186 673 c 1
EndSplineSet
Substitution2: "alt a" abreve.alt
EndChar

StartChar: Aogonek
Encoding: 260 260 250
Width: 669
VWidth: 0
Flags: HMW
LayerCount: 2
Fore
SplineSet
160 180 m 1
 199 279 l 1
 516 279 l 1
 521 180 l 1
 160 180 l 1
396 502 m 1
 245 245 l 1
 240 219 l 1
 107 0 l 1
 -28 0 l 1
 434 741 l 1
 640 0 l 1
 511 0 l 1
 454 213 l 1
 458 242 l 1
 396 502 l 1
604 -122 m 1
 628 -182 l 1
 605 -202 575 -220 533 -220 c 0
 465 -220 421 -180 429 -119 c 0
 440 -51 515 -8 582 25 c 1
 622 0 l 1
 576 -24 526 -56 519 -98 c 0
 517 -124 526 -140 551 -142 c 0
 572 -144 590 -132 604 -122 c 1
EndSplineSet
EndChar

StartChar: aogonek
Encoding: 261 261 251
Width: 571
VWidth: 0
Flags: HMW
LayerCount: 2
Fore
SplineSet
457 460 m 1
 562 460 l 1
 482 0 l 1
 379 0 l 1
 457 460 l 1
44 230 m 0
 63 366 173 471 300 470 c 0
 424 469 469 354 453 230 c 0
 435 99 348 -10 225 -10 c 0
 98 -10 27 99 44 230 c 0
155 230 m 0
 143 152 183 86 260 85 c 0
 331 84 401 149 414 230 c 0
 425 306 385 373 316 375 c 0
 238 377 168 312 155 230 c 0
452 -122 m 1
 476 -182 l 1
 453 -202 423 -220 381 -220 c 0
 313 -220 270 -180 278 -119 c 0
 289 -51 364 -8 431 25 c 1
 470 0 l 1
 424 -24 375 -56 368 -98 c 0
 366 -124 375 -140 400 -142 c 0
 421 -144 438 -132 452 -122 c 1
EndSplineSet
Substitution2: "alt a" aogonek.alt
EndChar

StartChar: Cacute
Encoding: 262 262 252
Width: 670
VWidth: 0
Flags: HMW
LayerCount: 2
Fore
SplineSet
195 350 m 0
 175 219 248 106 380 104 c 0
 475 103 552 148 612 202 c 1
 591 62 l 1
 527 16 457 -12 364 -12 c 0
 160 -11 40 156 68 350 c 0
 99 553 272 712 480 712 c 0
 568 712 631 687 687 637 c 1
 665 497 l 1
 623 557 559 596 472 596 c 0
 338 596 218 488 195 350 c 0
646 920 m 1
 449 773 l 1
 391 810 l 1
 562 967 l 1
 646 920 l 1
EndSplineSet
EndChar

StartChar: cacute
Encoding: 263 263 253
Width: 469
VWidth: 0
Flags: HMW
LayerCount: 2
Fore
SplineSet
150 230 m 0
 138 153 179 86 260 84 c 0
 326 83 385 118 421 160 c 1
 404 41 l 1
 364 10 308 -10 246 -10 c 0
 107 -10 21 98 40 230 c 0
 61 366 180 470 321 470 c 0
 380 470 431 451 466 418 c 1
 447 299 l 1
 425 346 376 376 317 376 c 0
 235 376 164 310 150 230 c 0
487 678 m 1
 289 531 l 1
 231 567 l 1
 402 725 l 1
 487 678 l 1
EndSplineSet
EndChar

StartChar: Ccircumflex
Encoding: 264 264 254
Width: 670
VWidth: 0
Flags: HMW
LayerCount: 2
Fore
SplineSet
195 350 m 0
 175 219 248 106 380 104 c 0
 475 103 552 148 612 202 c 1
 591 62 l 1
 527 16 457 -12 364 -12 c 0
 160 -11 40 156 68 350 c 0
 99 553 272 712 480 712 c 0
 568 712 631 687 687 637 c 1
 665 497 l 1
 623 557 559 596 472 596 c 0
 338 596 218 488 195 350 c 0
513 863 m 1
 397 773 l 1
 333 827 l 1
 524 965 l 1
 674 824 l 1
 597 772 l 1
 513 863 l 1
EndSplineSet
EndChar

StartChar: ccircumflex
Encoding: 265 265 255
Width: 469
VWidth: 0
Flags: HMW
LayerCount: 2
Fore
SplineSet
150 230 m 0
 138 153 179 86 260 84 c 0
 326 83 385 118 421 160 c 1
 404 41 l 1
 364 10 308 -10 246 -10 c 0
 107 -10 21 98 40 230 c 0
 61 366 180 470 321 470 c 0
 380 470 431 451 466 418 c 1
 447 299 l 1
 425 346 376 376 317 376 c 0
 235 376 164 310 150 230 c 0
341 621 m 1
 226 531 l 1
 160 585 l 1
 352 723 l 1
 502 582 l 1
 424 530 l 1
 341 621 l 1
EndSplineSet
EndChar

StartChar: Cdotaccent
Encoding: 266 266 256
Width: 670
VWidth: 0
Flags: HMW
LayerCount: 2
Fore
SplineSet
195 350 m 0
 175 219 248 106 380 104 c 0
 475 103 552 148 612 202 c 1
 591 62 l 1
 527 16 457 -12 364 -12 c 0
 160 -11 40 156 68 350 c 0
 99 553 272 712 480 712 c 0
 568 712 631 687 687 637 c 1
 665 497 l 1
 623 557 559 596 472 596 c 0
 338 596 218 488 195 350 c 0
429 840 m 0
 433 874 470 905 505 904 c 0
 541 903 567 872 563 837 c 0
 559 803 521 772 486 773 c 0
 450 774 425 805 429 840 c 0
EndSplineSet
EndChar

StartChar: cdotaccent
Encoding: 267 267 257
Width: 469
VWidth: 0
Flags: HMW
LayerCount: 2
Fore
SplineSet
150 230 m 0
 138 153 179 86 260 84 c 0
 326 83 385 118 421 160 c 1
 404 41 l 1
 364 10 308 -10 246 -10 c 0
 107 -10 21 98 40 230 c 0
 61 366 180 470 321 470 c 0
 380 470 431 451 466 418 c 1
 447 299 l 1
 425 346 376 376 317 376 c 0
 235 376 164 310 150 230 c 0
269 600 m 0
 273 634 311 665 346 664 c 0
 382 663 407 633 403 598 c 0
 399 564 362 532 327 533 c 0
 291 534 265 565 269 600 c 0
EndSplineSet
EndChar

StartChar: Ccaron
Encoding: 268 268 258
Width: 670
VWidth: 0
Flags: HMW
LayerCount: 2
Fore
SplineSet
195 350 m 0
 175 219 248 106 380 104 c 0
 475 103 552 148 612 202 c 1
 591 62 l 1
 527 16 457 -12 364 -12 c 0
 160 -11 40 156 68 350 c 0
 99 553 272 712 480 712 c 0
 568 712 631 687 687 637 c 1
 665 497 l 1
 623 557 559 596 472 596 c 0
 338 596 218 488 195 350 c 0
508 875 m 1
 624 965 l 1
 688 910 l 1
 497 772 l 1
 347 914 l 1
 425 965 l 1
 508 875 l 1
EndSplineSet
EndChar

StartChar: ccaron
Encoding: 269 269 259
Width: 469
VWidth: 0
Flags: HMW
LayerCount: 2
Fore
SplineSet
150 230 m 0
 138 153 179 86 260 84 c 0
 326 83 385 118 421 160 c 1
 404 41 l 1
 364 10 308 -10 246 -10 c 0
 107 -10 21 98 40 230 c 0
 61 366 180 470 321 470 c 0
 380 470 431 451 466 418 c 1
 447 299 l 1
 425 346 376 376 317 376 c 0
 235 376 164 310 150 230 c 0
337 632 m 1
 452 722 l 1
 517 668 l 1
 325 530 l 1
 175 672 l 1
 253 723 l 1
 337 632 l 1
EndSplineSet
EndChar

StartChar: Dcaron
Encoding: 270 270 260
Width: 679
VWidth: 0
Flags: HMW
LayerCount: 2
Fore
SplineSet
166 700 m 1
 287 700 l 1
 167 0 l 1
 48 0 l 1
 166 700 l 1
271 0 m 1
 118 0 l 1
 138 112 l 1
 281 112 l 1
 422 115 534 204 558 350 c 0
 580 489 507 585 369 588 c 1
 218 588 l 1
 238 700 l 1
 383 700 l 1
 589 697 707 547 678 350 c 0
 646 146 482 3 271 0 c 1
457 875 m 1
 573 965 l 1
 637 910 l 1
 446 772 l 1
 296 914 l 1
 373 965 l 1
 457 875 l 1
EndSplineSet
EndChar

StartChar: dcaron
Encoding: 271 271 261
Width: 571
VWidth: 0
Flags: HMW
LayerCount: 2
Fore
SplineSet
507 780 m 1
 616 780 l 1
 482 0 l 1
 375 0 l 1
 507 780 l 1
44 230 m 0
 63 366 173 471 300 470 c 0
 424 469 469 354 453 230 c 0
 435 99 348 -10 225 -10 c 0
 98 -10 27 99 44 230 c 0
155 230 m 0
 143 152 183 86 260 85 c 0
 331 84 402 149 415 230 c 0
 426 306 385 373 316 375 c 0
 238 377 168 312 155 230 c 0
727 779 m 1
 832 747 l 1
 676 500 l 1
 598 522 l 1
 727 779 l 1
EndSplineSet
EndChar

StartChar: Dcroat
Encoding: 272 272 262
Width: 679
VWidth: 0
Flags: HMW
LayerCount: 2
Fore
SplineSet
29 305 m 1
 44 390 l 1
 354 390 l 1
 340 305 l 1
 29 305 l 1
166 700 m 1
 287 700 l 1
 167 0 l 1
 48 0 l 1
 166 700 l 1
271 0 m 1
 118 0 l 1
 138 112 l 1
 281 112 l 1
 422 115 534 204 558 350 c 0
 580 489 507 585 369 588 c 1
 218 588 l 1
 238 700 l 1
 383 700 l 1
 589 697 707 547 678 350 c 0
 646 146 482 3 271 0 c 1
EndSplineSet
EndChar

StartChar: dcroat
Encoding: 273 273 263
Width: 571
VWidth: 0
Flags: HMW
LayerCount: 2
Fore
SplineSet
358 580 m 1
 372 665 l 1
 688 665 l 1
 673 580 l 1
 358 580 l 1
507 780 m 1
 616 780 l 1
 482 0 l 1
 375 0 l 1
 507 780 l 1
44 230 m 0
 63 366 173 471 300 470 c 0
 424 469 469 354 453 230 c 0
 435 99 348 -10 225 -10 c 0
 98 -10 27 99 44 230 c 0
155 230 m 0
 143 152 183 86 260 85 c 0
 331 84 402 149 415 230 c 0
 426 306 385 373 316 375 c 0
 238 377 168 312 155 230 c 0
EndSplineSet
EndChar

StartChar: Emacron
Encoding: 274 274 264
Width: 553
VWidth: 0
Flags: HMW
LayerCount: 2
Fore
SplineSet
119 0 m 1
 137 104 l 1
 482 104 l 1
 464 0 l 1
 119 0 l 1
221 596 m 1
 239 700 l 1
 583 700 l 1
 565 596 l 1
 221 596 l 1
174 324 m 1
 192 426 l 1
 517 426 l 1
 500 323 l 1
 174 324 l 1
166 700 m 1
 282 700 l 1
 162 0 l 1
 48 0 l 1
 166 700 l 1
212 773 m 1
 229 871 l 1
 579 871 l 1
 563 772 l 1
 212 773 l 1
EndSplineSet
EndChar

StartChar: emacron
Encoding: 275 275 265
Width: 521
VWidth: 0
Flags: HMW
LayerCount: 2
Fore
SplineSet
104 206 m 1
 116 279 l 1
 395 280 l 1
 395 339 374 386 307 387 c 0
 231 389 174 329 159 257 c 1
 152 230 l 1
 140 148 169 81 249 79 c 0
 309 77 356 112 390 152 c 1
 478 113 l 1
 421 41 348 -11 236 -10 c 0
 97 -9 26 102 44 230 c 0
 46 247 50 263 55 279 c 0
 90 389 189 470 316 470 c 0
 456 470 519 367 503 235 c 0
 502 226 501 217 498 206 c 1
 104 206 l 1
155 531 m 1
 172 628 l 1
 522 628 l 1
 505 530 l 1
 155 531 l 1
EndSplineSet
EndChar

StartChar: Ebreve
Encoding: 276 276 266
Width: 553
VWidth: 0
Flags: HMW
LayerCount: 2
Fore
SplineSet
119 0 m 1
 137 104 l 1
 482 104 l 1
 464 0 l 1
 119 0 l 1
221 596 m 1
 239 700 l 1
 583 700 l 1
 565 596 l 1
 221 596 l 1
174 324 m 1
 192 426 l 1
 517 426 l 1
 500 323 l 1
 174 324 l 1
166 700 m 1
 282 700 l 1
 162 0 l 1
 48 0 l 1
 166 700 l 1
254 915 m 1
 334 915 l 1
 333 883 345 848 395 847 c 0
 446 846 473 883 485 914 c 1
 568 914 l 1
 550 838 488 773 390 773 c 0
 293 773 248 838 254 915 c 1
EndSplineSet
EndChar

StartChar: ebreve
Encoding: 277 277 267
Width: 521
VWidth: 0
Flags: HMW
LayerCount: 2
Fore
SplineSet
104 206 m 1
 116 279 l 1
 395 280 l 1
 395 339 374 386 307 387 c 0
 231 389 174 329 159 257 c 1
 152 230 l 1
 140 148 169 81 249 79 c 0
 309 77 356 112 390 152 c 1
 478 113 l 1
 421 41 348 -11 236 -10 c 0
 97 -9 26 102 44 230 c 0
 46 247 50 263 55 279 c 0
 90 389 189 470 316 470 c 0
 456 470 519 367 503 235 c 0
 502 226 501 217 498 206 c 1
 104 206 l 1
197 673 m 1
 277 673 l 1
 276 641 289 606 339 605 c 0
 390 604 415 641 427 672 c 1
 510 672 l 1
 492 597 431 531 333 531 c 0
 236 531 191 596 197 673 c 1
EndSplineSet
EndChar

StartChar: Edotaccent
Encoding: 278 278 268
Width: 553
VWidth: 0
Flags: HMW
LayerCount: 2
Fore
SplineSet
119 0 m 1
 137 104 l 1
 482 104 l 1
 464 0 l 1
 119 0 l 1
221 596 m 1
 239 700 l 1
 583 700 l 1
 565 596 l 1
 221 596 l 1
174 324 m 1
 192 426 l 1
 517 426 l 1
 500 323 l 1
 174 324 l 1
166 700 m 1
 282 700 l 1
 162 0 l 1
 48 0 l 1
 166 700 l 1
331 840 m 0
 335 874 372 905 407 904 c 0
 443 903 469 872 465 837 c 0
 461 803 423 772 388 773 c 0
 352 774 327 805 331 840 c 0
EndSplineSet
EndChar

StartChar: edotaccent
Encoding: 279 279 269
Width: 521
VWidth: 0
Flags: HMW
LayerCount: 2
Fore
SplineSet
104 206 m 1
 116 279 l 1
 395 280 l 1
 395 339 374 386 307 387 c 0
 231 389 174 329 159 257 c 1
 152 230 l 1
 140 148 169 81 249 79 c 0
 309 77 356 112 390 152 c 1
 478 113 l 1
 421 41 348 -11 236 -10 c 0
 97 -9 26 102 44 230 c 0
 46 247 50 263 55 279 c 0
 90 389 189 470 316 470 c 0
 456 470 519 367 503 235 c 0
 502 226 501 217 498 206 c 1
 104 206 l 1
274 597 m 0
 278 631 315 662 350 661 c 0
 386 660 412 630 408 595 c 0
 404 561 366 530 331 531 c 0
 295 532 270 562 274 597 c 0
EndSplineSet
EndChar

StartChar: Eogonek
Encoding: 280 280 270
Width: 553
VWidth: 0
Flags: HMW
LayerCount: 2
Fore
SplineSet
119 0 m 1
 137 104 l 1
 482 104 l 1
 464 0 l 1
 119 0 l 1
221 596 m 1
 239 700 l 1
 583 700 l 1
 565 596 l 1
 221 596 l 1
174 324 m 1
 192 426 l 1
 517 426 l 1
 500 323 l 1
 174 324 l 1
166 700 m 1
 282 700 l 1
 162 0 l 1
 48 0 l 1
 166 700 l 1
319 -122 m 1
 342 -182 l 1
 319 -202 289 -220 247 -220 c 0
 179 -220 136 -180 144 -119 c 0
 155 -51 230 -8 297 25 c 1
 337 0 l 1
 291 -24 241 -56 234 -98 c 0
 232 -124 241 -140 266 -142 c 0
 287 -144 305 -132 319 -122 c 1
EndSplineSet
EndChar

StartChar: eogonek
Encoding: 281 281 271
Width: 521
VWidth: 0
Flags: HMW
LayerCount: 2
Fore
SplineSet
104 206 m 1
 116 279 l 1
 395 280 l 1
 395 339 374 386 307 387 c 0
 231 389 174 329 159 257 c 1
 152 230 l 1
 140 148 169 81 249 79 c 0
 309 77 356 112 390 152 c 1
 478 113 l 1
 421 41 348 -11 236 -10 c 0
 97 -9 26 102 44 230 c 0
 46 247 50 263 55 279 c 0
 90 389 189 470 316 470 c 0
 456 470 519 367 503 235 c 0
 502 226 501 217 498 206 c 1
 104 206 l 1
252 -120 m 1
 276 -179 l 1
 253 -199 223 -217 181 -217 c 0
 113 -217 70 -178 78 -117 c 0
 89 -49 165 -6 232 27 c 1
 270 0 l 1
 224 -22 175 -54 168 -95 c 0
 165 -121 175 -137 200 -139 c 0
 221 -141 238 -130 252 -120 c 1
EndSplineSet
EndChar

StartChar: Ecaron
Encoding: 282 282 272
Width: 553
VWidth: 0
Flags: HMW
LayerCount: 2
Fore
SplineSet
119 0 m 1
 137 104 l 1
 482 104 l 1
 464 0 l 1
 119 0 l 1
221 596 m 1
 239 700 l 1
 583 700 l 1
 565 596 l 1
 221 596 l 1
174 324 m 1
 192 426 l 1
 517 426 l 1
 500 323 l 1
 174 324 l 1
166 700 m 1
 282 700 l 1
 162 0 l 1
 48 0 l 1
 166 700 l 1
401 875 m 1
 516 965 l 1
 581 910 l 1
 389 772 l 1
 240 914 l 1
 317 965 l 1
 401 875 l 1
EndSplineSet
EndChar

StartChar: ecaron
Encoding: 283 283 273
Width: 521
VWidth: 0
Flags: HMW
LayerCount: 2
Fore
SplineSet
104 206 m 1
 116 279 l 1
 395 280 l 1
 395 339 374 386 307 387 c 0
 231 389 174 329 159 257 c 1
 152 230 l 1
 140 148 169 81 249 79 c 0
 309 77 356 112 390 152 c 1
 478 113 l 1
 421 41 348 -11 236 -10 c 0
 97 -9 26 102 44 230 c 0
 46 247 50 263 55 279 c 0
 90 389 189 470 316 470 c 0
 456 470 519 367 503 235 c 0
 502 226 501 217 498 206 c 1
 104 206 l 1
344 632 m 1
 459 722 l 1
 524 668 l 1
 332 530 l 1
 183 672 l 1
 261 723 l 1
 344 632 l 1
EndSplineSet
EndChar

StartChar: Gcircumflex
Encoding: 284 284 274
Width: 767
VWidth: 0
Flags: HMW
LayerCount: 2
Fore
SplineSet
416 266 m 1
 434 366 l 1
 761 366 l 1
 731 167 587 -15 366 -15 c 0
 158 -15 39 154 68 350 c 0
 100 555 274 712 485 712 c 0
 609 712 703 655 756 555 c 1
 652 493 l 1
 621 561 561 601 474 601 c 0
 334 601 216 491 192 350 c 0
 171 216 240 97 380 96 c 0
 501 95 582 174 626 266 c 1
 416 266 l 1
518 863 m 1
 402 773 l 1
 338 827 l 1
 529 965 l 1
 679 824 l 1
 602 772 l 1
 518 863 l 1
EndSplineSet
EndChar

StartChar: gcircumflex
Encoding: 285 285 275
Width: 568
VWidth: 0
Flags: HMW
LayerCount: 2
Fore
SplineSet
8 -31 m 1
 113 -32 l 1
 111 -94 145 -139 217 -139 c 0
 294 -140 361 -78 376 10 c 1
 453 460 l 1
 559 460 l 1
 482 10 l 2
 459 -138 347 -233 212 -233 c 0
 74 -233 1 -151 8 -31 c 1
44 233 m 0
 63 369 173 471 300 470 c 0
 423 469 470 356 454 232 c 0
 436 101 348 -5 226 -5 c 0
 100 -5 27 102 44 233 c 0
155 232 m 0
 143 154 184 91 261 90 c 0
 331 89 402 152 415 233 c 0
 426 310 385 373 316 375 c 0
 238 377 168 313 155 232 c 0
359 621 m 1
 244 531 l 1
 179 585 l 1
 371 723 l 1
 521 582 l 1
 443 530 l 1
 359 621 l 1
EndSplineSet
EndChar

StartChar: Gbreve
Encoding: 286 286 276
Width: 767
VWidth: 0
Flags: HMW
LayerCount: 2
Fore
SplineSet
416 266 m 1
 434 366 l 1
 761 366 l 1
 731 167 587 -15 366 -15 c 0
 158 -15 39 154 68 350 c 0
 100 555 274 712 485 712 c 0
 609 712 703 655 756 555 c 1
 652 493 l 1
 621 561 561 601 474 601 c 0
 334 601 216 491 192 350 c 0
 171 216 240 97 380 96 c 0
 501 95 582 174 626 266 c 1
 416 266 l 1
366 915 m 1
 446 915 l 1
 445 883 458 848 508 847 c 0
 559 846 585 883 597 914 c 1
 679 914 l 1
 661 838 601 773 503 773 c 0
 406 773 360 838 366 915 c 1
EndSplineSet
EndChar

StartChar: gbreve
Encoding: 287 287 277
Width: 568
VWidth: 0
Flags: HMW
LayerCount: 2
Fore
SplineSet
8 -31 m 1
 113 -32 l 1
 111 -94 145 -139 217 -139 c 0
 294 -140 361 -78 376 10 c 1
 453 460 l 1
 559 460 l 1
 482 10 l 2
 459 -138 347 -233 212 -233 c 0
 74 -233 1 -151 8 -31 c 1
44 233 m 0
 63 369 173 471 300 470 c 0
 423 469 470 356 454 232 c 0
 436 101 348 -5 226 -5 c 0
 100 -5 27 102 44 233 c 0
155 232 m 0
 143 154 184 91 261 90 c 0
 331 89 402 152 415 233 c 0
 426 310 385 373 316 375 c 0
 238 377 168 313 155 232 c 0
208 673 m 1
 288 673 l 1
 287 641 300 606 350 605 c 0
 401 604 427 641 439 672 c 1
 521 672 l 1
 503 597 442 531 344 531 c 0
 247 531 202 596 208 673 c 1
EndSplineSet
EndChar

StartChar: Gdotaccent
Encoding: 288 288 278
Width: 767
VWidth: 0
Flags: HMW
LayerCount: 2
Fore
SplineSet
416 266 m 1
 434 366 l 1
 761 366 l 1
 731 167 587 -15 366 -15 c 0
 158 -15 39 154 68 350 c 0
 100 555 274 712 485 712 c 0
 609 712 703 655 756 555 c 1
 652 493 l 1
 621 561 561 601 474 601 c 0
 334 601 216 491 192 350 c 0
 171 216 240 97 380 96 c 0
 501 95 582 174 626 266 c 1
 416 266 l 1
443 840 m 0
 447 874 484 905 519 904 c 0
 555 903 582 872 578 837 c 0
 574 803 537 772 502 773 c 0
 466 774 439 805 443 840 c 0
EndSplineSet
EndChar

StartChar: gdotaccent
Encoding: 289 289 279
Width: 568
VWidth: 0
Flags: HMW
LayerCount: 2
Fore
SplineSet
8 -31 m 1
 113 -32 l 1
 111 -94 145 -139 217 -139 c 0
 294 -140 361 -78 376 10 c 1
 453 460 l 1
 559 460 l 1
 482 10 l 2
 459 -138 347 -233 212 -233 c 0
 74 -233 1 -151 8 -31 c 1
44 233 m 0
 63 369 173 471 300 470 c 0
 423 469 470 356 454 232 c 0
 436 101 348 -5 226 -5 c 0
 100 -5 27 102 44 233 c 0
155 232 m 0
 143 154 184 91 261 90 c 0
 331 89 402 152 415 233 c 0
 426 310 385 373 316 375 c 0
 238 377 168 313 155 232 c 0
297 627 m 0
 301 661 339 692 374 691 c 0
 410 690 435 660 431 625 c 0
 427 591 390 560 355 561 c 0
 319 562 293 592 297 627 c 0
EndSplineSet
EndChar

StartChar: uni0122
Encoding: 290 290 280
Width: 767
VWidth: 0
Flags: HMW
LayerCount: 2
Fore
SplineSet
416 266 m 1
 434 366 l 1
 761 366 l 1
 731 167 587 -15 366 -15 c 0
 158 -15 39 154 68 350 c 0
 100 555 274 712 485 712 c 0
 609 712 703 655 756 555 c 1
 652 493 l 1
 621 561 561 601 474 601 c 0
 334 601 216 491 192 350 c 0
 171 216 240 97 380 96 c 0
 501 95 582 174 626 266 c 1
 416 266 l 1
327 -76 m 1
 432 -108 l 1
 277 -355 l 1
 198 -333 l 1
 327 -76 l 1
EndSplineSet
EndChar

StartChar: Hcircumflex
Encoding: 292 292 281
Width: 720
VWidth: 0
Flags: HMW
LayerCount: 2
Fore
SplineSet
148 321 m 1
 167 430 l 1
 654 430 l 1
 635 321 l 1
 148 321 l 1
622 700 m 1
 742 700 l 1
 620 0 l 1
 504 0 l 1
 622 700 l 1
166 700 m 1
 285 700 l 1
 164 0 l 1
 48 0 l 1
 166 700 l 1
484 863 m 1
 369 773 l 1
 304 827 l 1
 496 965 l 1
 646 824 l 1
 568 772 l 1
 484 863 l 1
EndSplineSet
EndChar

StartChar: hcircumflex
Encoding: 293 293 282
Width: 526
VWidth: 0
Flags: HMW
LayerCount: 2
Fore
SplineSet
280 780 m 1
 146 0 l 1
 38 0 l 1
 172 780 l 1
 280 780 l 1
375 280 m 1
 381 335 371 380 313 382 c 0
 251 384 208 335 194 281 c 1
 160 281 l 1
 179 381 251 473 357 473 c 0
 462 473 496 395 484 295 c 1
 433 0 l 1
 326 0 l 1
 375 280 l 1
297 930 m 1
 181 840 l 1
 117 895 l 1
 308 1033 l 1
 458 891 l 1
 380 840 l 1
 297 930 l 1
EndSplineSet
EndChar

StartChar: Itilde
Encoding: 296 296 283
Width: 266
VWidth: 0
Flags: HMW
LayerCount: 2
Fore
SplineSet
166 700 m 1
 286 700 l 1
 165 0 l 1
 48 0 l 1
 166 700 l 1
74 823 m 1
 94 867 139 910 193 908 c 0
 246 907 262 858 310 860 c 0
 335 861 358 884 378 909 c 1
 426 852 l 1
 402 816 355 774 301 776 c 0
 254 778 229 826 185 824 c 0
 150 822 136 792 128 774 c 1
 74 823 l 1
EndSplineSet
EndChar

StartChar: itilde
Encoding: 297 297 284
Width: 258
VWidth: 0
Flags: HMW
LayerCount: 2
Fore
SplineSet
127 460 m 1
 235 460 l 1
 154 0 l 1
 50 0 l 1
 127 460 l 1
28 581 m 1
 48 625 93 667 147 665 c 0
 200 664 216 616 264 618 c 0
 289 619 312 642 332 667 c 1
 380 610 l 1
 356 574 309 532 255 534 c 0
 208 536 183 584 139 582 c 0
 104 580 90 550 82 532 c 1
 28 581 l 1
EndSplineSet
EndChar

StartChar: Imacron
Encoding: 298 298 285
Width: 266
VWidth: 0
Flags: HMW
LayerCount: 2
Fore
SplineSet
166 700 m 1
 286 700 l 1
 165 0 l 1
 48 0 l 1
 166 700 l 1
64 773 m 1
 81 871 l 1
 431 871 l 1
 414 772 l 1
 64 773 l 1
EndSplineSet
EndChar

StartChar: imacron
Encoding: 299 299 286
Width: 258
VWidth: 0
Flags: HMW
LayerCount: 2
Fore
SplineSet
127 460 m 1
 235 460 l 1
 154 0 l 1
 50 0 l 1
 127 460 l 1
18 531 m 1
 35 628 l 1
 385 628 l 1
 368 530 l 1
 18 531 l 1
EndSplineSet
EndChar

StartChar: Ibreve
Encoding: 300 300 287
Width: 266
VWidth: 0
Flags: HMW
LayerCount: 2
Fore
SplineSet
166 700 m 1
 286 700 l 1
 165 0 l 1
 48 0 l 1
 166 700 l 1
106 915 m 1
 186 915 l 1
 185 883 198 848 248 847 c 0
 299 846 325 883 337 914 c 1
 419 914 l 1
 401 839 340 773 242 773 c 0
 145 773 100 838 106 915 c 1
EndSplineSet
EndChar

StartChar: ibreve
Encoding: 301 301 288
Width: 258
VWidth: 0
Flags: HMW
LayerCount: 2
Fore
SplineSet
127 460 m 1
 235 460 l 1
 154 0 l 1
 50 0 l 1
 127 460 l 1
60 673 m 1
 139 673 l 1
 138 641 151 606 201 605 c 0
 252 604 279 641 291 672 c 1
 373 672 l 1
 355 597 294 531 196 531 c 0
 99 531 54 596 60 673 c 1
EndSplineSet
EndChar

StartChar: Iogonek
Encoding: 302 302 289
Width: 266
VWidth: 0
Flags: HMW
LayerCount: 2
Fore
SplineSet
166 700 m 1
 286 700 l 1
 165 0 l 1
 48 0 l 1
 166 700 l 1
138 -121 m 1
 161 -181 l 1
 138 -201 109 -219 67 -219 c 0
 -1 -219 -45 -180 -37 -119 c 0
 -27 -51 49 -8 116 25 c 1
 156 0 l 1
 110 -23 60 -55 53 -97 c 0
 50 -123 60 -139 85 -141 c 0
 106 -143 124 -131 138 -121 c 1
EndSplineSet
EndChar

StartChar: iogonek
Encoding: 303 303 290
Width: 258
VWidth: 0
Flags: HMW
LayerCount: 2
Fore
SplineSet
145 644 m 0
 149 678 186 709 221 708 c 0
 257 707 283 677 279 642 c 0
 275 608 238 577 203 578 c 0
 167 579 141 609 145 644 c 0
127 460 m 1
 235 460 l 1
 154 0 l 1
 50 0 l 1
 127 460 l 1
127 -122 m 1
 151 -182 l 1
 128 -202 98 -220 56 -220 c 0
 -12 -220 -56 -180 -48 -119 c 0
 -37 -51 39 -8 106 25 c 1
 145 0 l 1
 99 -24 49 -56 42 -98 c 0
 40 -124 49 -140 74 -142 c 0
 95 -144 113 -132 127 -122 c 1
EndSplineSet
EndChar

StartChar: Idotaccent
Encoding: 304 304 291
Width: 266
VWidth: 0
Flags: HMW
LayerCount: 2
Fore
SplineSet
166 700 m 1
 286 700 l 1
 165 0 l 1
 48 0 l 1
 166 700 l 1
182 840 m 0
 186 874 223 905 258 904 c 0
 294 903 320 872 316 837 c 0
 312 803 275 772 240 773 c 0
 204 774 178 805 182 840 c 0
EndSplineSet
EndChar

StartChar: uni0136
Encoding: 310 310 292
Width: 601
VWidth: 0
Flags: HMW
LayerCount: 2
Fore
SplineSet
166 700 m 1
 288 700 l 1
 167 0 l 1
 48 0 l 1
 166 700 l 1
535 700 m 1
 680 700 l 1
 333 369 l 1
 570 0 l 1
 432 0 l 1
 195 372 l 1
 535 700 l 1
277 -61 m 1
 383 -93 l 1
 227 -340 l 1
 148 -318 l 1
 277 -61 l 1
EndSplineSet
EndChar

StartChar: uni0137
Encoding: 311 311 293
Width: 480
VWidth: 0
Flags: HMW
LayerCount: 2
Fore
SplineSet
168 780 m 1
 274 780 l 1
 140 0 l 1
 35 0 l 1
 168 780 l 1
379 460 m 1
 514 460 l 1
 285 267 l 1
 450 0 l 1
 325 0 l 1
 157 273 l 1
 379 460 l 1
211 -61 m 1
 316 -93 l 1
 160 -340 l 1
 82 -318 l 1
 211 -61 l 1
EndSplineSet
EndChar

StartChar: Lacute
Encoding: 313 313 294
Width: 466
VWidth: 0
Flags: HMW
LayerCount: 2
Fore
SplineSet
167 700 m 1
 285 700 l 1
 183 107 l 1
 452 107 l 1
 434 0 l 1
 47 0 l 1
 167 700 l 1
538 920 m 1
 339 773 l 1
 281 810 l 1
 453 967 l 1
 538 920 l 1
EndSplineSet
EndChar

StartChar: lacute
Encoding: 314 314 295
Width: 238
VWidth: 0
Flags: HMW
LayerCount: 2
Fore
SplineSet
172 780 m 1
 280 780 l 1
 146 0 l 1
 39 0 l 1
 172 780 l 1
401 987 m 1
 203 841 l 1
 145 877 l 1
 316 1034 l 1
 401 987 l 1
EndSplineSet
EndChar

StartChar: uni013B
Encoding: 315 315 296
Width: 466
VWidth: 0
Flags: HMW
LayerCount: 2
Fore
SplineSet
167 700 m 1
 285 700 l 1
 183 107 l 1
 452 107 l 1
 434 0 l 1
 47 0 l 1
 167 700 l 1
218 -61 m 1
 323 -93 l 1
 167 -340 l 1
 89 -318 l 1
 218 -61 l 1
EndSplineSet
EndChar

StartChar: uni013C
Encoding: 316 316 297
Width: 238
VWidth: 0
Flags: HMW
LayerCount: 2
Fore
SplineSet
172 780 m 1
 280 780 l 1
 146 0 l 1
 39 0 l 1
 172 780 l 1
70 -61 m 1
 175 -93 l 1
 19 -340 l 1
 -59 -318 l 1
 70 -61 l 1
EndSplineSet
EndChar

StartChar: Lcaron
Encoding: 317 317 298
Width: 466
VWidth: 0
Flags: HMW
LayerCount: 2
Fore
SplineSet
167 700 m 1
 285 700 l 1
 183 107 l 1
 452 107 l 1
 434 0 l 1
 47 0 l 1
 167 700 l 1
444 711 m 1
 549 680 l 1
 393 433 l 1
 315 455 l 1
 444 711 l 1
EndSplineSet
EndChar

StartChar: lcaron
Encoding: 318 318 299
Width: 238
VWidth: 0
Flags: HMW
LayerCount: 2
Fore
SplineSet
172 780 m 1
 280 780 l 1
 146 0 l 1
 39 0 l 1
 172 780 l 1
410 779 m 1
 516 747 l 1
 360 500 l 1
 281 522 l 1
 410 779 l 1
EndSplineSet
EndChar

StartChar: Ldot
Encoding: 319 319 300
Width: 466
VWidth: 0
Flags: HMW
LayerCount: 2
Fore
SplineSet
167 700 m 1
 285 700 l 1
 183 107 l 1
 452 107 l 1
 434 0 l 1
 47 0 l 1
 167 700 l 1
318 422 m 0
 322 458 361 492 398 491 c 0
 436 490 462 457 458 420 c 0
 454 384 415 351 378 352 c 0
 340 353 314 385 318 422 c 0
EndSplineSet
EndChar

StartChar: ldot
Encoding: 320 320 301
Width: 400
VWidth: 0
Flags: HMW
LayerCount: 2
Fore
SplineSet
172 780 m 1
 280 780 l 1
 146 0 l 1
 39 0 l 1
 172 780 l 1
266 414 m 0
 270 450 308 483 345 482 c 0
 383 481 409 449 405 412 c 0
 401 376 363 342 326 343 c 0
 288 344 262 377 266 414 c 0
EndSplineSet
EndChar

StartChar: eth
Encoding: 240 240 302
Width: 594
VWidth: 0
Flags: HMW
LayerCount: 2
Fore
SplineSet
448 236 m 0
 460 311 420 381 339 382 c 0
 257 383 188 316 175 236 c 0
 163 160 203 93 283 92 c 0
 365 91 435 156 448 236 c 0
365 699 m 1
 530 402 l 2
 556 352 569 296 561 236 c 0
 540 91 418 -12 273 -12 c 0
 131 -12 40 95 60 237 c 0
 78 361 185 463 302 464 c 0
 346 464 376 452 406 420 c 1
 391 424 l 1
 222 699 l 1
 365 699 l 1
205 520 m 1
 216 590 l 1
 563 590 l 1
 551 520 l 1
 205 520 l 1
EndSplineSet
EndChar

StartChar: racute
Encoding: 341 341 303
Width: 358
VWidth: 0
Flags: HMW
LayerCount: 2
Fore
SplineSet
224 460 m 1
 145 0 l 1
 38 0 l 1
 118 460 l 1
 224 460 l 1
338 345 m 1
 321 359 307 368 284 368 c 0
 228 369 200 314 189 259 c 1
 156 281 l 1
 173 374 239 470 323 470 c 0
 356 470 381 458 403 435 c 1
 338 345 l 1
439 678 m 1
 240 531 l 1
 184 567 l 1
 355 725 l 1
 439 678 l 1
EndSplineSet
EndChar

StartChar: rcaron
Encoding: 345 345 304
Width: 358
VWidth: 0
Flags: HMW
LayerCount: 2
Fore
SplineSet
224 460 m 1
 145 0 l 1
 38 0 l 1
 118 460 l 1
 224 460 l 1
338 345 m 1
 321 359 307 368 284 368 c 0
 228 369 200 314 189 259 c 1
 156 281 l 1
 173 374 239 470 323 470 c 0
 356 470 381 458 403 435 c 1
 338 345 l 1
288 633 m 1
 404 723 l 1
 468 668 l 1
 276 531 l 1
 127 672 l 1
 205 723 l 1
 288 633 l 1
EndSplineSet
EndChar

StartChar: Rcaron
Encoding: 344 344 305
Width: 577
VWidth: 0
Flags: HMW
LayerCount: 2
Fore
SplineSet
246 334 m 1
 369 334 l 1
 542 0 l 1
 406 0 l 1
 246 334 l 1
166 700 m 1
 285 700 l 1
 164 0 l 1
 48 0 l 1
 166 700 l 1
218 597 m 1
 236 700 l 1
 374 700 l 1
 513 698 606 612 586 482 c 0
 566 350 451 267 307 265 c 1
 160 265 l 1
 178 362 l 1
 312 362 l 1
 389 364 453 407 466 480 c 0
 478 551 432 595 358 597 c 1
 218 597 l 1
389 875 m 1
 505 965 l 1
 569 910 l 1
 378 772 l 1
 228 914 l 1
 306 965 l 1
 389 875 l 1
EndSplineSet
EndChar

StartChar: uni0213
Encoding: 531 531 306
Width: 358
VWidth: 0
Flags: HMW
LayerCount: 2
Fore
SplineSet
224 460 m 1
 145 0 l 1
 38 0 l 1
 118 460 l 1
 224 460 l 1
338 345 m 1
 321 359 307 368 284 368 c 0
 228 369 200 314 189 259 c 1
 156 281 l 1
 173 374 239 470 323 470 c 0
 356 470 381 458 403 435 c 1
 338 345 l 1
118 530 m 1
 199 531 l 1
 211 563 236 600 287 599 c 0
 338 598 353 564 353 530 c 1
 429 531 l 1
 438 606 399 672 302 673 c 0
 202 674 140 605 118 530 c 1
EndSplineSet
EndChar

StartChar: uni0212
Encoding: 530 530 307
Width: 577
VWidth: 0
Flags: HMW
LayerCount: 2
Fore
SplineSet
246 334 m 1
 369 334 l 1
 542 0 l 1
 406 0 l 1
 246 334 l 1
166 700 m 1
 285 700 l 1
 164 0 l 1
 48 0 l 1
 166 700 l 1
218 597 m 1
 236 700 l 1
 374 700 l 1
 513 698 606 612 586 482 c 0
 566 350 451 267 307 265 c 1
 160 265 l 1
 178 362 l 1
 312 362 l 1
 389 364 453 407 466 480 c 0
 478 551 432 595 358 597 c 1
 218 597 l 1
235 772 m 1
 317 773 l 1
 329 805 354 842 405 841 c 0
 456 840 470 806 470 772 c 1
 546 772 l 1
 555 847 517 913 420 914 c 0
 320 915 257 847 235 772 c 1
EndSplineSet
EndChar

StartChar: OE
Encoding: 338 338 308
Width: 955
VWidth: 0
Flags: HMW
LayerCount: 2
Fore
SplineSet
573 324 m 1
 591 426 l 1
 930 426 l 1
 912 323 l 1
 573 324 l 1
573 670 m 1
 690 670 l 1
 579 30 l 1
 465 30 l 1
 573 670 l 1
893 104 m 1
 876 0 l 1
 355 0 l 1
 156 4 40 157 68 350 c 0
 99 551 263 697 467 700 c 1
 995 700 l 1
 977 596 l 1
 630 596 l 1
 612 592 l 1
 469 592 l 1
 321 589 212 493 188 350 c 0
 166 214 235 111 379 108 c 1
 520 108 l 1
 542 104 l 1
 893 104 l 1
EndSplineSet
EndChar

StartChar: oe
Encoding: 339 339 309
Width: 873
VWidth: 0
Flags: HMW
LayerCount: 2
Fore
SplineSet
743 250 m 2
 752 318 736 385 659 387 c 0
 586 389 526 332 511 260 c 1
 503 230 l 1
 491 150 518 80 600 78 c 0
 660 77 706 112 741 152 c 1
 828 113 l 1
 775 45 698 -10 601 -10 c 0
 472 -9 412 107 428 230 c 0
 430 247 435 263 440 279 c 0
 474 386 570 471 688 470 c 0
 808 469 868 358 854 234 c 0
 853 225 850 215 848 206 c 1
 740 231 l 1
 743 250 l 2
475 206 m 1
 487 279 l 1
 840 279 l 1
 847 205 l 1
 475 206 l 1
45 230 m 0
 64 366 175 470 305 470 c 0
 435 470 482 357 466 230 c 0
 447 97 359 -10 230 -10 c 0
 100 -10 27 99 45 230 c 0
152 230 m 0
 140 152 179 87 256 86 c 0
 328 85 390 149 402 230 c 0
 412 305 384 372 313 374 c 0
 235 376 165 313 152 230 c 0
EndSplineSet
EndChar

StartChar: a.alt
Encoding: 65536 -1 310
Width: 492
VWidth: 0
Flags: HMW
LayerCount: 2
Fore
SplineSet
129 136 m 0
 123 95 157 74 198 73 c 0
 270 71 322 112 339 182 c 1
 346 129 l 1
 326 44 252 -10 158 -10 c 0
 71 -10 9 44 21 132 c 0
 36 228 127 283 236 283 c 0
 303 283 353 254 379 226 c 1
 371 171 l 1
 334 199 296 213 247 213 c 0
 187 213 136 186 129 136 c 0
143 338 m 1
 111 417 l 1
 162 444 226 471 301 471 c 0
 400 471 482 421 468 328 c 1
 411 0 l 1
 306 0 l 1
 362 315 l 1
 369 356 335 380 288 382 c 0
 229 384 177 356 143 338 c 1
EndSplineSet
EndChar

StartChar: Jcircumflex
Encoding: 308 308 312
Width: 267
VWidth: 0
Flags: HMW
LayerCount: 2
Fore
SplineSet
-112 -88 m 1
 -95 -108 -72 -123 -41 -122 c 0
 -3 -121 32 -87 40 -36 c 1
 167 700 l 1
 287 700 l 1
 159 -58 l 2
 141 -166 59 -228 -48 -227 c 0
 -105 -227 -155 -201 -186 -174 c 1
 -112 -88 l 1
257 863 m 1
 142 773 l 1
 77 827 l 1
 269 965 l 1
 419 824 l 1
 341 772 l 1
 257 863 l 1
EndSplineSet
EndChar

StartChar: jcircumflex
Encoding: 309 309 313
Width: 250
VWidth: 0
Flags: HMW
LayerCount: 2
Fore
SplineSet
-70 -99 m 1
 -59 -115 -45 -125 -28 -125 c 0
 7 -125 28 -89 34 -44 c 1
 121 460 l 1
 227 460 l 1
 137 -65 l 2
 122 -159 63 -228 -34 -227 c 0
 -80 -227 -110 -206 -131 -182 c 1
 -70 -99 l 1
204 621 m 1
 89 531 l 1
 23 585 l 1
 216 723 l 1
 364 582 l 1
 287 530 l 1
 204 621 l 1
EndSplineSet
EndChar

StartChar: Nacute
Encoding: 323 323 314
Width: 758
VWidth: 0
Flags: HMW
LayerCount: 2
Fore
SplineSet
663 700 m 1
 778 700 l 1
 652 -34 l 1
 243 470 l 1
 162 0 l 1
 47 0 l 1
 172 734 l 1
 581 230 l 1
 663 700 l 1
667 905 m 1
 469 758 l 1
 411 795 l 1
 582 952 l 1
 667 905 l 1
EndSplineSet
EndChar

StartChar: nacute
Encoding: 324 324 315
Width: 528
VWidth: 0
Flags: HMW
LayerCount: 2
Fore
SplineSet
225 460 m 1
 146 0 l 1
 38 0 l 1
 118 460 l 1
 225 460 l 1
375 280 m 1
 381 335 372 380 313 382 c 0
 251 384 208 335 194 281 c 1
 167 279 l 1
 185 379 250 470 356 470 c 0
 460 470 498 393 486 292 c 1
 436 0 l 1
 326 0 l 1
 375 280 l 1
499 678 m 1
 302 531 l 1
 245 567 l 1
 415 725 l 1
 499 678 l 1
EndSplineSet
EndChar

StartChar: uni0145
Encoding: 325 325 316
Width: 758
VWidth: 0
Flags: HMW
LayerCount: 2
Fore
SplineSet
337 -43 m 1
 441 -76 l 1
 286 -323 l 1
 208 -300 l 1
 337 -43 l 1
663 700 m 1
 778 700 l 1
 652 -34 l 1
 243 470 l 1
 162 0 l 1
 47 0 l 1
 172 734 l 1
 581 230 l 1
 663 700 l 1
EndSplineSet
EndChar

StartChar: uni0146
Encoding: 326 326 317
Width: 528
VWidth: 0
Flags: HMW
LayerCount: 2
Fore
SplineSet
225 460 m 1
 146 0 l 1
 38 0 l 1
 118 460 l 1
 225 460 l 1
375 280 m 1
 381 335 372 380 313 382 c 0
 251 384 208 335 194 281 c 1
 160 279 l 1
 179 379 250 470 356 470 c 0
 460 470 498 393 486 292 c 1
 436 0 l 1
 326 0 l 1
 375 280 l 1
214 -61 m 1
 320 -93 l 1
 164 -340 l 1
 85 -318 l 1
 214 -61 l 1
EndSplineSet
EndChar

StartChar: Ncaron
Encoding: 327 327 318
Width: 758
VWidth: 0
Flags: HMW
LayerCount: 2
Fore
SplineSet
500 890 m 1
 615 980 l 1
 680 925 l 1
 488 788 l 1
 339 929 l 1
 417 980 l 1
 500 890 l 1
663 700 m 1
 778 700 l 1
 652 -34 l 1
 243 470 l 1
 162 0 l 1
 47 0 l 1
 172 734 l 1
 581 230 l 1
 663 700 l 1
EndSplineSet
EndChar

StartChar: ncaron
Encoding: 328 328 319
Width: 528
VWidth: 0
Flags: HMW
LayerCount: 2
Fore
SplineSet
225 460 m 1
 146 0 l 1
 38 0 l 1
 118 460 l 1
 225 460 l 1
375 280 m 1
 381 335 372 380 313 382 c 0
 251 384 208 335 194 281 c 1
 160 279 l 1
 179 379 250 470 356 470 c 0
 460 470 498 393 486 292 c 1
 436 0 l 1
 326 0 l 1
 375 280 l 1
342 632 m 1
 457 722 l 1
 522 668 l 1
 330 530 l 1
 181 672 l 1
 258 723 l 1
 342 632 l 1
EndSplineSet
EndChar

StartChar: Omacron
Encoding: 332 332 320
Width: 777
VWidth: 0
Flags: HMW
LayerCount: 2
Fore
SplineSet
192 350 m 0
 172 223 237 102 376 101 c 0
 517 100 629 215 652 350 c 0
 672 478 608 598 468 599 c 0
 327 600 215 485 192 350 c 0
68 350 m 0
 99 551 272 712 480 712 c 0
 685 712 805 543 777 350 c 0
 746 149 573 -15 363 -15 c 0
 157 -15 40 157 68 350 c 0
320 773 m 1
 336 871 l 1
 687 871 l 1
 670 772 l 1
 320 773 l 1
EndSplineSet
EndChar

StartChar: omacron
Encoding: 333 333 321
Width: 546
VWidth: 0
Flags: HMW
LayerCount: 2
Fore
SplineSet
44 230 m 0
 64 365 183 470 323 470 c 0
 461 470 547 362 528 230 c 0
 508 95 388 -10 248 -10 c 0
 110 -10 25 98 44 230 c 0
154 230 m 0
 142 155 179 87 257 86 c 0
 336 85 405 151 418 230 c 0
 430 305 392 373 314 374 c 0
 235 375 167 309 154 230 c 0
163 531 m 1
 179 628 l 1
 529 628 l 1
 512 530 l 1
 163 531 l 1
EndSplineSet
EndChar

StartChar: Obreve
Encoding: 334 334 322
Width: 777
VWidth: 0
Flags: HMW
LayerCount: 2
Fore
SplineSet
192 350 m 0
 172 223 237 102 376 101 c 0
 517 100 629 215 652 350 c 0
 672 478 608 598 468 599 c 0
 327 600 215 485 192 350 c 0
68 350 m 0
 99 551 272 712 480 712 c 0
 685 712 805 543 777 350 c 0
 746 149 573 -15 363 -15 c 0
 157 -15 40 157 68 350 c 0
362 915 m 1
 442 915 l 1
 441 883 453 848 503 847 c 0
 554 846 581 883 593 914 c 1
 675 914 l 1
 657 839 595 773 497 773 c 0
 400 773 356 838 362 915 c 1
EndSplineSet
EndChar

StartChar: obreve
Encoding: 335 335 323
Width: 546
VWidth: 0
Flags: HMW
LayerCount: 2
Fore
SplineSet
44 230 m 0
 64 365 183 470 323 470 c 0
 461 470 547 362 528 230 c 0
 508 95 388 -10 248 -10 c 0
 110 -10 25 98 44 230 c 0
154 230 m 0
 142 155 179 87 257 86 c 0
 336 85 405 151 418 230 c 0
 430 305 392 373 314 374 c 0
 235 375 167 309 154 230 c 0
204 673 m 1
 284 673 l 1
 283 641 296 606 346 605 c 0
 397 604 423 641 435 672 c 1
 517 672 l 1
 499 597 438 531 340 531 c 0
 243 531 198 596 204 673 c 1
EndSplineSet
EndChar

StartChar: Racute
Encoding: 340 340 324
Width: 577
VWidth: 0
Flags: HMW
LayerCount: 2
Fore
SplineSet
246 334 m 1
 369 334 l 1
 542 0 l 1
 406 0 l 1
 246 334 l 1
166 700 m 1
 285 700 l 1
 164 0 l 1
 48 0 l 1
 166 700 l 1
218 597 m 1
 236 700 l 1
 374 700 l 1
 513 698 606 612 586 482 c 0
 566 350 451 267 307 265 c 1
 160 265 l 1
 178 362 l 1
 312 362 l 1
 389 364 453 407 466 480 c 0
 478 551 432 595 358 597 c 1
 218 597 l 1
549 920 m 1
 351 773 l 1
 293 810 l 1
 465 967 l 1
 549 920 l 1
EndSplineSet
EndChar

StartChar: uni0156
Encoding: 342 342 325
Width: 577
VWidth: 0
Flags: HMW
LayerCount: 2
Fore
SplineSet
246 334 m 1
 369 334 l 1
 542 0 l 1
 406 0 l 1
 246 334 l 1
166 700 m 1
 285 700 l 1
 164 0 l 1
 48 0 l 1
 166 700 l 1
218 597 m 1
 236 700 l 1
 374 700 l 1
 513 698 606 612 586 482 c 0
 566 350 451 267 307 265 c 1
 160 265 l 1
 178 362 l 1
 312 362 l 1
 389 364 453 407 466 480 c 0
 478 551 432 595 358 597 c 1
 218 597 l 1
273 -61 m 1
 378 -93 l 1
 223 -340 l 1
 144 -318 l 1
 273 -61 l 1
EndSplineSet
EndChar

StartChar: uni0157
Encoding: 343 343 326
Width: 358
VWidth: 0
Flags: HMW
LayerCount: 2
Fore
SplineSet
224 460 m 1
 145 0 l 1
 38 0 l 1
 118 460 l 1
 224 460 l 1
338 345 m 1
 321 359 307 368 284 368 c 0
 228 369 200 314 189 259 c 1
 156 281 l 1
 173 374 239 470 323 470 c 0
 356 470 381 458 403 435 c 1
 338 345 l 1
69 -61 m 1
 174 -93 l 1
 19 -340 l 1
 -60 -318 l 1
 69 -61 l 1
EndSplineSet
EndChar

StartChar: Scedilla
Encoding: 350 350 327
Width: 561
VWidth: 0
Flags: HMW
LayerCount: 2
Fore
SplineSet
136 236 m 1
 164 157 200 93 282 93 c 0
 347 93 394 130 405 188 c 0
 419 263 347 295 280 323 c 0
 203 356 119 410 134 526 c 0
 151 637 253 712 378 712 c 0
 492 712 554 645 582 560 c 1
 484 505 l 1
 462 558 426 605 362 605 c 0
 306 605 264 571 255 522 c 0
 243 458 323 430 388 403 c 0
 472 367 542 302 528 192 c 0
 510 67 401 -15 267 -15 c 0
 149 -15 69 68 39 178 c 1
 136 236 l 1
268 59 m 1
 350 57 l 1
 257 -58 l 1
 263 -57 269 -56 275 -56 c 0
 315 -59 348 -92 342 -141 c 0
 334 -202 272 -239 215 -240 c 0
 172 -241 142 -226 109 -200 c 1
 153 -151 l 1
 172 -165 190 -174 212 -174 c 0
 239 -174 270 -158 272 -135 c 0
 274 -112 252 -102 227 -102 c 0
 210 -101 181 -108 156 -118 c 1
 268 59 l 1
EndSplineSet
EndChar

StartChar: scedilla
Encoding: 351 351 328
Width: 411
VWidth: 0
Flags: HMW
LayerCount: 2
Fore
SplineSet
82 167 m 1
 116 117 155 78 200 78 c 0
 233 78 267 95 272 126 c 0
 280 169 232 187 190 205 c 0
 129 232 71 264 82 344 c 0
 94 426 174 470 255 470 c 0
 326 470 383 437 419 389 c 1
 352 326 l 1
 328 357 292 385 254 385 c 0
 222 385 189 373 184 344 c 0
 176 302 239 288 279 271 c 0
 340 244 390 203 381 130 c 0
 369 36 292 -13 200 -13 c 0
 113 -13 51 39 12 106 c 1
 82 167 l 1
199 61 m 1
 282 60 l 1
 189 -56 l 1
 194 -55 200 -54 206 -54 c 0
 246 -57 279 -90 274 -139 c 0
 267 -201 202 -237 145 -237 c 0
 103 -237 72 -224 40 -198 c 1
 83 -148 l 1
 102 -162 121 -172 143 -172 c 0
 170 -172 200 -157 202 -134 c 0
 204 -111 182 -100 157 -100 c 0
 140 -99 113 -106 88 -116 c 1
 199 61 l 1
EndSplineSet
EndChar

StartChar: Zcaron
Encoding: 381 381 329
Width: 557
VWidth: 0
Flags: HMW
LayerCount: 2
Fore
SplineSet
115 591 m 1
 135 700 l 1
 636 700 l 1
 193 107 l 1
 509 107 l 1
 489 0 l 1
 -18 0 l 1
 424 590 l 1
 115 591 l 1
411 875 m 1
 526 965 l 1
 591 910 l 1
 400 772 l 1
 250 914 l 1
 327 965 l 1
 411 875 l 1
EndSplineSet
EndChar

StartChar: zcaron
Encoding: 382 382 330
Width: 467
VWidth: 0
Flags: HMW
LayerCount: 2
Fore
SplineSet
330 632 m 1
 446 722 l 1
 510 668 l 1
 318 530 l 1
 169 672 l 1
 247 722 l 1
 330 632 l 1
306 359 m 1
 82 360 l 1
 99 460 l 1
 511 460 l 1
 194 101 l 1
 424 101 l 1
 406 0 l 1
 -16 0 l 1
 306 359 l 1
EndSplineSet
EndChar

StartChar: Ydieresis
Encoding: 376 376 331
Width: 582
VWidth: 0
Flags: HMW
LayerCount: 2
Fore
SplineSet
229 844 m 0
 233 878 269 909 304 908 c 0
 340 907 367 877 363 842 c 0
 359 808 321 777 286 778 c 0
 250 779 225 809 229 844 c 0
455 844 m 0
 459 878 495 909 530 908 c 0
 566 907 593 877 589 842 c 0
 585 808 547 777 512 778 c 0
 476 779 451 809 455 844 c 0
540 700 m 1
 676 700 l 1
 374 292 l 1
 324 0 l 1
 205 0 l 1
 257 298 l 1
 96 700 l 1
 226 700 l 1
 331 403 l 1
 540 700 l 1
EndSplineSet
EndChar

StartChar: Scaron
Encoding: 352 352 332
Width: 561
VWidth: 0
Flags: HMW
LayerCount: 2
Fore
SplineSet
136 236 m 1
 164 157 200 93 282 93 c 0
 347 93 394 130 405 188 c 0
 419 263 347 294 280 323 c 0
 204 356 120 419 135 529 c 0
 152 640 259 712 378 712 c 0
 491 712 559 641 582 560 c 1
 483 504 l 1
 462 557 434 604 370 605 c 0
 313 605 264 572 255 522 c 0
 243 459 323 430 388 403 c 0
 472 367 542 302 528 192 c 0
 510 66 405 -15 267 -15 c 0
 149 -15 69 68 39 178 c 1
 136 236 l 1
406 875 m 1
 521 965 l 1
 586 910 l 1
 394 772 l 1
 245 914 l 1
 322 965 l 1
 406 875 l 1
EndSplineSet
EndChar

StartChar: scaron
Encoding: 353 353 333
Width: 411
VWidth: 0
Flags: HMW
LayerCount: 2
Fore
SplineSet
84 166 m 1
 108 115 146 78 197 78 c 0
 233 78 266 94 272 126 c 0
 280 169 222 189 180 208 c 0
 122 236 68 273 78 345 c 0
 90 425 174 470 255 470 c 0
 326 470 389 438 419 388 c 1
 352 325 l 1
 327 356 290 380 251 380 c 0
 220 380 186 367 182 338 c 0
 176 302 240 284 279 267 c 0
 339 240 390 198 381 130 c 0
 369 34 290 -13 193 -13 c 0
 106 -13 39 36 12 104 c 1
 84 166 l 1
282 627 m 1
 398 718 l 1
 463 663 l 1
 271 525 l 1
 121 667 l 1
 199 718 l 1
 282 627 l 1
EndSplineSet
EndChar

StartChar: Lslash
Encoding: 321 321 334
Width: 469
VWidth: 0
Flags: HMW
LayerCount: 2
Fore
SplineSet
35 328 m 1
 18 392 l 1
 350 590 l 1
 368 527 l 1
 35 328 l 1
167 700 m 1
 285 700 l 1
 183 107 l 1
 452 107 l 1
 434 0 l 1
 47 0 l 1
 167 700 l 1
EndSplineSet
EndChar

StartChar: lslash
Encoding: 322 322 335
Width: 238
VWidth: 0
Flags: HMW
LayerCount: 2
Fore
SplineSet
31 328 m 1
 13 392 l 1
 317 568 l 1
 334 504 l 1
 31 328 l 1
172 780 m 1
 280 780 l 1
 146 0 l 1
 39 0 l 1
 172 780 l 1
EndSplineSet
EndChar

StartChar: uni0218
Encoding: 536 536 336
Width: 561
VWidth: 0
Flags: HMW
LayerCount: 2
Fore
SplineSet
136 236 m 1
 164 157 200 93 282 93 c 0
 347 93 394 130 405 188 c 0
 419 263 347 294 280 323 c 0
 204 356 120 419 135 529 c 0
 152 640 259 712 378 712 c 0
 491 712 559 641 582 560 c 1
 483 504 l 1
 462 557 434 604 370 605 c 0
 313 605 264 572 255 522 c 0
 243 459 323 430 388 403 c 0
 472 367 542 302 528 192 c 0
 510 66 405 -15 267 -15 c 0
 149 -15 69 68 39 178 c 1
 136 236 l 1
231 -71 m 1
 337 -103 l 1
 181 -350 l 1
 102 -328 l 1
 231 -71 l 1
EndSplineSet
EndChar

StartChar: uni0219
Encoding: 537 537 337
Width: 411
VWidth: 0
Flags: HMW
LayerCount: 2
Fore
SplineSet
84 166 m 1
 108 115 145 78 196 78 c 0
 232 78 266 94 272 126 c 0
 280 169 222 189 180 208 c 0
 122 236 68 273 78 345 c 0
 90 425 174 470 255 470 c 0
 326 470 389 438 419 388 c 1
 352 325 l 1
 327 356 290 380 251 380 c 0
 220 380 186 367 182 338 c 0
 176 302 240 284 279 267 c 0
 339 240 390 198 381 130 c 0
 369 34 290 -13 193 -13 c 0
 106 -13 39 36 12 104 c 1
 84 166 l 1
157 -70 m 1
 263 -102 l 1
 107 -349 l 1
 28 -326 l 1
 157 -70 l 1
EndSplineSet
EndChar

StartChar: pi
Encoding: 960 960 338
Width: 548
VWidth: 0
Flags: HMW
LayerCount: 2
Fore
SplineSet
132 430 m 1
 238 430 l 1
 162 0 l 1
 60 0 l 1
 132 430 l 1
80 460 m 1
 563 460 l 1
 546 364 l 1
 63 364 l 1
 80 460 l 1
376 430 m 1
 480 430 l 1
 432 156 l 1
 426 103 438 94 472 86 c 1
 457 -8 l 1
 363 -5 310 17 323 121 c 1
 376 430 l 1
EndSplineSet
EndChar

StartChar: trademark
Encoding: 8482 8482 339
Width: 676
VWidth: 0
Flags: HMW
LayerCount: 2
Fore
SplineSet
113 645 m 1
 122 700 l 1
 361 700 l 1
 352 645 l 1
 262 645 l 1
 211 350 l 1
 151 350 l 1
 202 645 l 1
 113 645 l 1
635 600 m 1
 700 723 l 1
 681 350 l 1
 621 350 l 1
 635 600 l 1
417 717 m 1
 438 594 l 1
 369 350 l 1
 307 351 l 1
 417 717 l 1
702 723 m 1
 681 616 l 1
 501 381 l 1
 401 624 l 1
 417 717 l 1
 515 482 l 1
 702 723 l 1
EndSplineSet
EndChar

StartChar: uni2219
Encoding: 8729 8729 340
Width: 299
VWidth: 0
Flags: HMW
LayerCount: 2
Fore
SplineSet
126 427 m 0
 130 463 169 497 206 496 c 0
 244 495 269 462 265 425 c 0
 261 389 223 356 186 357 c 0
 148 358 122 390 126 427 c 0
EndSplineSet
EndChar

StartChar: agrave.alt
Encoding: 65537 -1 341
Width: 492
VWidth: 0
Flags: HMW
LayerCount: 2
Fore
SplineSet
129 136 m 0
 123 95 153 74 198 73 c 0
 270 71 322 112 339 182 c 1
 346 129 l 1
 326 44 252 -10 158 -10 c 0
 69 -10 8 43 20 127 c 0
 34 227 130 283 236 283 c 0
 303 283 353 254 379 226 c 1
 371 171 l 1
 334 199 296 214 247 213 c 0
 188 212 137 186 129 136 c 0
143 338 m 1
 111 417 l 1
 162 444 226 471 301 471 c 0
 400 471 480 422 468 328 c 1
 411 0 l 1
 306 0 l 1
 362 315 l 1
 363 357 335 380 288 382 c 0
 229 384 177 356 143 338 c 1
181 683 m 1
 275 726 l 1
 396 565 l 1
 333 531 l 1
 181 683 l 1
EndSplineSet
EndChar

StartChar: aacute.alt
Encoding: 65538 -1 342
Width: 492
VWidth: 0
Flags: HMW
LayerCount: 2
Fore
SplineSet
129 136 m 0
 123 95 153 74 198 73 c 0
 270 71 322 112 339 182 c 1
 346 129 l 1
 326 44 252 -10 158 -10 c 0
 69 -10 8 43 20 127 c 0
 34 227 130 283 236 283 c 0
 303 283 353 254 379 226 c 1
 371 171 l 1
 334 199 296 214 247 213 c 0
 188 212 137 186 129 136 c 0
143 338 m 1
 111 417 l 1
 162 444 226 471 301 471 c 0
 400 471 480 422 468 328 c 1
 411 0 l 1
 306 0 l 1
 362 315 l 1
 363 357 335 380 288 382 c 0
 229 384 177 356 143 338 c 1
502 678 m 1
 303 532 l 1
 246 569 l 1
 418 725 l 1
 502 678 l 1
EndSplineSet
EndChar

StartChar: acircumflex.alt
Encoding: 65539 -1 343
Width: 492
VWidth: 0
Flags: HMW
LayerCount: 2
Fore
SplineSet
129 136 m 0
 123 95 153 74 198 73 c 0
 270 71 322 112 339 182 c 1
 346 129 l 1
 326 44 252 -10 158 -10 c 0
 69 -10 8 43 20 127 c 0
 34 227 130 283 236 283 c 0
 303 283 353 254 379 226 c 1
 371 171 l 1
 334 199 296 214 247 213 c 0
 188 212 137 186 129 136 c 0
143 338 m 1
 111 417 l 1
 162 444 226 471 301 471 c 0
 400 471 480 422 468 328 c 1
 411 0 l 1
 306 0 l 1
 362 315 l 1
 363 357 335 380 288 382 c 0
 229 384 177 356 143 338 c 1
334 622 m 1
 218 532 l 1
 154 586 l 1
 346 724 l 1
 495 582 l 1
 418 531 l 1
 334 622 l 1
EndSplineSet
EndChar

StartChar: atilde.alt
Encoding: 65540 -1 344
Width: 492
VWidth: 0
Flags: HMW
LayerCount: 2
Fore
SplineSet
129 136 m 0
 123 95 153 74 198 73 c 0
 270 71 322 112 339 182 c 1
 346 129 l 1
 326 44 252 -10 158 -10 c 0
 69 -10 8 43 20 127 c 0
 34 227 130 283 236 283 c 0
 303 283 353 254 379 226 c 1
 371 171 l 1
 334 199 296 214 247 213 c 0
 188 212 137 186 129 136 c 0
143 338 m 1
 111 417 l 1
 162 444 226 471 301 471 c 0
 400 471 480 422 468 328 c 1
 411 0 l 1
 306 0 l 1
 362 315 l 1
 363 357 335 380 288 382 c 0
 229 384 177 356 143 338 c 1
150 581 m 1
 170 625 216 668 270 666 c 0
 323 665 339 617 387 619 c 0
 412 620 434 642 454 667 c 1
 503 611 l 1
 479 575 432 533 378 535 c 0
 331 537 305 585 261 583 c 0
 226 581 212 551 204 533 c 1
 150 581 l 1
EndSplineSet
EndChar

StartChar: adieresis.alt
Encoding: 65541 -1 345
Width: 492
VWidth: 0
Flags: HMW
LayerCount: 2
Fore
SplineSet
129 136 m 0
 123 95 153 74 198 73 c 0
 270 71 322 112 339 182 c 1
 346 129 l 1
 326 44 252 -10 158 -10 c 0
 69 -10 8 43 20 127 c 0
 34 227 130 283 236 283 c 0
 303 283 353 254 379 226 c 1
 371 171 l 1
 334 199 296 214 247 213 c 0
 188 212 137 186 129 136 c 0
143 338 m 1
 111 417 l 1
 162 444 226 471 301 471 c 0
 400 471 480 422 468 328 c 1
 411 0 l 1
 306 0 l 1
 362 315 l 1
 363 357 335 380 288 382 c 0
 229 384 177 356 143 338 c 1
365 599 m 0
 369 633 407 664 442 663 c 0
 478 662 504 631 500 596 c 0
 496 562 458 531 423 532 c 0
 387 533 361 564 365 599 c 0
154 599 m 0
 158 633 195 664 230 663 c 0
 266 662 292 631 288 596 c 0
 284 562 246 531 211 532 c 0
 175 533 150 564 154 599 c 0
EndSplineSet
EndChar

StartChar: aring.alt
Encoding: 65542 -1 346
Width: 492
VWidth: 0
Flags: HMW
LayerCount: 2
Fore
SplineSet
129 136 m 0
 123 95 153 74 198 73 c 0
 270 71 322 112 339 182 c 1
 346 129 l 1
 326 44 252 -10 158 -10 c 0
 69 -10 8 43 20 127 c 0
 34 227 130 283 236 283 c 0
 303 283 353 254 379 226 c 1
 371 171 l 1
 334 199 296 214 247 213 c 0
 188 212 137 186 129 136 c 0
143 338 m 1
 111 417 l 1
 162 444 226 471 301 471 c 0
 400 471 480 422 468 328 c 1
 411 0 l 1
 306 0 l 1
 362 315 l 1
 363 357 335 380 288 382 c 0
 229 384 177 356 143 338 c 1
225 638 m 0
 233 697 290 743 349 743 c 0
 408 743 451 695 443 636 c 0
 435 576 377 532 318 532 c 0
 259 532 217 579 225 638 c 0
285 637 m 0
 282 612 300 588 323 587 c 0
 347 585 378 611 381 638 c 0
 384 663 367 687 344 688 c 0
 320 690 288 664 285 637 c 0
EndSplineSet
EndChar

StartChar: amacron.alt
Encoding: 65543 -1 347
Width: 492
VWidth: 0
Flags: HMW
LayerCount: 2
Fore
SplineSet
129 136 m 0
 123 95 153 74 198 73 c 0
 270 71 322 112 339 182 c 1
 346 129 l 1
 326 44 252 -10 158 -10 c 0
 69 -10 8 43 20 127 c 0
 34 227 130 283 236 283 c 0
 303 283 353 254 379 226 c 1
 371 171 l 1
 334 199 296 214 247 213 c 0
 188 212 137 186 129 136 c 0
143 338 m 1
 111 417 l 1
 162 444 226 471 301 471 c 0
 400 471 480 422 468 328 c 1
 411 0 l 1
 306 0 l 1
 362 315 l 1
 363 357 335 380 288 382 c 0
 229 384 177 356 143 338 c 1
143 547 m 1
 160 644 l 1
 511 644 l 1
 494 546 l 1
 143 547 l 1
EndSplineSet
EndChar

StartChar: abreve.alt
Encoding: 65544 -1 348
Width: 492
VWidth: 0
Flags: HMW
LayerCount: 2
Fore
SplineSet
129 136 m 0
 123 95 153 74 198 73 c 0
 270 71 322 112 339 182 c 1
 346 129 l 1
 326 44 252 -10 158 -10 c 0
 69 -10 8 43 20 127 c 0
 34 227 130 283 236 283 c 0
 303 283 353 254 379 226 c 1
 371 171 l 1
 334 199 296 214 247 213 c 0
 188 212 137 186 129 136 c 0
143 338 m 1
 111 417 l 1
 162 444 226 471 301 471 c 0
 400 471 480 422 468 328 c 1
 411 0 l 1
 306 0 l 1
 362 315 l 1
 363 357 335 380 288 382 c 0
 229 384 177 356 143 338 c 1
182 674 m 1
 262 673 l 1
 261 641 274 606 324 605 c 0
 375 604 401 642 413 673 c 1
 496 672 l 1
 478 597 417 532 319 532 c 0
 222 532 176 597 182 674 c 1
EndSplineSet
EndChar

StartChar: aogonek.alt
Encoding: 65545 -1 349
Width: 492
VWidth: 0
Flags: HMW
LayerCount: 2
Fore
SplineSet
129 136 m 0
 123 95 157 74 198 73 c 0
 270 71 322 112 339 182 c 1
 346 129 l 1
 326 44 252 -10 158 -10 c 0
 71 -10 9 44 21 132 c 0
 36 228 127 283 236 283 c 0
 303 283 353 254 379 226 c 1
 371 171 l 1
 334 199 296 214 247 213 c 0
 188 212 137 186 129 136 c 0
143 338 m 1
 111 417 l 1
 162 444 226 471 301 471 c 0
 400 471 480 422 468 328 c 1
 411 0 l 1
 306 0 l 1
 362 315 l 1
 363 357 335 380 288 382 c 0
 229 384 177 356 143 338 c 1
382 -122 m 1
 406 -182 l 1
 383 -202 353 -220 311 -220 c 0
 243 -220 199 -180 207 -119 c 0
 218 -51 294 -8 361 25 c 1
 400 0 l 1
 354 -24 304 -56 297 -98 c 0
 295 -124 304 -140 329 -142 c 0
 350 -144 368 -132 382 -122 c 1
EndSplineSet
EndChar

StartChar: dagger
Encoding: 8224 8224 350
Width: 577
VWidth: 0
Flags: HMW
LayerCount: 2
Fore
SplineSet
153 540 m 1
 558 540 l 1
 542 444 l 1
 137 444 l 1
 153 540 l 1
327 700 m 1
 432 700 l 1
 300 -150 l 1
 197 -150 l 1
 327 700 l 1
EndSplineSet
EndChar

StartChar: daggerdbl
Encoding: 8225 8225 351
Width: 577
VWidth: 0
Flags: HMW
LayerCount: 2
Fore
SplineSet
90 135 m 1
 496 135 l 1
 480 40 l 1
 75 40 l 1
 90 135 l 1
153 540 m 1
 558 540 l 1
 542 444 l 1
 137 444 l 1
 153 540 l 1
327 700 m 1
 432 700 l 1
 300 -150 l 1
 197 -150 l 1
 327 700 l 1
EndSplineSet
EndChar

StartChar: ellipsis
Encoding: 8230 8230 352
Width: 882
VWidth: 0
Flags: HMW
LayerCount: 2
Fore
SplineSet
62 52 m 0
 66 88 105 122 142 121 c 0
 180 120 205 87 201 50 c 0
 197 14 159 -19 122 -18 c 0
 84 -17 58 15 62 52 c 0
353 52 m 0
 357 88 396 122 433 121 c 0
 471 120 496 87 492 50 c 0
 488 14 450 -19 413 -18 c 0
 375 -17 349 15 353 52 c 0
644 52 m 0
 648 88 687 122 724 121 c 0
 762 120 787 87 783 50 c 0
 779 14 741 -19 704 -18 c 0
 666 -17 640 15 644 52 c 0
EndSplineSet
EndChar

StartChar: uniFF10
Encoding: 65296 65296 353
Width: 581
VWidth: 0
Flags: HMW
LayerCount: 2
Fore
SplineSet
173 350 m 0
 161 240 168 98 277 96 c 0
 387 94 456 226 474 350 c 0
 486 460 480 602 371 604 c 0
 261 606 191 474 173 350 c 0
58 350 m 0
 84 539 205 711 381 711 c 0
 560 711 611 526 589 350 c 0
 563 161 443 -11 266 -11 c 0
 89 -11 36 174 58 350 c 0
EndSplineSet
EndChar

StartChar: uniFF11
Encoding: 65297 65297 354
Width: 581
VWidth: 0
Flags: HMW
LayerCount: 2
Fore
SplineSet
171 535 m 1
 192 649 l 1
 476 712 l 1
 354 0 l 1
 238 0 l 1
 338 579 l 1
 171 535 l 1
EndSplineSet
EndChar

StartChar: uniFF12
Encoding: 65298 65298 355
Width: 581
VWidth: 0
Flags: HMW
LayerCount: 2
Fore
SplineSet
-8 0 m 1
 361 341 l 2
 411 388 458 436 469 496 c 0
 478 549 449 603 381 605 c 0
 297 607 239 535 222 453 c 1
 106 454 l 1
 132 596 236 713 394 712 c 0
 536 712 606 601 588 494 c 0
 576 418 525 357 465 305 c 2
 239 111 l 1
 532 110 l 1
 513 0 l 1
 -8 0 l 1
EndSplineSet
EndChar

StartChar: uniFF13
Encoding: 65299 65299 356
Width: 581
VWidth: 0
Flags: HMW
LayerCount: 2
Fore
SplineSet
294 343 m 1
 304 406 l 1
 380 411 443 451 456 516 c 0
 464 566 442 609 384 610 c 0
 323 611 277 566 262 514 c 1
 152 514 l 1
 175 626 267 711 393 711 c 0
 514 711 592 626 575 522 c 0
 555 403 428 347 294 343 c 1
272 -12 m 0
 134 -12 57 82 68 200 c 1
 184 200 l 1
 180 137 214 92 284 91 c 0
 352 90 410 134 421 200 c 0
 436 278 371 314 290 318 c 1
 300 384 l 1
 436 381 558 327 537 187 c 0
 518 66 406 -12 272 -12 c 0
EndSplineSet
EndChar

StartChar: uniFF14
Encoding: 65300 65300 357
Width: 581
VWidth: 0
Flags: HMW
LayerCount: 2
Fore
SplineSet
7 134 m 1
 119 227 l 1
 402 228 l 1
 420 237 l 1
 573 237 l 1
 555 134 l 1
 7 134 l 1
131 155 m 1
 6 133 l 1
 477 699 l 1
 549 700 l 1
 430 0 l 1
 310 0 l 1
 339 170 l 1
 348 181 l 1
 399 481 l 1
 131 155 l 1
EndSplineSet
EndChar

StartChar: uniFF15
Encoding: 65301 65301 358
Width: 581
VWidth: 0
Flags: HMW
LayerCount: 2
Fore
SplineSet
553 227 m 0
 531 78 400 -11 261 -11 c 0
 147 -11 74 42 25 114 c 1
 105 198 l 1
 138 144 193 99 259 99 c 0
 347 99 415 154 429 235 c 0
 441 312 389 367 311 369 c 0
 245 371 185 351 118 316 c 1
 202 388 l 1
 252 434 317 461 383 460 c 0
 505 459 569 350 553 227 c 0
348 596 m 1
 258 400 l 1
 112 310 l 1
 274 700 l 1
 626 700 l 1
 609 596 l 1
 348 596 l 1
EndSplineSet
EndChar

StartChar: uniFF16
Encoding: 65302 65302 359
Width: 581
VWidth: 0
Flags: HMW
LayerCount: 2
Fore
SplineSet
168 236 m 0
 156 160 196 93 276 92 c 0
 358 91 428 156 441 236 c 0
 453 311 414 381 333 382 c 0
 251 383 181 316 168 236 c 0
404 698 m 1
 556 698 l 1
 293 425 l 1
 273 424 l 1
 306 452 340 463 385 463 c 0
 501 462 571 353 555 236 c 0
 534 90 410 -12 265 -12 c 0
 123 -12 34 94 54 236 c 0
 64 300 98 356 138 402 c 2
 404 698 l 1
EndSplineSet
EndChar

StartChar: uniFF17
Encoding: 65303 65303 360
Width: 581
VWidth: 0
Flags: HMW
LayerCount: 2
Fore
SplineSet
121 588 m 1
 140 700 l 1
 651 700 l 1
 204 0 l 1
 77 0 l 1
 456 588 l 1
 121 588 l 1
EndSplineSet
EndChar

StartChar: uniFF18
Encoding: 65304 65304 361
Width: 581
VWidth: 0
Flags: HMW
LayerCount: 2
Fore
SplineSet
154 532 m 0
 170 638 274 712 387 712 c 0
 497 712 580 635 565 530 c 0
 549 418 445 350 333 350 c 0
 223 350 138 422 154 532 c 0
262 518 m 0
 254 467 285 421 338 420 c 0
 392 418 444 465 453 519 c 0
 461 570 433 617 378 618 c 0
 322 619 271 572 262 518 c 0
72 190 m 0
 90 318 214 392 332 392 c 0
 447 392 549 316 531 190 c 0
 513 73 396 -12 271 -12 c 0
 150 -12 55 75 72 190 c 0
189 206 m 0
 179 141 218 90 281 89 c 0
 345 88 409 139 420 207 c 0
 429 266 389 322 327 323 c 0
 263 324 200 268 189 206 c 0
EndSplineSet
EndChar

StartChar: uniFF19
Encoding: 65305 65305 362
Width: 581
VWidth: 0
Flags: HMW
LayerCount: 2
Fore
SplineSet
479 464 m 0
 491 540 451 607 371 608 c 0
 289 609 220 544 207 464 c 0
 195 389 234 319 315 318 c 0
 397 317 466 384 479 464 c 0
243 1 m 1
 91 1 l 1
 355 275 l 1
 375 276 l 1
 342 248 308 237 263 237 c 0
 147 238 77 347 93 464 c 0
 114 610 237 712 382 712 c 0
 524 712 614 606 594 464 c 0
 584 400 550 344 510 298 c 2
 243 1 l 1
EndSplineSet
EndChar

StartChar: caron
Encoding: 711 711 363
Width: 465
VWidth: 0
Flags: HMW
LayerCount: 2
Fore
SplineSet
316 664 m 1
 431 754 l 1
 496 700 l 1
 304 562 l 1
 155 704 l 1
 232 755 l 1
 316 664 l 1
EndSplineSet
EndChar

StartChar: napostrophe
Encoding: 329 329 364
Width: 659
VWidth: 0
Flags: HMW
LayerCount: 2
Fore
SplineSet
357 460 m 1
 278 0 l 1
 169 0 l 1
 249 460 l 1
 357 460 l 1
506 280 m 1
 512 335 503 380 444 382 c 0
 382 384 340 335 326 281 c 1
 291 279 l 1
 310 379 382 470 488 470 c 0
 592 470 630 393 618 292 c 1
 567 0 l 1
 458 0 l 1
 506 280 l 1
210 700 m 1
 331 700 l 1
 191 461 l 1
 113 461 l 1
 210 700 l 1
EndSplineSet
EndChar

StartChar: IJ
Encoding: 306 306 365
Width: 528
VWidth: 0
Flags: HMW
LayerCount: 2
Fore
SplineSet
148 -88 m 1
 165 -108 188 -123 219 -122 c 0
 257 -121 292 -87 300 -36 c 1
 427 700 l 1
 547 700 l 1
 418 -58 l 2
 400 -166 319 -228 212 -227 c 0
 155 -227 104 -201 73 -174 c 1
 148 -88 l 1
166 700 m 1
 286 700 l 1
 165 0 l 1
 48 0 l 1
 166 700 l 1
EndSplineSet
EndChar

StartChar: ij
Encoding: 307 307 366
Width: 507
VWidth: 0
Flags: HMW
LayerCount: 2
Fore
SplineSet
395 644 m 0
 399 678 436 709 471 708 c 0
 507 707 533 677 529 642 c 0
 525 608 488 577 453 578 c 0
 417 579 391 609 395 644 c 0
188 -99 m 1
 199 -109 215 -125 229 -125 c 0
 263 -127 285 -87 291 -44 c 1
 378 460 l 1
 484 460 l 1
 395 -65 l 2
 380 -159 320 -228 223 -227 c 0
 177 -227 148 -206 126 -182 c 1
 188 -99 l 1
145 644 m 0
 149 678 186 709 221 708 c 0
 257 707 283 677 279 642 c 0
 275 608 238 577 203 578 c 0
 167 579 141 609 145 644 c 0
127 460 m 1
 235 460 l 1
 154 0 l 1
 50 0 l 1
 127 460 l 1
EndSplineSet
EndChar

StartChar: uni0237
Encoding: 567 567 367
Width: 250
VWidth: 0
Flags: HMW
LayerCount: 2
Fore
SplineSet
-70 -99 m 1
 -59 -115 -45 -125 -28 -125 c 0
 7 -125 28 -89 34 -44 c 1
 121 460 l 1
 227 460 l 1
 137 -65 l 2
 122 -159 63 -228 -34 -227 c 0
 -80 -227 -110 -206 -131 -182 c 1
 -70 -99 l 1
EndSplineSet
EndChar

StartChar: Sacute
Encoding: 346 346 368
Width: 561
VWidth: 0
Flags: HMW
LayerCount: 2
Fore
SplineSet
136 236 m 1
 164 157 200 93 282 93 c 0
 347 93 394 130 405 188 c 0
 419 263 347 294 280 323 c 0
 204 356 120 419 135 529 c 0
 152 640 259 712 378 712 c 0
 491 712 559 641 582 560 c 1
 483 504 l 1
 462 557 434 604 370 605 c 0
 313 605 264 572 255 522 c 0
 243 459 323 430 388 403 c 0
 472 367 542 302 528 192 c 0
 510 66 405 -15 267 -15 c 0
 149 -15 69 68 39 178 c 1
 136 236 l 1
593 920 m 1
 394 773 l 1
 336 810 l 1
 508 967 l 1
 593 920 l 1
EndSplineSet
EndChar

StartChar: sacute
Encoding: 347 347 369
Width: 411
VWidth: 0
Flags: HMW
LayerCount: 2
Fore
SplineSet
84 166 m 1
 108 115 145 78 196 78 c 0
 232 78 266 94 272 126 c 0
 280 169 222 189 180 208 c 0
 122 236 68 273 78 345 c 0
 90 425 174 470 255 470 c 0
 326 470 389 438 419 388 c 1
 352 325 l 1
 327 356 290 380 251 380 c 0
 220 380 186 367 182 338 c 0
 176 302 240 284 279 267 c 0
 339 240 390 198 381 130 c 0
 369 34 290 -13 193 -13 c 0
 106 -13 39 36 12 104 c 1
 84 166 l 1
470 678 m 1
 272 531 l 1
 214 567 l 1
 385 725 l 1
 470 678 l 1
EndSplineSet
EndChar

StartChar: Scircumflex
Encoding: 348 348 370
Width: 561
VWidth: 0
Flags: HMW
LayerCount: 2
Fore
SplineSet
136 236 m 1
 164 157 200 93 282 93 c 0
 347 93 394 130 405 188 c 0
 419 263 347 294 280 323 c 0
 204 356 120 419 135 529 c 0
 152 640 259 712 378 712 c 0
 491 712 559 641 582 560 c 1
 483 504 l 1
 462 557 434 604 370 605 c 0
 313 605 264 572 255 522 c 0
 243 459 323 430 388 403 c 0
 472 367 542 302 528 192 c 0
 510 66 405 -15 267 -15 c 0
 149 -15 69 68 39 178 c 1
 136 236 l 1
410 863 m 1
 295 773 l 1
 230 827 l 1
 422 965 l 1
 571 824 l 1
 494 772 l 1
 410 863 l 1
EndSplineSet
EndChar

StartChar: scircumflex
Encoding: 349 349 371
Width: 411
VWidth: 0
Flags: HMW
LayerCount: 2
Fore
SplineSet
84 166 m 1
 108 115 146 78 197 78 c 0
 233 78 266 94 272 126 c 0
 280 169 222 189 180 208 c 0
 122 236 68 273 78 345 c 0
 90 425 174 470 255 470 c 0
 326 470 389 438 419 388 c 1
 352 325 l 1
 327 356 290 380 251 380 c 0
 220 380 186 367 182 338 c 0
 176 302 240 284 279 267 c 0
 339 240 390 198 381 130 c 0
 369 34 290 -13 193 -13 c 0
 106 -13 39 36 12 104 c 1
 84 166 l 1
292 621 m 1
 177 531 l 1
 112 585 l 1
 304 723 l 1
 453 582 l 1
 376 530 l 1
 292 621 l 1
EndSplineSet
EndChar

StartChar: uni1E9E
Encoding: 7838 7838 372
Width: 762
VWidth: 0
Flags: HMW
LayerCount: 2
Fore
SplineSet
456 -12 m 0
 314 -12 246 86 257 200 c 1
 366 200 l 1
 362 139 395 92 466 91 c 0
 537 90 592 135 603 200 c 0
 618 280 551 314 472 318 c 1
 481 380 l 1
 615 377 739 323 718 184 c 0
 699 65 586 -12 456 -12 c 0
477 346 m 1
 486 406 l 1
 562 411 623 449 635 514 c 0
 647 579 580 611 501 611 c 0
 365 611 255 520 230 365 c 1
 167 0 l 1
 49 0 l 1
 114 376 l 2
 147 582 305 710 508 710 c 0
 645 710 777 653 757 529 c 0
 738 409 614 350 477 346 c 1
EndSplineSet
EndChar

StartChar: Zacute
Encoding: 377 377 373
Width: 557
VWidth: 0
Flags: HW
LayerCount: 2
Fore
SplineSet
115 591 m 1
 135 700 l 1
 636 700 l 1
 193 107 l 1
 509 107 l 1
 489 0 l 1
 -18 0 l 1
 424 590 l 1
 115 591 l 1
583 920 m 1
 385 773 l 1
 327 810 l 1
 499 967 l 1
 583 920 l 1
EndSplineSet
EndChar

StartChar: zacute
Encoding: 378 378 374
Width: 470
VWidth: 0
Flags: HW
LayerCount: 2
Fore
SplineSet
306 359 m 1
 82 360 l 1
 99 460 l 1
 511 460 l 1
 194 101 l 1
 424 100 l 1
 406 0 l 1
 -16 0 l 1
 306 359 l 1
505 693 m 1
 306 546 l 1
 249 582 l 1
 421 740 l 1
 505 693 l 1
EndSplineSet
EndChar

StartChar: Zdotaccent
Encoding: 379 379 375
Width: 557
VWidth: 0
Flags: HW
LayerCount: 2
Fore
SplineSet
115 591 m 1
 135 700 l 1
 636 700 l 1
 193 107 l 1
 509 107 l 1
 489 0 l 1
 -18 0 l 1
 424 590 l 1
 115 591 l 1
341 840 m 0
 345 874 382 905 417 904 c 0
 453 903 479 872 475 837 c 0
 471 803 434 772 399 773 c 0
 363 774 337 805 341 840 c 0
EndSplineSet
EndChar

StartChar: zdotaccent
Encoding: 380 380 376
Width: 470
VWidth: 0
Flags: HW
LayerCount: 2
Fore
SplineSet
306 359 m 1
 82 360 l 1
 99 460 l 1
 511 460 l 1
 194 101 l 1
 424 100 l 1
 406 0 l 1
 -16 0 l 1
 306 359 l 1
263 619 m 0
 267 653 306 685 341 684 c 0
 377 683 402 652 398 617 c 0
 394 583 357 552 322 553 c 0
 286 554 259 584 263 619 c 0
EndSplineSet
EndChar

StartChar: Tcaron
Encoding: 356 356 377
Width: 488
VWidth: 0
Flags: HW
LayerCount: 2
Fore
SplineSet
80 591 m 1
 99 700 l 1
 576 700 l 1
 557 591 l 1
 378 591 l 1
 276 0 l 1
 158 0 l 1
 260 591 l 1
 80 591 l 1
364 875 m 1
 479 965 l 1
 544 910 l 1
 352 772 l 1
 203 914 l 1
 280 965 l 1
 364 875 l 1
EndSplineSet
EndChar

StartChar: tcaron
Encoding: 357 357 378
Width: 392
VWidth: 0
Flags: HW
LayerCount: 2
Fore
SplineSet
56 460 m 1
 312 460 l 1
 294 364 l 1
 39 364 l 1
 56 460 l 1
157 620 m 1
 264 620 l 1
 156 0 l 1
 53 0 l 1
 157 620 l 1
427 799 m 1
 532 767 l 1
 377 520 l 1
 298 543 l 1
 427 799 l 1
EndSplineSet
EndChar

StartChar: Uring
Encoding: 366 366 379
Width: 636
VWidth: 0
Flags: HW
LayerCount: 2
Fore
SplineSet
162 700 m 1
 280 700 l 1
 199 235 l 2
 189 159 217 93 304 92 c 0
 392 91 448 155 463 235 c 1
 543 700 l 1
 661 700 l 1
 580 230 l 2
 555 85 442 -17 292 -17 c 0
 145 -17 63 88 82 230 c 1
 162 700 l 1
333 880 m 0
 341 939 398 985 457 985 c 0
 516 985 559 937 551 878 c 0
 543 818 485 773 426 773 c 0
 367 773 325 821 333 880 c 0
393 878 m 0
 390 853 408 830 431 829 c 0
 455 827 486 852 489 879 c 0
 492 904 475 929 452 930 c 0
 428 932 396 905 393 878 c 0
EndSplineSet
EndChar

StartChar: uring
Encoding: 367 367 380
Width: 528
VWidth: 0
Flags: HW
LayerCount: 2
Fore
SplineSet
328 0 m 1
 407 460 l 1
 515 460 l 1
 436 0 l 1
 328 0 l 1
179 180 m 1
 173 125 181 80 240 78 c 0
 302 76 345 125 359 179 c 1
 387 181 l 1
 369 81 303 -10 197 -10 c 0
 93 -10 55 67 67 168 c 1
 118 460 l 1
 227 460 l 1
 179 180 l 1
237 638 m 0
 245 697 303 742 362 742 c 0
 421 742 463 695 455 636 c 0
 447 576 389 531 330 531 c 0
 271 531 229 579 237 638 c 0
298 636 m 0
 295 611 312 587 335 586 c 0
 359 584 391 610 394 637 c 0
 397 662 380 686 357 687 c 0
 333 689 301 663 298 636 c 0
EndSplineSet
EndChar

StartChar: Utilde
Encoding: 360 360 381
Width: 636
VWidth: 0
Flags: HW
LayerCount: 2
Fore
SplineSet
143 700 m 1
 262 700 l 1
 180 235 l 2
 170 160 196 93 283 92 c 0
 371 90 428 155 443 235 c 1
 523 700 l 1
 642 700 l 1
 562 230 l 2
 538 85 425 -17 275 -17 c 0
 128 -17 43 88 62 230 c 1
 143 700 l 1
239 823 m 1
 239 869 316 909 357 908 c 0
 410 907 426 858 474 860 c 0
 499 861 522 884 542 909 c 1
 592 851 l 1
 569 815 521 774 468 776 c 0
 421 778 395 826 352 824 c 0
 317 822 304 792 295 774 c 1
 239 823 l 1
EndSplineSet
EndChar

StartChar: utilde
Encoding: 361 361 382
Width: 528
VWidth: 0
Flags: HW
LayerCount: 2
Fore
SplineSet
308 0 m 1
 388 460 l 1
 497 460 l 1
 418 0 l 1
 308 0 l 1
160 180 m 1
 153 126 163 81 221 79 c 0
 283 76 325 125 339 179 c 1
 367 181 l 1
 349 81 285 -9 180 -10 c 0
 76 -11 36 66 48 168 c 1
 98 460 l 1
 208 460 l 1
 160 180 l 1
144 581 m 1
 164 625 208 666 261 665 c 0
 314 664 331 616 379 618 c 0
 404 619 427 642 447 667 c 1
 496 609 l 1
 473 573 426 532 373 534 c 0
 326 536 300 584 257 582 c 0
 222 580 209 550 200 532 c 1
 144 581 l 1
EndSplineSet
EndChar

StartChar: Umacron
Encoding: 362 362 383
Width: 636
VWidth: 0
Flags: HW
LayerCount: 2
Fore
SplineSet
143 700 m 1
 262 700 l 1
 180 235 l 2
 170 160 196 93 283 92 c 0
 371 90 428 155 443 235 c 1
 523 700 l 1
 642 700 l 1
 562 230 l 2
 538 85 425 -17 275 -17 c 0
 128 -17 43 88 62 230 c 1
 143 700 l 1
230 773 m 1
 246 870 l 1
 598 870 l 1
 581 773 l 1
 230 773 l 1
EndSplineSet
EndChar

StartChar: umacron
Encoding: 363 363 384
Width: 528
VWidth: 0
Flags: HW
LayerCount: 2
Fore
SplineSet
308 0 m 1
 388 460 l 1
 497 460 l 1
 418 0 l 1
 308 0 l 1
160 180 m 1
 153 126 163 81 221 79 c 0
 283 76 325 125 339 179 c 1
 367 181 l 1
 349 81 285 -9 180 -10 c 0
 76 -11 36 66 48 168 c 1
 98 460 l 1
 208 460 l 1
 160 180 l 1
135 531 m 1
 151 628 l 1
 503 628 l 1
 486 531 l 1
 135 531 l 1
EndSplineSet
EndChar

StartChar: Ubreve
Encoding: 364 364 385
Width: 636
VWidth: 0
Flags: HW
LayerCount: 2
Fore
SplineSet
143 700 m 1
 262 700 l 1
 180 235 l 2
 170 160 196 93 283 92 c 0
 371 90 428 155 443 235 c 1
 523 700 l 1
 642 700 l 1
 562 230 l 2
 538 85 425 -17 275 -17 c 0
 128 -17 43 88 62 230 c 1
 143 700 l 1
271 915 m 1
 351 914 l 1
 350 882 362 848 412 847 c 0
 463 846 489 883 501 914 c 1
 585 913 l 1
 568 837 507 773 409 773 c 0
 312 773 266 837 271 915 c 1
EndSplineSet
EndChar

StartChar: ubreve
Encoding: 365 365 386
Width: 528
VWidth: 0
Flags: HW
LayerCount: 2
Fore
SplineSet
308 0 m 1
 388 460 l 1
 497 460 l 1
 418 0 l 1
 308 0 l 1
160 180 m 1
 153 126 163 81 221 79 c 0
 283 76 325 125 339 179 c 1
 367 181 l 1
 349 81 285 -9 180 -10 c 0
 76 -11 36 66 48 168 c 1
 98 460 l 1
 208 460 l 1
 160 180 l 1
176 673 m 1
 256 672 l 1
 255 640 266 606 316 605 c 0
 367 604 394 641 406 672 c 1
 489 671 l 1
 472 595 412 531 314 531 c 0
 217 531 171 595 176 673 c 1
EndSplineSet
EndChar

StartChar: Wcircumflex
Encoding: 372 372 387
Width: 989
VWidth: 0
Flags: HW
LayerCount: 2
Fore
SplineSet
701 223 m 1
 939 700 l 1
 1078 700 l 1
 674 -40 l 1
 548 453 l 1
 254 -41 l 1
 100 700 l 1
 234 700 l 1
 310 224 l 1
 593 738 l 1
 701 223 l 1
623 886 m 1
 507 796 l 1
 441 851 l 1
 632 989 l 1
 783 847 l 1
 706 796 l 1
 623 886 l 1
EndSplineSet
EndChar

StartChar: wcircumflex
Encoding: 373 373 388
Width: 690
VWidth: 0
Flags: HW
LayerCount: 2
Fore
SplineSet
52 460 m 1
 165 460 l 1
 222 190 l 1
 400 498 l 1
 476 188 l 1
 627 460 l 1
 747 460 l 1
 451 -35 l 1
 365 274 l 1
 176 -35 l 1
 52 460 l 1
430 646 m 1
 314 556 l 1
 248 611 l 1
 439 749 l 1
 590 606 l 1
 513 556 l 1
 430 646 l 1
EndSplineSet
EndChar

StartChar: Ycircumflex
Encoding: 374 374 389
Width: 582
VWidth: 0
Flags: HW
LayerCount: 2
Fore
SplineSet
539 700 m 1
 678 700 l 1
 374 291 l 1
 324 0 l 1
 204 0 l 1
 257 299 l 1
 96 700 l 1
 225 700 l 1
 331 404 l 1
 539 700 l 1
414 863 m 1
 299 773 l 1
 233 828 l 1
 423 965 l 1
 574 824 l 1
 497 772 l 1
 414 863 l 1
EndSplineSet
EndChar

StartChar: ycircumflex
Encoding: 375 375 390
Width: 457
VWidth: 0
Flags: HW
LayerCount: 2
Fore
SplineSet
518 460 m 1
 110 -220 l 1
 -9 -220 l 1
 159 58 l 1
 49 460 l 1
 168 460 l 1
 249 96 l 1
 197 100 l 1
 398 460 l 1
 518 460 l 1
313 621 m 1
 198 531 l 1
 132 586 l 1
 323 723 l 1
 473 581 l 1
 396 530 l 1
 313 621 l 1
EndSplineSet
EndChar

StartChar: uni0123
Encoding: 291 291 391
Width: 553
VWidth: 0
Flags: HW
LayerCount: 2
Fore
SplineSet
368 858 m 1
 471 818 l 1
 308 577 l 1
 231 606 l 1
 368 858 l 1
-11 -31 m 1
 93 -32 l 1
 91 -93 126 -138 198 -139 c 0
 275 -140 341 -78 356 10 c 1
 434 460 l 1
 540 460 l 1
 463 10 l 2
 440 -138 328 -232 193 -233 c 0
 55 -233 -18 -151 -11 -31 c 1
25 233 m 0
 44 369 153 470 280 470 c 0
 403 470 451 357 435 232 c 0
 418 101 330 -5 208 -5 c 0
 82 -5 8 102 25 233 c 0
136 232 m 0
 124 154 164 91 241 90 c 0
 311 89 382 152 395 233 c 0
 406 309 367 373 298 375 c 0
 220 377 149 313 136 232 c 0
EndSplineSet
EndChar

StartChar: Hbar
Encoding: 294 294 392
Width: 720
VWidth: 0
Flags: HW
LayerCount: 2
Fore
SplineSet
129 321 m 1
 147 430 l 1
 636 430 l 1
 618 321 l 1
 129 321 l 1
602 700 m 1
 723 700 l 1
 602 0 l 1
 485 0 l 1
 602 700 l 1
146 700 m 1
 267 700 l 1
 146 0 l 1
 29 0 l 1
 146 700 l 1
50 539 m 1
 65 626 l 1
 780 626 l 1
 766 539 l 1
 50 539 l 1
EndSplineSet
EndChar

StartChar: hbar
Encoding: 295 295 393
Width: 526
VWidth: 0
Flags: HW
LayerCount: 2
Fore
SplineSet
262 780 m 1
 127 0 l 1
 18 0 l 1
 152 780 l 1
 262 780 l 1
356 280 m 1
 363 334 353 379 295 381 c 0
 233 384 190 335 176 281 c 1
 148 281 l 1
 166 381 231 472 336 473 c 0
 441 474 477 396 465 295 c 1
 414 0 l 1
 308 0 l 1
 356 280 l 1
63 614 m 1
 79 711 l 1
 393 711 l 1
 376 614 l 1
 63 614 l 1
EndSplineSet
EndChar

StartChar: uni0400
Encoding: 1024 1024 394
Width: 533
VWidth: 0
Flags: HW
LayerCount: 2
Fore
SplineSet
119 0 m 1
 137 104 l 1
 482 104 l 1
 465 0 l 1
 119 0 l 1
221 596 m 1
 238 700 l 1
 584 700 l 1
 566 596 l 1
 221 596 l 1
174 324 m 1
 192 426 l 1
 518 426 l 1
 501 324 l 1
 174 324 l 1
165 700 m 1
 284 700 l 1
 162 0 l 1
 48 0 l 1
 165 700 l 1
243 924 m 1
 337 968 l 1
 459 805 l 1
 398 772 l 1
 243 924 l 1
EndSplineSet
EndChar

StartChar: uni0401
Encoding: 1025 1025 395
Width: 533
VWidth: 0
Flags: HW
LayerCount: 2
Fore
SplineSet
119 0 m 1
 137 104 l 1
 482 104 l 1
 465 0 l 1
 119 0 l 1
221 596 m 1
 238 700 l 1
 584 700 l 1
 566 596 l 1
 221 596 l 1
174 324 m 1
 192 426 l 1
 518 426 l 1
 501 324 l 1
 174 324 l 1
165 700 m 1
 284 700 l 1
 162 0 l 1
 48 0 l 1
 165 700 l 1
445 840 m 0
 448 874 486 905 521 904 c 0
 557 903 584 872 580 837 c 0
 577 803 540 772 505 773 c 0
 469 774 441 805 445 840 c 0
234 840 m 0
 237 874 275 905 310 904 c 0
 346 903 373 872 369 837 c 0
 366 803 328 772 293 773 c 0
 257 774 230 805 234 840 c 0
EndSplineSet
EndChar

StartChar: uni0403
Encoding: 1027 1027 396
Width: 449
VWidth: 0
Flags: HW
LayerCount: 2
Fore
SplineSet
167 700 m 1
 535 700 l 1
 516 591 l 1
 269 591 l 1
 167 0 l 1
 50 0 l 1
 167 700 l 1
553 919 m 1
 357 773 l 1
 298 809 l 1
 467 966 l 1
 553 919 l 1
EndSplineSet
EndChar

StartChar: uni040C
Encoding: 1036 1036 397
Width: 548
VWidth: 0
Flags: HW
LayerCount: 2
Fore
SplineSet
165 700 m 1
 289 700 l 1
 167 0 l 1
 48 0 l 1
 165 700 l 1
533 700 m 1
 682 700 l 1
 333 368 l 1
 570 0 l 1
 433 0 l 1
 195 373 l 1
 533 700 l 1
605 913 m 1
 408 768 l 1
 348 806 l 1
 518 962 l 1
 605 913 l 1
EndSplineSet
EndChar

StartChar: uni040D
Encoding: 1037 1037 398
Width: 758
VWidth: 0
Flags: HW
LayerCount: 2
Fore
SplineSet
751 568 m 1
 36 -42 l 1
 75 132 l 1
 788 743 l 1
 751 568 l 1
283 700 m 1
 178 94 l 1
 36 -42 l 1
 166 700 l 1
 283 700 l 1
788 743 m 1
 658 0 l 1
 542 0 l 1
 645 604 l 1
 788 743 l 1
349 902 m 1
 442 946 l 1
 564 783 l 1
 503 750 l 1
 349 902 l 1
EndSplineSet
EndChar

StartChar: uni040E
Encoding: 1038 1038 399
Width: 563
VWidth: 0
Flags: HW
LayerCount: 2
Fore
SplineSet
665 700 m 1
 225 0 l 1
 97 0 l 1
 227 214 l 1
 90 700 l 1
 219 700 l 1
 325 252 l 1
 265 256 l 1
 535 700 l 1
 665 700 l 1
251 915 m 1
 331 914 l 1
 331 882 344 847 393 846 c 0
 444 845 470 882 481 914 c 1
 565 913 l 1
 548 837 487 772 389 772 c 0
 292 772 247 837 251 915 c 1
EndSplineSet
EndChar

StartChar: uni0410
Encoding: 1040 1040 400
Width: 669
VWidth: 0
Flags: HW
LayerCount: 2
Fore
SplineSet
160 180 m 1
 198 279 l 1
 516 279 l 1
 522 179 l 1
 160 180 l 1
398 502 m 1
 246 245 l 1
 241 219 l 1
 109 0 l 1
 -29 0 l 1
 434 742 l 1
 640 0 l 1
 511 0 l 1
 454 213 l 1
 458 242 l 1
 398 502 l 1
EndSplineSet
EndChar

StartChar: uni0411
Encoding: 1041 1041 401
Width: 580
VWidth: 0
Flags: HW
LayerCount: 2
Fore
SplineSet
150 323 m 1
 168 426 l 1
 351 426 l 1
 479 424 571 338 553 213 c 0
 535 86 421 2 290 0 c 1
 94 0 l 1
 112 104 l 1
 283 104 l 2
 358 105 420 142 434 214 c 0
 447 283 401 321 329 323 c 1
 150 323 l 1
167 700 m 1
 585 700 l 1
 567 596 l 1
 271 596 l 1
 168 0 l 1
 50 0 l 1
 167 700 l 1
EndSplineSet
EndChar

StartChar: uni0412
Encoding: 1042 1042 402
Width: 581
VWidth: 0
Flags: HW
LayerCount: 2
Fore
SplineSet
198.006835938 362 m 1
 207.006835938 418 l 1
 313.006835938 419 l 1
 375.006835938 421 429.006835938 453 440.006835938 511 c 0
 450.006835938 566 413.006835938 600 354.006835938 602 c 1
 270.006835938 602 l 1
 182.006835938 98 l 1
 270.006835938 98 l 1
 348.006835938 100 414.006835938 139 428.006835938 215 c 0
 441.006835938 287 392.006835938 324 319.006835938 326 c 1
 191.006835938 327 l 1
 203.006835938 392 l 1
 328.006835938 392 l 1
 452.006835938 390 564.006835938 332 546.006835938 201 c 0
 528.006835938 65 410.006835938 2 272.006835938 0 c 1
 47.0068359375 0 l 1
 167.006835938 700 l 1
 367.006835938 700 l 1
 485.006835938 698 579.006835938 641 562.006835938 523 c 0
 546.006835938 415 439.006835938 364 320.006835938 362 c 2
 198.006835938 362 l 1
EndSplineSet
EndChar

StartChar: uni0413
Encoding: 1043 1043 403
Width: 449
VWidth: 0
Flags: HW
LayerCount: 2
Fore
SplineSet
167 700 m 1
 535 700 l 1
 516 591 l 1
 269 591 l 1
 167 0 l 1
 50 0 l 1
 167 700 l 1
EndSplineSet
EndChar

StartChar: uni0414
Encoding: 1044 1044 404
Width: 805
VWidth: 0
Flags: HW
LayerCount: 2
Fore
SplineSet
460 495 m 1
 212 30 l 1
 76 30 l 1
 499 739 l 1
 676 30 l 1
 549 30 l 1
 460 495 l 1
627 0 m 1
 124 0 l 1
 104 -110 l 1
 -9 -110 l 1
 29 107 l 1
 756 107 l 1
 718 -110 l 1
 606 -110 l 1
 627 0 l 1
EndSplineSet
EndChar

StartChar: uni0415
Encoding: 1045 1045 405
Width: 555
VWidth: 0
Flags: HW
LayerCount: 2
Fore
SplineSet
120 0 m 1
 137 104 l 1
 483 104 l 1
 465 0 l 1
 120 0 l 1
221 596 m 1
 238 700 l 1
 585 700 l 1
 566 596 l 1
 221 596 l 1
175 324 m 1
 192 426 l 1
 518 426 l 1
 501 324 l 1
 175 324 l 1
166 700 m 1
 284 700 l 1
 162 0 l 1
 48 0 l 1
 166 700 l 1
EndSplineSet
EndChar

StartChar: uni0416
Encoding: 1046 1046 406
Width: 942
VWidth: 0
Flags: HW
LayerCount: 2
Fore
SplineSet
245 700 m 1
 479 366 l 1
 118 0 l 1
 -30 0 l 1
 343 376 l 1
 112 700 l 1
 245 700 l 1
506 700 m 1
 629 700 l 1
 509 0 l 1
 389 0 l 1
 506 700 l 1
873 700 m 1
 1025 700 l 1
 673 368 l 1
 912 0 l 1
 775 0 l 1
 544 375 l 1
 873 700 l 1
EndSplineSet
EndChar

StartChar: uni0417
Encoding: 1047 1047 407
Width: 612
VWidth: 0
Flags: HW
LayerCount: 2
Fore
SplineSet
314 343 m 1
 323 405 l 1
 412 409 486 445 500 514 c 0
 511 571 472 609 403 610 c 0
 328 611 272 570 254 514 c 1
 143 514 l 1
 167 632 267 711 408 711 c 0
 540 711 636 633 619 522 c 0
 599 399 457 346 314 343 c 1
296 -12 m 0
 137 -12 47 74 58 200 c 1
 174 200 l 1
 173 131 216 92 300 91 c 0
 385 90 451 128 465 200 c 0
 482 283 401 315 310 318 c 1
 320 385 l 1
 464 383 602 332 581 187 c 0
 562 61 445 -12 296 -12 c 0
EndSplineSet
EndChar

StartChar: uni0418
Encoding: 1048 1048 408
Width: 758
VWidth: 0
Flags: HW
LayerCount: 2
Fore
SplineSet
751 568 m 1
 36 -42 l 1
 75 132 l 1
 788 743 l 1
 751 568 l 1
283 700 m 1
 178 94 l 1
 36 -42 l 1
 166 700 l 1
 283 700 l 1
788 743 m 1
 658 0 l 1
 542 0 l 1
 645 604 l 1
 788 743 l 1
EndSplineSet
EndChar

StartChar: uni0419
Encoding: 1049 1049 409
Width: 758
VWidth: 0
Flags: HW
LayerCount: 2
Fore
SplineSet
751 568 m 1
 36 -42 l 1
 75 132 l 1
 788 743 l 1
 751 568 l 1
283 700 m 1
 178 94 l 1
 36 -42 l 1
 166 700 l 1
 283 700 l 1
788 743 m 1
 658 0 l 1
 542 0 l 1
 645 604 l 1
 788 743 l 1
359 912 m 1
 439 912 l 1
 439 880 453 845 503 844 c 0
 554 843 579 879 590 911 c 1
 672 911 l 1
 655 835 596 770 498 770 c 0
 402 770 355 835 359 912 c 1
EndSplineSet
EndChar

StartChar: uni041A
Encoding: 1050 1050 410
Width: 603
VWidth: 0
Flags: HW
LayerCount: 2
Fore
SplineSet
165 700 m 1
 289 700 l 1
 167 0 l 1
 48 0 l 1
 165 700 l 1
533 700 m 1
 682 700 l 1
 333 368 l 1
 570 0 l 1
 433 0 l 1
 195 373 l 1
 533 700 l 1
EndSplineSet
EndChar

StartChar: uni041B
Encoding: 1051 1051 411
Width: 681
VWidth: 0
Flags: HW
LayerCount: 2
Fore
SplineSet
699 700 m 1
 579 0 l 1
 459 0 l 1
 561 591 l 1
 294 591 l 1
 238 263 l 2
 213 113 134 10 -17 1 c 1
 -3 101 l 1
 69 113 107 184 121 271 c 1
 196 700 l 1
 699 700 l 1
EndSplineSet
EndChar

StartChar: uni041C
Encoding: 1052 1052 412
Width: 818
VWidth: 0
Flags: HW
LayerCount: 2
Fore
SplineSet
250 424 m 1
 131 0 l 1
 6 0 l 1
 227 736 l 1
 424 263 l 1
 790 742 l 1
 755 0 l 1
 634 0 l 1
 659 418 l 1
 395 63 l 1
 250 424 l 1
EndSplineSet
EndChar

StartChar: uni041D
Encoding: 1053 1053 413
Width: 720
VWidth: 0
Flags: HW
LayerCount: 2
Fore
SplineSet
148 321 m 1
 166 430 l 1
 655 430 l 1
 636 321 l 1
 148 321 l 1
621 700 m 1
 742 700 l 1
 621 0 l 1
 504 0 l 1
 621 700 l 1
165 700 m 1
 286 700 l 1
 164 0 l 1
 48 0 l 1
 165 700 l 1
EndSplineSet
EndChar

StartChar: uni041E
Encoding: 1054 1054 414
Width: 777
VWidth: 0
Flags: HW
LayerCount: 2
Fore
SplineSet
193.0234375 350 m 0
 172.0234375 223 235.0234375 102 374.0234375 101 c 0
 515.0234375 100 627.0234375 215 651.0234375 350 c 0
 672.0234375 477 610.0234375 598 470.0234375 599 c 0
 329.0234375 600 217.0234375 485 193.0234375 350 c 0
67.0234375 350 m 0
 97.0234375 551 270.0234375 712 478.0234375 712 c 0
 683.0234375 712 805.0234375 544 777.0234375 350 c 0
 747.0234375 149 575.0234375 -15 365.0234375 -15 c 0
 159.0234375 -15 39.0234375 156 67.0234375 350 c 0
EndSplineSet
EndChar

StartChar: uni041F
Encoding: 1055 1055 415
Width: 715
VWidth: 0
Flags: HW
LayerCount: 2
Fore
SplineSet
596 591 m 1
 270 591 l 1
 169 0 l 1
 48 0 l 1
 168 700 l 1
 733 700 l 1
 612 0 l 1
 494 0 l 1
 596 591 l 1
EndSplineSet
EndChar

StartChar: uni0420
Encoding: 1056 1056 416
Width: 560
VWidth: 0
Flags: HW
LayerCount: 2
Fore
SplineSet
165.541015625 700 m 1
 285.541015625 700 l 1
 164.541015625 0 l 1
 47.541015625 0 l 1
 165.541015625 700 l 1
217.541015625 596 m 1
 234.541015625 700 l 1
 367.541015625 700 l 1
 507.541015625 698 600.541015625 614 581.541015625 482 c 0
 561.541015625 348 448.541015625 267 304.541015625 265 c 1
 159.541015625 265 l 1
 178.541015625 369 l 1
 310.541015625 369 l 2
 387.541015625 370 452.541015625 410 466.541015625 483 c 0
 479.541015625 554 433.541015625 593 359.541015625 595 c 1
 217.541015625 596 l 1
EndSplineSet
EndChar

StartChar: uni0421
Encoding: 1057 1057 417
Width: 670
VWidth: 0
Flags: HW
LayerCount: 2
Fore
SplineSet
195 350 m 0
 174 220 247 106 379 104 c 0
 474 103 552 149 612 202 c 1
 592 62 l 1
 528 15 459 -12 366 -12 c 0
 162 -12 39 155 67 350 c 0
 97 554 270 712 478 712 c 0
 567 712 630 687 687 637 c 1
 667 497 l 1
 625 557 561 596 474 596 c 0
 340 596 219 488 195 350 c 0
EndSplineSet
EndChar

StartChar: uni0422
Encoding: 1058 1058 418
Width: 489
VWidth: 0
Flags: HW
LayerCount: 2
Fore
SplineSet
79 591 m 1
 99 700 l 1
 577 700 l 1
 558 591 l 1
 378 591 l 1
 277 0 l 1
 158 0 l 1
 259 591 l 1
 79 591 l 1
EndSplineSet
EndChar

StartChar: uni0423
Encoding: 1059 1059 419
Width: 568
VWidth: 0
Flags: HW
LayerCount: 2
Fore
SplineSet
670 700 m 1
 230 0 l 1
 99 0 l 1
 229 214 l 1
 90 700 l 1
 221 700 l 1
 327 252 l 1
 267 256 l 1
 538 700 l 1
 670 700 l 1
EndSplineSet
EndChar

StartChar: uni0424
Encoding: 1060 1060 420
Width: 817
VWidth: 0
Flags: HW
LayerCount: 2
Fore
SplineSet
441 700 m 1
 563 700 l 1
 442 0 l 1
 323 0 l 1
 441 700 l 1
695 350 m 0
 716 458 632 508 520 509 c 1
 429 509 l 2
 310 508 210 459 189 350 c 0
 168 242 252 192 364 191 c 1
 454 191 l 2
 573 192 674 241 695 350 c 0
814 350 m 0
 789 182 635 82 459 80 c 1
 344 80 l 1
 175 81 46 184 70 350 c 0
 95 518 249 618 425 620 c 1
 540 620 l 1
 709 619 838 516 814 350 c 0
EndSplineSet
EndChar

StartChar: uni0425
Encoding: 1061 1061 421
Width: 596
VWidth: 0
Flags: HW
LayerCount: 2
Fore
SplineSet
521 700 m 1
 669 700 l 1
 401 359 l 1
 558 0 l 1
 420 0 l 1
 321 265 l 1
 127 0 l 1
 -22 0 l 1
 272 369 l 1
 129 700 l 1
 266 700 l 1
 351 467 l 1
 521 700 l 1
EndSplineSet
EndChar

StartChar: uni0426
Encoding: 1062 1062 422
Width: 775
VWidth: 0
Flags: HW
LayerCount: 2
Fore
SplineSet
183 109 m 1
 520 109 l 1
 622 700 l 1
 743 700 l 1
 642 109 l 1
 734 109 l 1
 694 -120 l 1
 584 -120 l 1
 605 0 l 1
 46 0 l 1
 167 700 l 1
 285 700 l 1
 183 109 l 1
EndSplineSet
EndChar

StartChar: uni0427
Encoding: 1063 1063 423
Width: 636
VWidth: 0
Flags: HW
LayerCount: 2
Fore
SplineSet
307 256 m 1
 343 361 l 1
 537 361 l 1
 518 256 l 1
 307 256 l 1
531 700 m 1
 655 700 l 1
 534 0 l 1
 414 0 l 1
 531 700 l 1
283 700 m 1
 248 507 l 1
 235 427 268 361 343 361 c 1
 307 256 l 1
 175 256 114 370 132 497 c 1
 166 700 l 1
 283 700 l 1
EndSplineSet
EndChar

StartChar: uni0428
Encoding: 1064 1064 424
Width: 993
VWidth: 0
Flags: HW
LayerCount: 2
Fore
SplineSet
790 109 m 1
 892 700 l 1
 1011 700 l 1
 891 0 l 1
 48 0 l 1
 168 700 l 1
 288 700 l 1
 187 109 l 1
 430 109 l 1
 531 700 l 1
 648 700 l 1
 547 109 l 1
 790 109 l 1
EndSplineSet
EndChar

StartChar: uni0429
Encoding: 1065 1065 425
Width: 1046
VWidth: 0
Flags: HW
LayerCount: 2
Fore
SplineSet
790 109 m 1
 892 700 l 1
 1011 700 l 1
 909 109 l 1
 1002 109 l 1
 963 -120 l 1
 852 -120 l 1
 873 0 l 1
 48 0 l 1
 168 700 l 1
 288 700 l 1
 187 109 l 1
 430 109 l 1
 531 700 l 1
 648 700 l 1
 547 109 l 1
 790 109 l 1
EndSplineSet
EndChar

StartChar: uni042A
Encoding: 1066 1066 426
Width: 668
VWidth: 0
Flags: HW
LayerCount: 2
Fore
SplineSet
280 331 m 1
 298 435 l 1
 430 435 l 2
 570 434 664 349 645 217 c 0
 625 83 511 1 367 0 c 2
 223 0 l 1
 241 104 l 1
 374 104 l 2
 451 105 515 145 529 218 c 0
 542 289 497 331 423 331 c 2
 280 331 l 1
259 592 m 1
 81 591 l 1
 100 700 l 1
 395 700 l 1
 274 0 l 1
 157 0 l 1
 259 592 l 1
EndSplineSet
EndChar

StartChar: uni042B
Encoding: 1067 1067 427
Width: 798
VWidth: 0
Flags: HW
LayerCount: 2
Fore
SplineSet
697 700 m 1
 818 700 l 1
 698 0 l 1
 579 0 l 1
 697 700 l 1
165 700 m 1
 286 700 l 1
 164 0 l 1
 48 0 l 1
 165 700 l 1
172 331 m 1
 190 435 l 1
 322 435 l 2
 462 434 556 349 537 217 c 0
 517 83 403 1 259 0 c 2
 115 0 l 1
 133 104 l 1
 266 104 l 2
 343 105 407 145 421 218 c 0
 434 289 389 331 315 331 c 2
 172 331 l 1
EndSplineSet
EndChar

StartChar: uni042C
Encoding: 1068 1068 428
Width: 560
VWidth: 0
Flags: HW
LayerCount: 2
Fore
SplineSet
165 700 m 1
 286 700 l 1
 164 0 l 1
 48 0 l 1
 165 700 l 1
172 331 m 1
 190 435 l 1
 322 435 l 2
 462 434 556 349 537 217 c 0
 517 83 403 1 259 0 c 2
 115 0 l 1
 133 104 l 1
 266 104 l 2
 343 105 407 145 421 218 c 0
 434 289 389 331 315 331 c 2
 172 331 l 1
EndSplineSet
EndChar

StartChar: uni042D
Encoding: 1069 1069 429
Width: 670
VWidth: 0
Flags: HW
LayerCount: 2
Fore
SplineSet
154 299 m 1
 170 401 l 1
 565 401 l 1
 547 299 l 1
 154 299 l 1
548 350 m 0
 569 481 490 597 358 599 c 0
 263 600 185 554 126 505 c 1
 145 638 l 1
 209 685 277 712 370 712 c 0
 574 712 697 545 669 350 c 0
 639 146 466 -12 258 -12 c 0
 169 -12 106 13 49 63 c 1
 68 195 l 1
 110 139 175 101 262 101 c 0
 397 101 524 211 548 350 c 0
EndSplineSet
EndChar

StartChar: uni042E
Encoding: 1070 1070 430
Width: 1042
VWidth: 0
Flags: HW
LayerCount: 2
Fore
SplineSet
148 321 m 1
 166 430 l 1
 430 430 l 1
 411 321 l 1
 148 321 l 1
165 700 m 1
 286 700 l 1
 164 0 l 1
 48 0 l 1
 165 700 l 1
458 350 m 0
 437 223 500 102 639 101 c 0
 780 100 892 215 916 350 c 0
 937 477 875 598 735 599 c 0
 594 600 482 485 458 350 c 0
332 350 m 0
 362 551 535 712 743 712 c 0
 948 712 1070 544 1042 350 c 0
 1012 149 840 -15 630 -15 c 0
 424 -15 304 156 332 350 c 0
EndSplineSet
EndChar

StartChar: uni042F
Encoding: 1071 1071 431
Width: 577
VWidth: 0
Flags: HW
LayerCount: 2
Fore
SplineSet
397 333 m 1
 123 0 l 1
 -25 0 l 1
 263 333 l 1
 397 333 l 1
597 700 m 1
 477 0 l 1
 358 0 l 1
 478 700 l 1
 597 700 l 1
510 597 m 1
 378 597 l 2
 301 597 235 553 221 480 c 0
 208 410 254 365 328 363 c 1
 471 362 l 1
 453 265 l 1
 316 265 l 1
 177 267 83 352 102 483 c 0
 122 615 236 699 379 700 c 1
 528 700 l 1
 510 597 l 1
EndSplineSet
EndChar

StartChar: uni0430
Encoding: 1072 1072 432
Width: 571
VWidth: 0
Flags: HW
LayerCount: 2
Fore
SplineSet
457 460 m 1
 562 460 l 1
 482 0 l 1
 379 0 l 1
 457 460 l 1
44 230 m 0
 63 366 173 471 300 470 c 0
 424 469 469 354 453 230 c 0
 435 99 348 -10 225 -10 c 0
 98 -10 27 99 44 230 c 0
155 230 m 0
 143 152 183 86 260 85 c 0
 331 84 401 149 414 230 c 0
 425 306 385 373 316 375 c 0
 238 377 168 312 155 230 c 0
EndSplineSet
EndChar

StartChar: uni0431
Encoding: 1073 1073 433
Width: 553
VWidth: 0
Flags: HW
LayerCount: 2
Fore
SplineSet
319 375 m 1
 339 469 l 1
 474 469 557 363 540 230 c 0
 522 95 407 -10 266 -10 c 0
 115 -10 54 112 54 238 c 1
 162 206 l 1
 162 147 197 86 271 86 c 0
 350 86 418 151 430 230 c 0
 443 312 396 375 319 375 c 1
116 231 m 1
 138 369 213 469 339 469 c 1
 319 375 l 1
 245 375 162 314 162 206 c 1
 116 231 l 1
54 238 m 1
 54 435 149 595 310 658 c 0
 390 689 442 725 470 780 c 1
 577 779 l 1
 547 684 462 624 357 584 c 0
 240 540 154 422 152 306 c 1
 157 208 l 1
 54 238 l 1
EndSplineSet
EndChar

StartChar: uni0432
Encoding: 1074 1074 434
Width: 466
VWidth: 0
Flags: HW
LayerCount: 2
Fore
SplineSet
146 240 m 1
 285 240 l 2
 369 239 445 213 434 124 c 0
 424 50 363 0 273 0 c 2
 106 0 l 1
 119 79 l 1
 245 80 l 2
 289 80 326 104 332 138 c 0
 338 171 313 193 272 193 c 2
 140 194 l 1
 146 240 l 1
145 220 m 1
 153 271 l 1
 269 272 l 2
 306 272 341 294 346 327 c 0
 351 357 328 380 294 380 c 2
 171 381 l 1
 184 460 l 1
 313 460 l 2
 392 459 463 420 451 334 c 0
 440 256 362 222 282 220 c 2
 145 220 l 1
122 460 m 1
 230 460 l 1
 150 0 l 1
 45 0 l 1
 122 460 l 1
EndSplineSet
EndChar

StartChar: uni0433
Encoding: 1075 1075 435
Width: 330
VWidth: 0
Flags: HW
LayerCount: 2
Fore
SplineSet
119 460 m 1
 381 460 l 1
 364 364 l 1
 212 364 l 1
 149 0 l 1
 42 0 l 1
 119 460 l 1
EndSplineSet
EndChar

StartChar: uni0434
Encoding: 1076 1076 436
Width: 654
VWidth: 0
Flags: HW
LayerCount: 2
Fore
SplineSet
353 303 m 1
 186 31 l 1
 71 44 l 1
 381 498 l 1
 535 42 l 1
 426 29 l 1
 353 303 l 1
484 0 m 1
 121 0 l 1
 104 -90 l 1
 -6 -90 l 1
 26 93 l 1
 603 93 l 1
 570 -90 l 1
 467 -90 l 1
 484 0 l 1
EndSplineSet
EndChar

StartChar: uni0435
Encoding: 1077 1077 437
Width: 522
VWidth: 0
Flags: HW
LayerCount: 2
Fore
SplineSet
109 205 m 1
 120 279 l 1
 398 280 l 1
 401 339 376 386 309 387 c 0
 234 389 179 329 164 257 c 1
 157 230 l 1
 146 148 175 80 255 79 c 0
 315 78 361 112 395 153 c 1
 484 113 l 1
 428 41 357 -11 245 -10 c 0
 107 -9 32 101 48 230 c 0
 50 247 54 263 59 279 c 0
 93 389 190 470 316 470 c 0
 456 470 523 368 508 235 c 0
 507 226 505 216 503 205 c 1
 109 205 l 1
EndSplineSet
EndChar

StartChar: uni0436
Encoding: 1078 1078 438
Width: 735
VWidth: 0
Flags: HW
LayerCount: 2
Fore
SplineSet
637 460 m 1
 774 460 l 1
 535 259 l 1
 707 0 l 1
 585 0 l 1
 416 274 l 1
 637 460 l 1
471 460 m 1
 393 0 l 1
 290 0 l 1
 368 460 l 1
 471 460 l 1
194 460 m 1
 359 266 l 1
 104 0 l 1
 -32 0 l 1
 236 267 l 1
 74 460 l 1
 194 460 l 1
EndSplineSet
EndChar

StartChar: uni0437
Encoding: 1079 1079 439
Width: 485
VWidth: 0
Flags: HW
LayerCount: 2
Fore
SplineSet
259 230 m 1
 267 282 l 1
 308 285 344 300 350 335 c 0
 354 363 330 382 300 382 c 0
 257 383 229 350 219 319 c 1
 114 320 l 1
 132 404 205 470 300 470 c 0
 393 470 467 410 455 333 c 0
 442 255 356 232 259 230 c 1
230 -10 m 0
 122 -10 58 55 55 150 c 1
 158 150 l 1
 165 108 182 77 235 76 c 0
 284 75 330 101 337 142 c 0
 345 188 304 204 255 207 c 1
 264 260 l 1
 359 258 453 222 440 134 c 0
 428 43 326 -10 230 -10 c 0
EndSplineSet
EndChar

StartChar: uni0438
Encoding: 1080 1080 440
Width: 546
VWidth: 0
Flags: HW
LayerCount: 2
Fore
SplineSet
507 356 m 1
 31 -42 l 1
 64 104 l 1
 540 502 l 1
 507 356 l 1
227 460 m 1
 162 84 l 1
 31 -42 l 1
 120 460 l 1
 227 460 l 1
540 502 m 1
 451 0 l 1
 344 0 l 1
 410 376 l 1
 540 502 l 1
EndSplineSet
EndChar

StartChar: uni0439
Encoding: 1081 1081 441
Width: 546
VWidth: 0
Flags: HW
LayerCount: 2
Fore
SplineSet
507 356 m 1
 31 -42 l 1
 64 104 l 1
 540 502 l 1
 507 356 l 1
227 460 m 1
 162 84 l 1
 31 -42 l 1
 120 460 l 1
 227 460 l 1
540 502 m 1
 451 0 l 1
 344 0 l 1
 410 376 l 1
 540 502 l 1
204 689 m 1
 283 689 l 1
 283 657 297 622 347 621 c 0
 398 620 423 657 434 689 c 1
 516 688 l 1
 499 612 440 547 342 547 c 0
 246 547 200 612 204 689 c 1
EndSplineSet
EndChar

StartChar: uni043A
Encoding: 1082 1082 442
Width: 482
VWidth: 0
Flags: HW
LayerCount: 2
Fore
SplineSet
112 460 m 1
 220 460 l 1
 140 0 l 1
 36 0 l 1
 112 460 l 1
377 460 m 1
 516 460 l 1
 284 266 l 1
 449 0 l 1
 326 0 l 1
 157 274 l 1
 377 460 l 1
EndSplineSet
EndChar

StartChar: uni043B
Encoding: 1083 1083 443
Width: 566
VWidth: 0
Flags: HW
LayerCount: 2
Fore
SplineSet
543 460 m 1
 464 0 l 1
 357 0 l 1
 419 359 l 1
 220 359 l 1
 187 160 l 1
 167 52 102 5 -17 0 c 1
 -3 98 l 1
 40 104 71 122 81 175 c 1
 130 460 l 1
 543 460 l 1
EndSplineSet
EndChar

StartChar: uni043C
Encoding: 1084 1084 444
Width: 608
VWidth: 0
Flags: HW
LayerCount: 2
Fore
SplineSet
464 0 m 1
 456 350 l 1
 539 501 l 1
 576 0 l 1
 464 0 l 1
262 99 m 1
 539 501 l 1
 517 313 l 1
 271 -33 l 1
 262 99 l 1
271 -33 m 1
 146 323 l 1
 186 498 l 1
 321 89 l 1
 271 -33 l 1
-26 0 m 1
 186 498 l 1
 216 338 l 1
 92 0 l 1
 -26 0 l 1
EndSplineSet
EndChar

StartChar: uni043D
Encoding: 1085 1085 445
Width: 567
VWidth: 0
Flags: HW
LayerCount: 2
Fore
SplineSet
118 198 m 1
 133 287 l 1
 479 287 l 1
 464 198 l 1
 118 198 l 1
447 460 m 1
 555 460 l 1
 475 0 l 1
 371 0 l 1
 447 460 l 1
116 460 m 1
 224 460 l 1
 144 0 l 1
 39 0 l 1
 116 460 l 1
EndSplineSet
EndChar

StartChar: uni043E
Encoding: 1086 1086 446
Width: 546
VWidth: 0
Flags: HW
LayerCount: 2
Fore
SplineSet
43 230 m 0
 63 366 181 470 321 470 c 0
 459 470 547 363 528 230 c 0
 508 94 390 -10 250 -10 c 0
 112 -10 24 97 43 230 c 0
154 230 m 0
 142 156 178 87 256 86 c 0
 335 85 403 151 417 230 c 0
 429 304 393 373 315 374 c 0
 236 375 168 309 154 230 c 0
EndSplineSet
EndChar

StartChar: uni043F
Encoding: 1087 1087 447
Width: 528
VWidth: 0
Flags: HW
LayerCount: 2
Fore
SplineSet
516 460 m 1
 437 0 l 1
 329 0 l 1
 392 362 l 1
 207 362 l 1
 144 0 l 1
 37 0 l 1
 117 460 l 1
 516 460 l 1
EndSplineSet
EndChar

StartChar: uni0440
Encoding: 1088 1088 448
Width: 539
VWidth: 0
Flags: HW
LayerCount: 2
Fore
SplineSet
107 -220 m 1
 -4 -220 l 1
 113 460 l 1
 221 460 l 1
 107 -220 l 1
553 230 m 0
 535 92 426 -13 298 -12 c 0
 172 -11 130 105 145 230 c 0
 162 362 245 471 369 472 c 0
 497 473 570 362 553 230 c 0
441 231 m 0
 453 309 414 372 337 373 c 0
 267 374 195 310 182 229 c 0
 171 153 210 89 279 87 c 0
 357 85 427 150 441 231 c 0
EndSplineSet
EndChar

StartChar: uni0441
Encoding: 1089 1089 449
Width: 465
VWidth: 0
Flags: HW
LayerCount: 2
Fore
SplineSet
150 230 m 0
 137 154 178 86 258 84 c 0
 324 83 385 119 421 161 c 1
 404 41 l 1
 364 9 310 -10 248 -10 c 0
 109 -10 21 97 40 230 c 0
 60 367 178 470 319 470 c 0
 379 470 430 451 466 418 c 1
 448 299 l 1
 427 346 378 376 319 376 c 0
 236 376 165 310 150 230 c 0
EndSplineSet
EndChar

StartChar: uni0442
Encoding: 1090 1090 450
Width: 291
VWidth: 0
Flags: HW
LayerCount: 2
Fore
SplineSet
55 460 m 1
 341 460 l 1
 324 364 l 1
 38 364 l 1
 55 460 l 1
140 440 m 1
 248 440 l 1
 172 0 l 1
 67 0 l 1
 140 440 l 1
EndSplineSet
EndChar

StartChar: uni0443
Encoding: 1091 1091 451
Width: 458
VWidth: 0
Flags: HW
LayerCount: 2
Fore
SplineSet
518 460 m 1
 110 -220 l 1
 -9 -220 l 1
 159 58 l 1
 49 460 l 1
 168 460 l 1
 249 96 l 1
 197 100 l 1
 398 460 l 1
 518 460 l 1
EndSplineSet
EndChar

StartChar: uni0444
Encoding: 1092 1092 452
Width: 599
VWidth: 0
Flags: HW
LayerCount: 2
Fore
SplineSet
315 560 m 1
 422 560 l 1
 308 -100 l 1
 205 -100 l 1
 315 560 l 1
43 230 m 0
 64 372 191 470 348 470 c 0
 501 470 602 369 582 230 c 0
 561 88 434 -10 277 -10 c 0
 124 -10 23 91 43 230 c 0
146 230 m 0
 130 146 183 87 282 86 c 0
 384 85 462 144 479 230 c 0
 495 314 442 373 343 374 c 0
 241 375 163 316 146 230 c 0
EndSplineSet
EndChar

StartChar: uni0445
Encoding: 1093 1093 453
Width: 449
VWidth: 0
Flags: HW
LayerCount: 2
Fore
SplineSet
373 460 m 1
 498 460 l 1
 296 233 l 1
 426 0 l 1
 311 0 l 1
 230 157 l 1
 99 0 l 1
 -29 0 l 1
 185 242 l 1
 63 460 l 1
 181 460 l 1
 252 318 l 1
 373 460 l 1
EndSplineSet
EndChar

StartChar: uni0446
Encoding: 1094 1094 454
Width: 569
VWidth: 0
Flags: HW
LayerCount: 2
Fore
SplineSet
454 95 m 1
 535 95 l 1
 501 -95 l 1
 402 -95 l 1
 418 0 l 1
 38 0 l 1
 117 460 l 1
 226 460 l 1
 163 96 l 1
 346 96 l 1
 410 460 l 1
 517 460 l 1
 454 95 l 1
EndSplineSet
EndChar

StartChar: uni0447
Encoding: 1095 1095 455
Width: 494
VWidth: 0
Flags: HW
LayerCount: 2
Fore
SplineSet
220 131 m 1
 250 224 l 1
 389 225 l 1
 373 131 l 1
 220 131 l 1
369 460 m 1
 480 460 l 1
 400 0 l 1
 293 0 l 1
 369 460 l 1
208 460 m 1
 183 323 l 2
 172 259 189 224 250 224 c 1
 220 131 l 1
 89 131 58 205 76 328 c 2
 98 460 l 1
 208 460 l 1
EndSplineSet
EndChar

StartChar: uni0448
Encoding: 1096 1096 456
Width: 778
VWidth: 0
Flags: HW
LayerCount: 2
Fore
SplineSet
430 95 m 1
 596 96 l 1
 659 460 l 1
 766 460 l 1
 687 0 l 1
 38 0 l 1
 117 460 l 1
 224 460 l 1
 160 96 l 1
 325 96 l 1
 389 460 l 1
 493 460 l 1
 430 95 l 1
EndSplineSet
EndChar

StartChar: uni0449
Encoding: 1097 1097 457
Width: 817
VWidth: 0
Flags: HW
LayerCount: 2
Fore
SplineSet
430 95 m 1
 596 96 l 1
 659 460 l 1
 766 460 l 1
 703 96 l 1
 781 96 l 1
 749 -95 l 1
 649 -95 l 1
 666 0 l 1
 38 0 l 1
 117 460 l 1
 224 460 l 1
 160 96 l 1
 325 96 l 1
 389 460 l 1
 493 460 l 1
 430 95 l 1
EndSplineSet
EndChar

StartChar: uni044A
Encoding: 1098 1098 458
Width: 573
VWidth: 0
Flags: HW
LayerCount: 2
Fore
SplineSet
234 213 m 1
 247 293 l 1
 382 293 l 2
 472 293 540 245 527 150 c 0
 514 55 435 0 342 0 c 2
 197 0 l 1
 212 89 l 1
 337 89 l 2
 381 89 415 112 423 151 c 0
 430 188 406 212 365 212 c 2
 234 213 l 1
191 365 m 1
 38 364 l 1
 55 460 l 1
 309 460 l 1
 229 0 l 1
 128 0 l 1
 191 365 l 1
EndSplineSet
EndChar

StartChar: uni044B
Encoding: 1099 1099 459
Width: 671
VWidth: 0
Flags: HW
LayerCount: 2
Fore
SplineSet
549 460 m 1
 660 460 l 1
 580 0 l 1
 472 0 l 1
 549 460 l 1
116 460 m 1
 227 460 l 1
 146 0 l 1
 39 0 l 1
 116 460 l 1
150 213 m 1
 162 293 l 1
 297 293 l 2
 387 293 455 245 442 150 c 0
 429 55 350 0 257 0 c 2
 112 0 l 1
 127 89 l 1
 252 89 l 2
 296 89 330 112 338 151 c 0
 345 188 322 212 281 212 c 2
 150 213 l 1
EndSplineSet
EndChar

StartChar: uni044C
Encoding: 1100 1100 460
Width: 492
VWidth: 0
Flags: HW
LayerCount: 2
Fore
SplineSet
118 460 m 1
 229 460 l 1
 149 0 l 1
 41 0 l 1
 118 460 l 1
152 213 m 1
 164 293 l 1
 300 293 l 2
 390 293 457 245 444 150 c 0
 431 55 353 0 260 0 c 2
 115 0 l 1
 130 89 l 1
 255 89 l 2
 299 89 333 112 341 151 c 0
 348 188 324 212 283 212 c 2
 152 213 l 1
EndSplineSet
EndChar

StartChar: uni044D
Encoding: 1101 1101 461
Width: 469
VWidth: 0
Flags: HW
LayerCount: 2
Fore
SplineSet
140 272 m 1
 436 272 l 1
 369 188 l 1
 127 188 l 1
 140 272 l 1
344 230 m 0
 357 309 319 381 237 383 c 0
 172 385 111 349 75 307 c 1
 90 419 l 1
 130 450 186 470 247 470 c 0
 386 470 473 363 454 230 c 0
 434 93 317 -10 176 -10 c 0
 116 -10 65 7 29 42 c 1
 45 154 l 1
 66 107 114 76 175 76 c 0
 260 76 329 143 344 230 c 0
EndSplineSet
EndChar

StartChar: uni044E
Encoding: 1102 1102 462
Width: 752
VWidth: 0
Flags: HW
LayerCount: 2
Fore
SplineSet
118 198 m 1
 133 287 l 1
 341 287 l 1
 326 198 l 1
 118 198 l 1
116 460 m 1
 224 460 l 1
 144 0 l 1
 39 0 l 1
 116 460 l 1
250 230 m 0
 270 366 387 470 527 470 c 0
 665 470 754 363 735 230 c 0
 715 94 597 -10 457 -10 c 0
 319 -10 231 97 250 230 c 0
360 230 m 0
 348 156 385 87 463 86 c 0
 542 85 610 151 624 230 c 0
 636 304 599 373 521 374 c 0
 442 375 374 309 360 230 c 0
EndSplineSet
EndChar

